G75*
G70*
%OFA0B0*%
%FSLAX24Y24*%
%IPPOS*%
%LPD*%
%AMOC8*
5,1,8,0,0,1.08239X$1,22.5*
%
%ADD10C,0.0000*%
%ADD11C,0.0051*%
%ADD12C,0.0060*%
%ADD13C,0.0860*%
%ADD14OC8,0.0660*%
%ADD15OC8,0.0630*%
%ADD16C,0.0630*%
%ADD17OC8,0.0520*%
%ADD18OC8,0.0620*%
%ADD19C,0.0620*%
%ADD20C,0.0560*%
%ADD21R,0.0356X0.0356*%
%ADD22C,0.0400*%
%ADD23C,0.0100*%
%ADD24C,0.0160*%
%ADD25C,0.0240*%
%ADD26C,0.0320*%
%ADD27C,0.0120*%
D10*
X007360Y000754D02*
X007360Y029550D01*
X033730Y029550D01*
X033730Y025484D01*
X034360Y024854D01*
X034360Y020354D01*
X035360Y019354D01*
X035360Y006454D01*
X034360Y005454D01*
X034360Y000754D01*
X007360Y000754D01*
D11*
X000492Y000754D01*
X001260Y000754D02*
X001362Y001778D01*
X001385Y001778D02*
X001260Y000754D01*
X001157Y001778D01*
X001134Y001778D02*
X001385Y001778D01*
X001311Y001778D02*
X001260Y000754D01*
X001208Y001778D01*
X001134Y001778D02*
X001260Y000754D01*
X001260Y029550D01*
X001362Y028527D01*
X001385Y028527D02*
X001260Y029550D01*
X001157Y028527D01*
X001134Y028527D02*
X001385Y028527D01*
X001311Y028527D02*
X001260Y029550D01*
X001208Y028527D01*
X001134Y028527D02*
X001260Y029550D01*
X000492Y029550D02*
X007360Y029550D01*
X007360Y031354D02*
X008383Y031252D01*
X008383Y031228D02*
X007360Y031354D01*
X008383Y031456D01*
X008383Y031480D02*
X008383Y031228D01*
X008383Y031303D02*
X007360Y031354D01*
X008383Y031405D01*
X008383Y031480D02*
X007360Y031354D01*
X035360Y031354D01*
X034336Y031252D01*
X034336Y031228D02*
X035360Y031354D01*
X034336Y031456D01*
X034336Y031480D02*
X034336Y031228D01*
X034336Y031303D02*
X035360Y031354D01*
X034336Y031405D01*
X034336Y031480D02*
X035360Y031354D01*
X035360Y032122D02*
X035360Y019354D01*
X039027Y019354D01*
X038260Y019354D02*
X038362Y018330D01*
X038385Y018330D02*
X038134Y018330D01*
X038260Y019354D01*
X038157Y018330D01*
X038208Y018330D02*
X038260Y019354D01*
X038311Y018330D01*
X038385Y018330D02*
X038260Y019354D01*
X038260Y006454D01*
X038362Y007478D01*
X038385Y007478D02*
X038134Y007478D01*
X038260Y006454D01*
X038157Y007478D01*
X038208Y007478D02*
X038260Y006454D01*
X038311Y007478D01*
X038385Y007478D02*
X038260Y006454D01*
X039027Y006454D02*
X035360Y006454D01*
X007360Y019354D02*
X007360Y032122D01*
D12*
X020137Y032251D02*
X020564Y032251D01*
X020564Y032144D01*
X020137Y031717D01*
X020137Y031610D01*
X020781Y031610D02*
X021208Y031610D01*
X020995Y031610D02*
X020995Y032251D01*
X020781Y032037D01*
X021426Y031717D02*
X021533Y031717D01*
X021533Y031610D01*
X021426Y031610D01*
X021426Y031717D01*
X021748Y031610D02*
X022175Y031610D01*
X021962Y031610D02*
X021962Y032251D01*
X021748Y032037D01*
X022393Y032144D02*
X022499Y032251D01*
X022713Y032251D01*
X022820Y032144D01*
X022820Y032037D01*
X022393Y031610D01*
X022820Y031610D01*
X037363Y014364D02*
X037470Y014364D01*
X037897Y013937D01*
X038003Y013937D01*
X037470Y013720D02*
X037897Y013293D01*
X038003Y013293D01*
X038003Y013077D02*
X038003Y012970D01*
X037897Y012970D01*
X037897Y013077D01*
X038003Y013077D01*
X038003Y012753D02*
X038003Y012326D01*
X037576Y012753D01*
X037470Y012753D01*
X037363Y012646D01*
X037363Y012433D01*
X037470Y012326D01*
X037470Y012108D02*
X037576Y012108D01*
X037683Y012002D01*
X037790Y012108D01*
X037897Y012108D01*
X038003Y012002D01*
X038003Y011788D01*
X037897Y011681D01*
X037683Y011895D02*
X037683Y012002D01*
X037470Y012108D02*
X037363Y012002D01*
X037363Y011788D01*
X037470Y011681D01*
X037363Y013293D02*
X037363Y013720D01*
X037470Y013720D01*
X037363Y013937D02*
X037363Y014364D01*
X001003Y014681D02*
X000897Y014574D01*
X001003Y014681D02*
X001003Y014894D01*
X000897Y015001D01*
X000790Y015001D01*
X000683Y014894D01*
X000683Y014787D01*
X000683Y014894D02*
X000576Y015001D01*
X000470Y015001D01*
X000363Y014894D01*
X000363Y014681D01*
X000470Y014574D01*
X000470Y014356D02*
X000897Y013929D01*
X001003Y013929D01*
X000363Y013929D02*
X000363Y014356D01*
X000470Y014356D01*
X000897Y015218D02*
X000897Y015325D01*
X001003Y015325D01*
X001003Y015218D01*
X000897Y015218D01*
X001003Y015541D02*
X001003Y015968D01*
X001003Y015754D02*
X000363Y015754D01*
X000576Y015541D01*
X000683Y016185D02*
X000683Y016612D01*
X000363Y016506D02*
X000683Y016185D01*
X001003Y016506D02*
X000363Y016506D01*
D13*
X008190Y027054D03*
X009568Y027054D03*
X011537Y027054D03*
X012915Y027054D03*
X014293Y027054D03*
X015671Y027054D03*
X017048Y027054D03*
X018426Y027054D03*
X019804Y027054D03*
X021182Y027054D03*
X023037Y027054D03*
X024415Y027054D03*
X025793Y027054D03*
X027171Y027054D03*
X028548Y027054D03*
X029926Y027054D03*
X031304Y027054D03*
X032682Y027054D03*
X033860Y017263D03*
X033860Y015885D03*
X033860Y009863D03*
X033860Y008485D03*
X033182Y003054D03*
X031804Y003054D03*
X030426Y003054D03*
X029048Y003054D03*
X027671Y003054D03*
X026293Y003054D03*
X024915Y003054D03*
X023537Y003054D03*
X021682Y003054D03*
X020304Y003054D03*
X018926Y003054D03*
X017548Y003054D03*
X016171Y003054D03*
X014793Y003054D03*
X013415Y003054D03*
X012037Y003054D03*
X009568Y003054D03*
X008190Y003054D03*
D14*
X008660Y011154D03*
X009660Y011154D03*
X021060Y010904D03*
X021060Y011904D03*
X024260Y014254D03*
X024260Y015254D03*
X028060Y012904D03*
X028060Y011904D03*
X028360Y005454D03*
X029360Y005454D03*
X030360Y005454D03*
X031360Y005454D03*
X032360Y005454D03*
X033360Y005454D03*
X026360Y005454D03*
X025360Y005454D03*
X024360Y005454D03*
X023360Y005454D03*
X022360Y005454D03*
X021360Y005454D03*
X032860Y020254D03*
X032860Y021254D03*
X033360Y024454D03*
X032360Y024454D03*
X031360Y024454D03*
X030360Y024454D03*
X029360Y024454D03*
X028360Y024454D03*
X027360Y024454D03*
X026360Y024454D03*
X024760Y024454D03*
X023760Y024454D03*
X022760Y024454D03*
X021760Y024454D03*
X020760Y024454D03*
X019760Y024454D03*
X018760Y024454D03*
X017760Y024454D03*
X017060Y022054D03*
X016060Y022054D03*
D15*
X026260Y015254D03*
X030360Y016054D03*
D16*
X030360Y017054D03*
X026260Y014254D03*
D17*
X031260Y010254D03*
X031260Y008254D03*
D18*
X019660Y022154D03*
X008660Y009054D03*
D19*
X009660Y009054D03*
X018660Y022154D03*
D20*
X019080Y007454D02*
X019640Y007454D01*
X019640Y006454D02*
X019080Y006454D01*
D21*
X020910Y004654D03*
X019460Y008454D03*
X019060Y008454D03*
X021460Y009854D03*
X024360Y010654D03*
X025160Y008854D03*
X030360Y012054D03*
X030360Y013454D03*
X030360Y014754D03*
X028160Y014754D03*
X028160Y015654D03*
X020360Y015454D03*
X020360Y014054D03*
X019060Y013054D03*
X016360Y012254D03*
X015660Y012254D03*
X011860Y014554D03*
X010860Y015554D03*
X012360Y016054D03*
X012860Y016554D03*
X013360Y017554D03*
X013860Y018554D03*
X016860Y016054D03*
X017360Y016554D03*
X017860Y017554D03*
X018360Y018554D03*
X019960Y019054D03*
X018320Y020074D03*
X017760Y023154D03*
X021160Y023154D03*
X014660Y015354D03*
X008860Y015154D03*
X008860Y020154D03*
X010860Y010154D03*
X011360Y006254D03*
X010860Y003854D03*
X016360Y008054D03*
X015660Y008654D03*
X030860Y006854D03*
D22*
X030660Y008254D02*
X031260Y008254D01*
X031490Y008485D01*
X033860Y008485D01*
X030660Y008254D02*
X028960Y009954D01*
X026260Y009954D01*
X024310Y011904D01*
X021060Y011904D01*
X019460Y012154D02*
X024406Y017006D01*
X024360Y017054D02*
X030360Y017054D01*
X030568Y017263D01*
X033860Y017263D01*
X019460Y012154D02*
X019460Y008454D01*
X016360Y008054D02*
X016360Y012254D01*
D23*
X016570Y012276D02*
X016008Y012276D01*
X016008Y012374D02*
X016570Y012374D01*
X016570Y012473D02*
X016008Y012473D01*
X016008Y012503D02*
X015908Y012602D01*
X015411Y012602D01*
X015311Y012503D01*
X015311Y012006D01*
X015411Y011906D01*
X015430Y011906D01*
X015430Y009002D01*
X015411Y009002D01*
X015311Y008903D01*
X015311Y008406D01*
X015411Y008306D01*
X015908Y008306D01*
X016008Y008406D01*
X016008Y008903D01*
X015908Y009002D01*
X015890Y009002D01*
X015890Y011906D01*
X015908Y011906D01*
X016008Y012006D01*
X016008Y012503D01*
X015939Y012571D02*
X016570Y012571D01*
X016570Y012670D02*
X014150Y012670D01*
X014150Y012768D02*
X016570Y012768D01*
X016570Y012867D02*
X014150Y012867D01*
X014150Y012965D02*
X016570Y012965D01*
X016570Y013064D02*
X014150Y013064D01*
X014150Y013162D02*
X016570Y013162D01*
X016570Y013261D02*
X014150Y013261D01*
X014150Y013359D02*
X016570Y013359D01*
X016570Y013458D02*
X014150Y013458D01*
X014150Y013556D02*
X016570Y013556D01*
X016570Y013655D02*
X014150Y013655D01*
X014150Y013753D02*
X016570Y013753D01*
X016570Y013852D02*
X014150Y013852D01*
X014150Y013950D02*
X016570Y013950D01*
X016570Y014049D02*
X014150Y014049D01*
X014150Y014147D02*
X016570Y014147D01*
X016570Y014246D02*
X014150Y014246D01*
X014150Y014344D02*
X016570Y014344D01*
X016570Y014443D02*
X014150Y014443D01*
X014150Y014541D02*
X016570Y014541D01*
X016570Y014640D02*
X014150Y014640D01*
X014150Y014738D02*
X016570Y014738D01*
X016570Y014837D02*
X014150Y014837D01*
X014150Y014935D02*
X016570Y014935D01*
X016570Y015034D02*
X014150Y015034D01*
X014150Y015132D02*
X016570Y015132D01*
X016570Y015231D02*
X014150Y015231D01*
X014150Y015329D02*
X016570Y015329D01*
X016570Y015428D02*
X014150Y015428D01*
X014150Y015526D02*
X016570Y015526D01*
X016570Y015625D02*
X014150Y015625D01*
X014150Y015723D02*
X016570Y015723D01*
X016570Y015747D02*
X016570Y003504D01*
X016510Y003563D01*
X016461Y003583D01*
X016461Y005801D01*
X016416Y005907D01*
X014150Y008174D01*
X014150Y016854D01*
X014195Y016808D01*
X015195Y015808D01*
X015302Y015764D01*
X016553Y015764D01*
X016570Y015747D01*
X015182Y015822D02*
X014150Y015822D01*
X014150Y015920D02*
X015083Y015920D01*
X014985Y016019D02*
X014150Y016019D01*
X014150Y016117D02*
X014886Y016117D01*
X014788Y016216D02*
X014150Y016216D01*
X014150Y016314D02*
X014689Y016314D01*
X014591Y016413D02*
X014150Y016413D01*
X014150Y016511D02*
X014492Y016511D01*
X014394Y016610D02*
X014150Y016610D01*
X014150Y016708D02*
X014295Y016708D01*
X014197Y016807D02*
X014150Y016807D01*
X012011Y015938D02*
X012011Y015806D01*
X012070Y015747D01*
X012070Y014902D01*
X011611Y014902D01*
X011511Y014803D01*
X011511Y014306D01*
X011610Y014207D01*
X011610Y009148D01*
X011177Y008715D01*
X011107Y008645D01*
X011069Y008553D01*
X011069Y008542D01*
X011068Y008540D01*
X011069Y008493D01*
X011069Y008445D01*
X011069Y008443D01*
X011101Y006715D01*
X010550Y007066D01*
X010550Y009867D01*
X010611Y009806D01*
X011108Y009806D01*
X011208Y009906D01*
X011208Y010403D01*
X011108Y010502D01*
X011090Y010502D01*
X011090Y015206D01*
X011108Y015206D01*
X011208Y015306D01*
X011208Y015803D01*
X011108Y015902D01*
X010611Y015902D01*
X010511Y015803D01*
X010511Y015306D01*
X010611Y015206D01*
X010630Y015206D01*
X010630Y010502D01*
X010611Y010502D01*
X010550Y010441D01*
X010550Y010612D01*
X010505Y010718D01*
X010160Y011064D01*
X010160Y011361D01*
X009867Y011654D01*
X009452Y011654D01*
X009160Y011361D01*
X009160Y010947D01*
X009452Y010654D01*
X009749Y010654D01*
X009970Y010434D01*
X009970Y009423D01*
X009931Y009461D01*
X009755Y009534D01*
X009564Y009534D01*
X009388Y009461D01*
X009253Y009326D01*
X009180Y009150D01*
X009180Y008959D01*
X009253Y008782D01*
X009388Y008647D01*
X009564Y008574D01*
X009755Y008574D01*
X009931Y008647D01*
X009970Y008685D01*
X009970Y006896D01*
X010014Y006790D01*
X010095Y006708D01*
X010202Y006664D01*
X010250Y006664D01*
X011011Y006179D01*
X011011Y006006D01*
X011111Y005906D01*
X011608Y005906D01*
X011708Y006006D01*
X011708Y006503D01*
X011608Y006602D01*
X011603Y006602D01*
X011570Y008401D01*
X012070Y008901D01*
X012070Y003654D01*
X011917Y003654D01*
X011697Y003563D01*
X011528Y003394D01*
X011437Y003173D01*
X011437Y002935D01*
X011528Y002714D01*
X011697Y002545D01*
X011917Y002454D01*
X012156Y002454D01*
X012377Y002545D01*
X012545Y002714D01*
X012637Y002935D01*
X012637Y003173D01*
X012613Y003231D01*
X012650Y003319D01*
X012650Y003409D01*
X012835Y003223D01*
X012815Y003173D01*
X012815Y002935D01*
X012906Y002714D01*
X013075Y002545D01*
X013125Y002525D01*
X013125Y002441D01*
X013169Y002335D01*
X014579Y000924D01*
X007530Y000924D01*
X007530Y019247D01*
X007555Y019273D01*
X007555Y029380D01*
X033560Y029380D01*
X033560Y025414D01*
X033659Y025314D01*
X034190Y024784D01*
X034190Y020284D01*
X034289Y020184D01*
X035164Y019309D01*
X035164Y019273D01*
X035190Y019247D01*
X035190Y006561D01*
X035164Y006535D01*
X035164Y006499D01*
X034190Y005524D01*
X034190Y000924D01*
X030140Y000924D01*
X031674Y002459D01*
X031685Y002454D01*
X031924Y002454D01*
X032144Y002545D01*
X032313Y002714D01*
X032404Y002935D01*
X032404Y003173D01*
X032313Y003394D01*
X032144Y003563D01*
X031924Y003654D01*
X031685Y003654D01*
X031465Y003563D01*
X031296Y003394D01*
X031204Y003173D01*
X031204Y002935D01*
X031241Y002846D01*
X029739Y001344D01*
X024993Y001344D01*
X026123Y002475D01*
X026173Y002454D01*
X026412Y002454D01*
X026632Y002545D01*
X026801Y002714D01*
X026893Y002935D01*
X026893Y003173D01*
X026801Y003394D01*
X026632Y003563D01*
X026412Y003654D01*
X026173Y003654D01*
X025953Y003563D01*
X025784Y003394D01*
X025693Y003173D01*
X025693Y002935D01*
X025713Y002885D01*
X024672Y001844D01*
X024115Y001844D01*
X024745Y002475D01*
X024795Y002454D01*
X025034Y002454D01*
X025255Y002545D01*
X025423Y002714D01*
X025515Y002935D01*
X025515Y003173D01*
X025423Y003394D01*
X025255Y003563D01*
X025034Y003654D01*
X024795Y003654D01*
X024575Y003563D01*
X024406Y003394D01*
X024315Y003173D01*
X024315Y002935D01*
X024335Y002885D01*
X023795Y002344D01*
X021480Y002344D01*
X020900Y002924D01*
X020904Y002935D01*
X020904Y003173D01*
X020813Y003394D01*
X020644Y003563D01*
X020424Y003654D01*
X020185Y003654D01*
X020174Y003650D01*
X018150Y005674D01*
X018150Y005853D01*
X018160Y005843D01*
X018195Y005808D01*
X018203Y005805D01*
X018388Y005639D01*
X021092Y003197D01*
X021082Y003173D01*
X021082Y002935D01*
X021174Y002714D01*
X021342Y002545D01*
X021563Y002454D01*
X021802Y002454D01*
X022022Y002545D01*
X022191Y002714D01*
X022282Y002935D01*
X022282Y003173D01*
X022191Y003394D01*
X022022Y003563D01*
X021802Y003654D01*
X021563Y003654D01*
X021486Y003622D01*
X020729Y004306D01*
X021158Y004306D01*
X021258Y004406D01*
X021258Y004903D01*
X021206Y004954D01*
X021567Y004954D01*
X021860Y005247D01*
X022152Y004954D01*
X022567Y004954D01*
X022860Y005247D01*
X023152Y004954D01*
X023567Y004954D01*
X023860Y005247D01*
X023860Y005661D01*
X023567Y005954D01*
X023152Y005954D01*
X022860Y005661D01*
X022860Y005247D01*
X022860Y005661D01*
X022567Y005954D01*
X022152Y005954D01*
X021860Y005661D01*
X021860Y005247D01*
X021860Y005661D01*
X021567Y005954D01*
X021152Y005954D01*
X020860Y005661D01*
X020860Y005247D01*
X021104Y005002D01*
X020915Y005002D01*
X020460Y005458D01*
X020460Y006053D01*
X020509Y012250D01*
X022263Y014004D01*
X023802Y014004D01*
X024052Y013754D01*
X024467Y013754D01*
X024760Y014047D01*
X024760Y014461D01*
X024467Y014754D01*
X024052Y014754D01*
X023802Y014504D01*
X022384Y014504D01*
X024607Y016684D01*
X030044Y016684D01*
X030085Y016643D01*
X030263Y016569D01*
X030456Y016569D01*
X030634Y016643D01*
X030771Y016779D01*
X030818Y016893D01*
X033381Y016893D01*
X033520Y016754D01*
X033740Y016663D01*
X033979Y016663D01*
X034199Y016754D01*
X034368Y016923D01*
X034460Y017143D01*
X034460Y017382D01*
X034368Y017603D01*
X034199Y017771D01*
X033979Y017863D01*
X033740Y017863D01*
X033520Y017771D01*
X033381Y017633D01*
X030495Y017633D01*
X030359Y017576D01*
X030321Y017539D01*
X030263Y017539D01*
X030085Y017465D01*
X030044Y017424D01*
X024437Y017424D01*
X021287Y020293D01*
X021246Y020334D01*
X021239Y020337D01*
X021233Y020342D01*
X021179Y020362D01*
X021125Y020384D01*
X021117Y020384D01*
X021110Y020387D01*
X021052Y020384D01*
X018650Y020384D01*
X018650Y021674D01*
X018755Y021674D01*
X018931Y021747D01*
X019066Y021882D01*
X019140Y022059D01*
X019140Y022250D01*
X019066Y022426D01*
X018931Y022561D01*
X018755Y022634D01*
X018564Y022634D01*
X018388Y022561D01*
X018253Y022426D01*
X018180Y022250D01*
X018180Y022141D01*
X018133Y022094D01*
X018040Y022001D01*
X017990Y021880D01*
X017990Y020341D01*
X017971Y020323D01*
X017971Y019826D01*
X018071Y019726D01*
X018269Y019726D01*
X018274Y019724D01*
X020932Y019724D01*
X023896Y017024D01*
X020708Y013896D01*
X020708Y014303D01*
X020608Y014402D01*
X020590Y014402D01*
X020590Y015106D01*
X020608Y015106D01*
X020708Y015206D01*
X020708Y015703D01*
X020608Y015802D01*
X020190Y015802D01*
X020190Y018706D01*
X020208Y018706D01*
X020308Y018806D01*
X020308Y019303D01*
X020208Y019402D01*
X019711Y019402D01*
X019611Y019303D01*
X019611Y018806D01*
X019711Y018706D01*
X019730Y018706D01*
X019730Y014049D01*
X019082Y013402D01*
X018811Y013402D01*
X018711Y013303D01*
X018711Y012806D01*
X018811Y012706D01*
X019308Y012706D01*
X019408Y012806D01*
X019408Y013077D01*
X020055Y013724D01*
X020074Y013743D01*
X020111Y013706D01*
X020513Y013706D01*
X019252Y012468D01*
X019250Y012468D01*
X019199Y012417D01*
X019148Y012367D01*
X019147Y012365D01*
X019146Y012364D01*
X019118Y012297D01*
X019090Y012231D01*
X019090Y012229D01*
X019090Y012228D01*
X019090Y012156D01*
X019089Y012084D01*
X019090Y012082D01*
X019090Y008802D01*
X018811Y008802D01*
X018711Y008703D01*
X018711Y008206D01*
X018811Y008106D01*
X019333Y008106D01*
X019386Y008084D01*
X019533Y008084D01*
X019586Y008106D01*
X019708Y008106D01*
X019808Y008206D01*
X019808Y008328D01*
X019830Y008380D01*
X019830Y011999D01*
X020008Y012174D01*
X019973Y007757D01*
X019894Y007836D01*
X019729Y007904D01*
X018990Y007904D01*
X018825Y007836D01*
X018698Y007709D01*
X018650Y007592D01*
X018650Y018247D01*
X018708Y018306D01*
X018708Y018803D01*
X018608Y018902D01*
X018412Y018902D01*
X015450Y021680D01*
X015450Y022934D01*
X017780Y025264D01*
X019817Y025264D01*
X019924Y025308D01*
X020005Y025390D01*
X020753Y026137D01*
X020761Y026141D01*
X020794Y026178D01*
X020828Y026213D01*
X020832Y026221D01*
X021045Y026462D01*
X021063Y026454D01*
X021302Y026454D01*
X021522Y026545D01*
X021691Y026714D01*
X021782Y026935D01*
X021782Y027173D01*
X021691Y027394D01*
X021522Y027563D01*
X021302Y027654D01*
X021063Y027654D01*
X020842Y027563D01*
X020674Y027394D01*
X020582Y027173D01*
X020582Y026935D01*
X020616Y026853D01*
X020371Y026576D01*
X019639Y025844D01*
X018960Y025844D01*
X019005Y025890D01*
X019603Y026488D01*
X019685Y026454D01*
X019924Y026454D01*
X020144Y026545D01*
X020313Y026714D01*
X020404Y026935D01*
X020404Y027173D01*
X020395Y027196D01*
X020517Y027305D01*
X020524Y027308D01*
X020559Y027344D01*
X020596Y027377D01*
X020600Y027384D01*
X020980Y027764D01*
X023295Y027764D01*
X023835Y027223D01*
X023815Y027173D01*
X023815Y026935D01*
X023906Y026714D01*
X024075Y026545D01*
X024295Y026454D01*
X024534Y026454D01*
X024755Y026545D01*
X024923Y026714D01*
X025015Y026935D01*
X025015Y027173D01*
X024923Y027394D01*
X024755Y027563D01*
X024534Y027654D01*
X024295Y027654D01*
X024245Y027633D01*
X023615Y028264D01*
X024172Y028264D01*
X025213Y027223D01*
X025193Y027173D01*
X025193Y026935D01*
X025284Y026714D01*
X025453Y026545D01*
X025673Y026454D01*
X025912Y026454D01*
X026132Y026545D01*
X026301Y026714D01*
X026393Y026935D01*
X026393Y027173D01*
X026301Y027394D01*
X026132Y027563D01*
X025912Y027654D01*
X025673Y027654D01*
X025623Y027633D01*
X024493Y028764D01*
X027806Y028764D01*
X029347Y027223D01*
X029326Y027173D01*
X029326Y026935D01*
X029418Y026714D01*
X029587Y026545D01*
X029807Y026454D01*
X030046Y026454D01*
X030266Y026545D01*
X030435Y026714D01*
X030526Y026935D01*
X030526Y027173D01*
X030435Y027394D01*
X030266Y027563D01*
X030046Y027654D01*
X029807Y027654D01*
X029757Y027633D01*
X028091Y029300D01*
X027984Y029344D01*
X016313Y029344D01*
X016310Y029345D01*
X016256Y029344D01*
X016202Y029344D01*
X016198Y029343D01*
X016194Y029342D01*
X016145Y029321D01*
X016095Y029300D01*
X016092Y029297D01*
X016089Y029296D01*
X016052Y029256D01*
X016014Y029218D01*
X016012Y029215D01*
X014497Y027619D01*
X014412Y027654D01*
X014173Y027654D01*
X013953Y027563D01*
X013784Y027394D01*
X013693Y027173D01*
X013693Y026935D01*
X013733Y026838D01*
X011695Y024800D01*
X011650Y024754D01*
X011650Y025379D01*
X011660Y025390D01*
X012745Y026475D01*
X012795Y026454D01*
X013034Y026454D01*
X013255Y026545D01*
X013423Y026714D01*
X013515Y026935D01*
X013515Y027173D01*
X013423Y027394D01*
X013255Y027563D01*
X013034Y027654D01*
X012795Y027654D01*
X012575Y027563D01*
X012406Y027394D01*
X012315Y027173D01*
X012315Y026935D01*
X012335Y026885D01*
X011289Y025839D01*
X011195Y025800D01*
X011150Y025754D01*
X011150Y026257D01*
X011367Y026475D01*
X011417Y026454D01*
X011656Y026454D01*
X011877Y026545D01*
X012045Y026714D01*
X012137Y026935D01*
X012137Y027173D01*
X012045Y027394D01*
X011877Y027563D01*
X011656Y027654D01*
X011417Y027654D01*
X011197Y027563D01*
X011028Y027394D01*
X010937Y027173D01*
X010937Y026935D01*
X010957Y026885D01*
X010614Y026541D01*
X010570Y026435D01*
X010570Y017082D01*
X010564Y017054D01*
X010570Y017025D01*
X010570Y016996D01*
X010581Y016969D01*
X010586Y016941D01*
X010603Y016917D01*
X010614Y016890D01*
X010634Y016869D01*
X010651Y016845D01*
X010675Y016829D01*
X010695Y016808D01*
X010722Y016797D01*
X012011Y015938D01*
X012011Y015920D02*
X007530Y015920D01*
X007530Y015822D02*
X010530Y015822D01*
X010511Y015723D02*
X007530Y015723D01*
X007530Y015625D02*
X010511Y015625D01*
X010511Y015526D02*
X007530Y015526D01*
X007530Y015428D02*
X010511Y015428D01*
X010511Y015329D02*
X007530Y015329D01*
X007530Y015231D02*
X010586Y015231D01*
X010630Y015132D02*
X007530Y015132D01*
X007530Y015034D02*
X010630Y015034D01*
X010630Y014935D02*
X007530Y014935D01*
X007530Y014837D02*
X010630Y014837D01*
X010630Y014738D02*
X007530Y014738D01*
X007530Y014640D02*
X010630Y014640D01*
X010630Y014541D02*
X007530Y014541D01*
X007530Y014443D02*
X010630Y014443D01*
X010630Y014344D02*
X007530Y014344D01*
X007530Y014246D02*
X010630Y014246D01*
X010630Y014147D02*
X007530Y014147D01*
X007530Y014049D02*
X010630Y014049D01*
X010630Y013950D02*
X007530Y013950D01*
X007530Y013852D02*
X010630Y013852D01*
X010630Y013753D02*
X007530Y013753D01*
X007530Y013655D02*
X010630Y013655D01*
X010630Y013556D02*
X007530Y013556D01*
X007530Y013458D02*
X010630Y013458D01*
X010630Y013359D02*
X007530Y013359D01*
X007530Y013261D02*
X010630Y013261D01*
X010630Y013162D02*
X007530Y013162D01*
X007530Y013064D02*
X010630Y013064D01*
X010630Y012965D02*
X007530Y012965D01*
X007530Y012867D02*
X010630Y012867D01*
X010630Y012768D02*
X007530Y012768D01*
X007530Y012670D02*
X010630Y012670D01*
X010630Y012571D02*
X007530Y012571D01*
X007530Y012473D02*
X010630Y012473D01*
X010630Y012374D02*
X007530Y012374D01*
X007530Y012276D02*
X010630Y012276D01*
X010630Y012177D02*
X007530Y012177D01*
X007530Y012079D02*
X010630Y012079D01*
X010630Y011980D02*
X007530Y011980D01*
X007530Y011882D02*
X010630Y011882D01*
X010630Y011783D02*
X007530Y011783D01*
X007530Y011685D02*
X010630Y011685D01*
X010630Y011586D02*
X009935Y011586D01*
X010033Y011488D02*
X010630Y011488D01*
X010630Y011389D02*
X010132Y011389D01*
X010160Y011291D02*
X010630Y011291D01*
X010630Y011192D02*
X010160Y011192D01*
X010160Y011094D02*
X010630Y011094D01*
X010630Y010995D02*
X010229Y010995D01*
X010327Y010897D02*
X010630Y010897D01*
X010630Y010798D02*
X010426Y010798D01*
X010513Y010700D02*
X010630Y010700D01*
X010630Y010601D02*
X010550Y010601D01*
X010550Y010503D02*
X010630Y010503D01*
X011090Y010503D02*
X011610Y010503D01*
X011610Y010601D02*
X011090Y010601D01*
X011090Y010700D02*
X011610Y010700D01*
X011610Y010798D02*
X011090Y010798D01*
X011090Y010897D02*
X011610Y010897D01*
X011610Y010995D02*
X011090Y010995D01*
X011090Y011094D02*
X011610Y011094D01*
X011610Y011192D02*
X011090Y011192D01*
X011090Y011291D02*
X011610Y011291D01*
X011610Y011389D02*
X011090Y011389D01*
X011090Y011488D02*
X011610Y011488D01*
X011610Y011586D02*
X011090Y011586D01*
X011090Y011685D02*
X011610Y011685D01*
X011610Y011783D02*
X011090Y011783D01*
X011090Y011882D02*
X011610Y011882D01*
X011610Y011980D02*
X011090Y011980D01*
X011090Y012079D02*
X011610Y012079D01*
X011610Y012177D02*
X011090Y012177D01*
X011090Y012276D02*
X011610Y012276D01*
X011610Y012374D02*
X011090Y012374D01*
X011090Y012473D02*
X011610Y012473D01*
X011610Y012571D02*
X011090Y012571D01*
X011090Y012670D02*
X011610Y012670D01*
X011610Y012768D02*
X011090Y012768D01*
X011090Y012867D02*
X011610Y012867D01*
X011610Y012965D02*
X011090Y012965D01*
X011090Y013064D02*
X011610Y013064D01*
X011610Y013162D02*
X011090Y013162D01*
X011090Y013261D02*
X011610Y013261D01*
X011610Y013359D02*
X011090Y013359D01*
X011090Y013458D02*
X011610Y013458D01*
X011610Y013556D02*
X011090Y013556D01*
X011090Y013655D02*
X011610Y013655D01*
X011610Y013753D02*
X011090Y013753D01*
X011090Y013852D02*
X011610Y013852D01*
X011610Y013950D02*
X011090Y013950D01*
X011090Y014049D02*
X011610Y014049D01*
X011610Y014147D02*
X011090Y014147D01*
X011090Y014246D02*
X011571Y014246D01*
X011511Y014344D02*
X011090Y014344D01*
X011090Y014443D02*
X011511Y014443D01*
X011511Y014541D02*
X011090Y014541D01*
X011090Y014640D02*
X011511Y014640D01*
X011511Y014738D02*
X011090Y014738D01*
X011090Y014837D02*
X011545Y014837D01*
X011090Y014935D02*
X012070Y014935D01*
X012070Y015034D02*
X011090Y015034D01*
X011090Y015132D02*
X012070Y015132D01*
X012070Y015231D02*
X011133Y015231D01*
X011208Y015329D02*
X012070Y015329D01*
X012070Y015428D02*
X011208Y015428D01*
X011208Y015526D02*
X012070Y015526D01*
X012070Y015625D02*
X011208Y015625D01*
X011208Y015723D02*
X012070Y015723D01*
X012011Y015822D02*
X011189Y015822D01*
X011594Y016216D02*
X007530Y016216D01*
X007530Y016314D02*
X011447Y016314D01*
X011299Y016413D02*
X007530Y016413D01*
X007530Y016511D02*
X011151Y016511D01*
X011003Y016610D02*
X007530Y016610D01*
X007530Y016708D02*
X010856Y016708D01*
X010699Y016807D02*
X007530Y016807D01*
X007530Y016905D02*
X010607Y016905D01*
X010570Y017004D02*
X007530Y017004D01*
X007530Y017102D02*
X010570Y017102D01*
X010570Y017201D02*
X007530Y017201D01*
X007530Y017299D02*
X010570Y017299D01*
X010570Y017398D02*
X007530Y017398D01*
X007530Y017496D02*
X010570Y017496D01*
X010570Y017595D02*
X007530Y017595D01*
X007530Y017693D02*
X010570Y017693D01*
X010570Y017792D02*
X007530Y017792D01*
X007530Y017890D02*
X010570Y017890D01*
X010570Y017989D02*
X007530Y017989D01*
X007530Y018087D02*
X010570Y018087D01*
X010570Y018186D02*
X007530Y018186D01*
X007530Y018284D02*
X010570Y018284D01*
X010570Y018383D02*
X007530Y018383D01*
X007530Y018481D02*
X010570Y018481D01*
X010570Y018580D02*
X007530Y018580D01*
X007530Y018678D02*
X010570Y018678D01*
X010570Y018777D02*
X007530Y018777D01*
X007530Y018875D02*
X010570Y018875D01*
X010570Y018974D02*
X007530Y018974D01*
X007530Y019072D02*
X010570Y019072D01*
X010570Y019171D02*
X007530Y019171D01*
X007551Y019269D02*
X010570Y019269D01*
X010570Y019368D02*
X007555Y019368D01*
X007555Y019466D02*
X010570Y019466D01*
X010570Y019565D02*
X007555Y019565D01*
X007555Y019663D02*
X010570Y019663D01*
X010570Y019762D02*
X007555Y019762D01*
X007555Y019860D02*
X010570Y019860D01*
X010570Y019959D02*
X007555Y019959D01*
X007555Y020057D02*
X010570Y020057D01*
X010570Y020156D02*
X007555Y020156D01*
X007555Y020254D02*
X010570Y020254D01*
X010570Y020353D02*
X007555Y020353D01*
X007555Y020451D02*
X010570Y020451D01*
X010570Y020550D02*
X007555Y020550D01*
X007555Y020648D02*
X010570Y020648D01*
X010570Y020747D02*
X007555Y020747D01*
X007555Y020845D02*
X010570Y020845D01*
X010570Y020944D02*
X007555Y020944D01*
X007555Y021042D02*
X010570Y021042D01*
X010570Y021141D02*
X007555Y021141D01*
X007555Y021239D02*
X010570Y021239D01*
X010570Y021338D02*
X007555Y021338D01*
X007555Y021436D02*
X010570Y021436D01*
X010570Y021535D02*
X007555Y021535D01*
X007555Y021633D02*
X010570Y021633D01*
X010570Y021732D02*
X007555Y021732D01*
X007555Y021830D02*
X010570Y021830D01*
X010570Y021929D02*
X007555Y021929D01*
X007555Y022027D02*
X010570Y022027D01*
X010570Y022126D02*
X007555Y022126D01*
X007555Y022224D02*
X010570Y022224D01*
X010570Y022323D02*
X007555Y022323D01*
X007555Y022421D02*
X010570Y022421D01*
X010570Y022520D02*
X007555Y022520D01*
X007555Y022618D02*
X010570Y022618D01*
X010570Y022717D02*
X007555Y022717D01*
X007555Y022815D02*
X010570Y022815D01*
X010570Y022914D02*
X007555Y022914D01*
X007555Y023012D02*
X010570Y023012D01*
X010570Y023111D02*
X007555Y023111D01*
X007555Y023209D02*
X010570Y023209D01*
X010570Y023308D02*
X007555Y023308D01*
X007555Y023406D02*
X010570Y023406D01*
X010570Y023505D02*
X007555Y023505D01*
X007555Y023603D02*
X010570Y023603D01*
X010570Y023702D02*
X007555Y023702D01*
X007555Y023800D02*
X010570Y023800D01*
X010570Y023899D02*
X007555Y023899D01*
X007555Y023997D02*
X010570Y023997D01*
X010570Y024096D02*
X007555Y024096D01*
X007555Y024194D02*
X010570Y024194D01*
X010570Y024293D02*
X007555Y024293D01*
X007555Y024391D02*
X010570Y024391D01*
X010570Y024490D02*
X007555Y024490D01*
X007555Y024588D02*
X010570Y024588D01*
X010570Y024687D02*
X007555Y024687D01*
X007555Y024785D02*
X010570Y024785D01*
X010570Y024884D02*
X007555Y024884D01*
X007555Y024982D02*
X010570Y024982D01*
X010570Y025081D02*
X007555Y025081D01*
X007555Y025179D02*
X010570Y025179D01*
X010570Y025278D02*
X007555Y025278D01*
X007555Y025376D02*
X010570Y025376D01*
X010570Y025475D02*
X007555Y025475D01*
X007555Y025573D02*
X010570Y025573D01*
X010570Y025672D02*
X007555Y025672D01*
X007555Y025770D02*
X010570Y025770D01*
X010570Y025869D02*
X007555Y025869D01*
X007555Y025967D02*
X010570Y025967D01*
X010570Y026066D02*
X007555Y026066D01*
X007555Y026164D02*
X010570Y026164D01*
X010570Y026263D02*
X007555Y026263D01*
X007555Y026361D02*
X010570Y026361D01*
X010580Y026460D02*
X009701Y026460D01*
X009688Y026454D02*
X009908Y026545D01*
X010077Y026714D01*
X010168Y026935D01*
X010168Y027173D01*
X010077Y027394D01*
X009908Y027563D01*
X009688Y027654D01*
X009449Y027654D01*
X009228Y027563D01*
X009060Y027394D01*
X008968Y027173D01*
X008968Y026935D01*
X009060Y026714D01*
X009228Y026545D01*
X009449Y026454D01*
X009688Y026454D01*
X009435Y026460D02*
X008323Y026460D01*
X008310Y026454D02*
X008530Y026545D01*
X008699Y026714D01*
X008790Y026935D01*
X008790Y027173D01*
X008699Y027394D01*
X008530Y027563D01*
X008310Y027654D01*
X008071Y027654D01*
X007850Y027563D01*
X007682Y027394D01*
X007590Y027173D01*
X007590Y026935D01*
X007682Y026714D01*
X007850Y026545D01*
X008071Y026454D01*
X008310Y026454D01*
X008057Y026460D02*
X007555Y026460D01*
X007555Y026558D02*
X007838Y026558D01*
X007739Y026657D02*
X007555Y026657D01*
X007555Y026755D02*
X007665Y026755D01*
X007624Y026854D02*
X007555Y026854D01*
X007555Y026952D02*
X007590Y026952D01*
X007590Y027051D02*
X007555Y027051D01*
X007555Y027149D02*
X007590Y027149D01*
X007621Y027248D02*
X007555Y027248D01*
X007555Y027346D02*
X007662Y027346D01*
X007732Y027445D02*
X007555Y027445D01*
X007555Y027543D02*
X007831Y027543D01*
X008041Y027642D02*
X007555Y027642D01*
X007555Y027740D02*
X014613Y027740D01*
X014706Y027839D02*
X007555Y027839D01*
X007555Y027937D02*
X014800Y027937D01*
X014893Y028036D02*
X007555Y028036D01*
X007555Y028134D02*
X014987Y028134D01*
X015080Y028233D02*
X007555Y028233D01*
X007555Y028331D02*
X015174Y028331D01*
X015267Y028430D02*
X007555Y028430D01*
X007555Y028528D02*
X015360Y028528D01*
X015454Y028627D02*
X007555Y028627D01*
X007555Y028725D02*
X015547Y028725D01*
X015641Y028824D02*
X007555Y028824D01*
X007555Y028922D02*
X015734Y028922D01*
X015828Y029021D02*
X007555Y029021D01*
X007555Y029119D02*
X015921Y029119D01*
X016013Y029218D02*
X007555Y029218D01*
X007555Y029316D02*
X016134Y029316D01*
X014519Y027642D02*
X014442Y027642D01*
X014143Y027642D02*
X013064Y027642D01*
X013274Y027543D02*
X013933Y027543D01*
X013835Y027445D02*
X013373Y027445D01*
X013443Y027346D02*
X013764Y027346D01*
X013723Y027248D02*
X013484Y027248D01*
X013515Y027149D02*
X013693Y027149D01*
X013693Y027051D02*
X013515Y027051D01*
X013515Y026952D02*
X013693Y026952D01*
X013726Y026854D02*
X013481Y026854D01*
X013440Y026755D02*
X013650Y026755D01*
X013552Y026657D02*
X013366Y026657D01*
X013453Y026558D02*
X013267Y026558D01*
X013355Y026460D02*
X013047Y026460D01*
X013158Y026263D02*
X012533Y026263D01*
X012632Y026361D02*
X013256Y026361D01*
X013059Y026164D02*
X012435Y026164D01*
X012336Y026066D02*
X012961Y026066D01*
X012862Y025967D02*
X012238Y025967D01*
X012139Y025869D02*
X012764Y025869D01*
X012665Y025770D02*
X012041Y025770D01*
X011942Y025672D02*
X012567Y025672D01*
X012468Y025573D02*
X011844Y025573D01*
X011745Y025475D02*
X012370Y025475D01*
X012271Y025376D02*
X011650Y025376D01*
X011650Y025278D02*
X012173Y025278D01*
X012074Y025179D02*
X011650Y025179D01*
X011650Y025081D02*
X011976Y025081D01*
X011877Y024982D02*
X011650Y024982D01*
X011650Y024884D02*
X011779Y024884D01*
X011680Y024785D02*
X011650Y024785D01*
X011165Y025770D02*
X011150Y025770D01*
X011150Y025869D02*
X011319Y025869D01*
X011418Y025967D02*
X011150Y025967D01*
X011150Y026066D02*
X011516Y026066D01*
X011615Y026164D02*
X011150Y026164D01*
X011155Y026263D02*
X011713Y026263D01*
X011812Y026361D02*
X011254Y026361D01*
X011352Y026460D02*
X011404Y026460D01*
X011669Y026460D02*
X011910Y026460D01*
X011889Y026558D02*
X012009Y026558D01*
X011988Y026657D02*
X012107Y026657D01*
X012062Y026755D02*
X012206Y026755D01*
X012304Y026854D02*
X012103Y026854D01*
X012137Y026952D02*
X012315Y026952D01*
X012315Y027051D02*
X012137Y027051D01*
X012137Y027149D02*
X012315Y027149D01*
X012345Y027248D02*
X012106Y027248D01*
X012065Y027346D02*
X012386Y027346D01*
X012457Y027445D02*
X011995Y027445D01*
X011896Y027543D02*
X012555Y027543D01*
X012765Y027642D02*
X011686Y027642D01*
X011387Y027642D02*
X009718Y027642D01*
X009928Y027543D02*
X011177Y027543D01*
X011079Y027445D02*
X010026Y027445D01*
X010097Y027346D02*
X011008Y027346D01*
X010967Y027248D02*
X010137Y027248D01*
X010168Y027149D02*
X010937Y027149D01*
X010937Y027051D02*
X010168Y027051D01*
X010168Y026952D02*
X010937Y026952D01*
X010926Y026854D02*
X010135Y026854D01*
X010094Y026755D02*
X010828Y026755D01*
X010729Y026657D02*
X010019Y026657D01*
X009921Y026558D02*
X010631Y026558D01*
X009419Y027642D02*
X008340Y027642D01*
X008550Y027543D02*
X009209Y027543D01*
X009110Y027445D02*
X008648Y027445D01*
X008719Y027346D02*
X009040Y027346D01*
X008999Y027248D02*
X008759Y027248D01*
X008790Y027149D02*
X008968Y027149D01*
X008968Y027051D02*
X008790Y027051D01*
X008790Y026952D02*
X008968Y026952D01*
X009002Y026854D02*
X008757Y026854D01*
X008716Y026755D02*
X009043Y026755D01*
X009117Y026657D02*
X008641Y026657D01*
X008543Y026558D02*
X009216Y026558D01*
X012730Y026460D02*
X012782Y026460D01*
X016020Y023505D02*
X034190Y023505D01*
X034190Y023603D02*
X016119Y023603D01*
X016217Y023702D02*
X034190Y023702D01*
X034190Y023800D02*
X016316Y023800D01*
X016414Y023899D02*
X034190Y023899D01*
X034190Y023997D02*
X033610Y023997D01*
X033567Y023954D02*
X033860Y024247D01*
X033860Y024661D01*
X033567Y024954D01*
X033152Y024954D01*
X032860Y024661D01*
X032860Y024247D01*
X033152Y023954D01*
X033567Y023954D01*
X033708Y024096D02*
X034190Y024096D01*
X034190Y024194D02*
X033807Y024194D01*
X033860Y024293D02*
X034190Y024293D01*
X034190Y024391D02*
X033860Y024391D01*
X033860Y024490D02*
X034190Y024490D01*
X034190Y024588D02*
X033860Y024588D01*
X033834Y024687D02*
X034190Y024687D01*
X034188Y024785D02*
X033736Y024785D01*
X033637Y024884D02*
X034090Y024884D01*
X033991Y024982D02*
X017498Y024982D01*
X017552Y024954D02*
X017260Y024661D01*
X017260Y024247D01*
X017552Y023954D01*
X017967Y023954D01*
X018260Y024247D01*
X018260Y024661D01*
X017967Y024954D01*
X017552Y024954D01*
X017482Y024884D02*
X017399Y024884D01*
X017383Y024785D02*
X017301Y024785D01*
X017285Y024687D02*
X017202Y024687D01*
X017260Y024588D02*
X017104Y024588D01*
X017005Y024490D02*
X017260Y024490D01*
X017260Y024391D02*
X016907Y024391D01*
X016808Y024293D02*
X017260Y024293D01*
X017312Y024194D02*
X016710Y024194D01*
X016611Y024096D02*
X017411Y024096D01*
X017509Y023997D02*
X016513Y023997D01*
X015922Y023406D02*
X034190Y023406D01*
X034190Y023308D02*
X015823Y023308D01*
X015725Y023209D02*
X034190Y023209D01*
X034190Y023111D02*
X015626Y023111D01*
X015528Y023012D02*
X034190Y023012D01*
X034190Y022914D02*
X015450Y022914D01*
X015450Y022815D02*
X034190Y022815D01*
X034190Y022717D02*
X015450Y022717D01*
X015450Y022618D02*
X018526Y022618D01*
X018346Y022520D02*
X017273Y022520D01*
X017258Y022534D02*
X017090Y022534D01*
X017090Y022084D01*
X017540Y022084D01*
X017540Y022253D01*
X017258Y022534D01*
X017371Y022421D02*
X018251Y022421D01*
X018210Y022323D02*
X017470Y022323D01*
X017540Y022224D02*
X018180Y022224D01*
X018164Y022126D02*
X017540Y022126D01*
X017540Y022024D02*
X017090Y022024D01*
X017090Y022084D01*
X017030Y022084D01*
X017030Y022534D01*
X016861Y022534D01*
X016580Y022253D01*
X016580Y022084D01*
X017030Y022084D01*
X017030Y022024D01*
X017090Y022024D01*
X017090Y021574D01*
X017258Y021574D01*
X017540Y021855D01*
X017540Y022024D01*
X017540Y021929D02*
X018010Y021929D01*
X017990Y021830D02*
X017514Y021830D01*
X017416Y021732D02*
X017990Y021732D01*
X017990Y021633D02*
X017317Y021633D01*
X017090Y021633D02*
X017030Y021633D01*
X017030Y021574D02*
X017030Y022024D01*
X016580Y022024D01*
X016580Y021855D01*
X016861Y021574D01*
X017030Y021574D01*
X017030Y021732D02*
X017090Y021732D01*
X017090Y021830D02*
X017030Y021830D01*
X017030Y021929D02*
X017090Y021929D01*
X017090Y022027D02*
X018066Y022027D01*
X017990Y021535D02*
X015604Y021535D01*
X015499Y021633D02*
X015773Y021633D01*
X015852Y021554D02*
X016267Y021554D01*
X016560Y021847D01*
X016560Y022261D01*
X016267Y022554D01*
X015852Y022554D01*
X015560Y022261D01*
X015560Y021847D01*
X015852Y021554D01*
X015709Y021436D02*
X017990Y021436D01*
X017990Y021338D02*
X015814Y021338D01*
X015919Y021239D02*
X017990Y021239D01*
X017990Y021141D02*
X016025Y021141D01*
X016130Y021042D02*
X017990Y021042D01*
X017990Y020944D02*
X016235Y020944D01*
X016340Y020845D02*
X017990Y020845D01*
X017990Y020747D02*
X016445Y020747D01*
X016550Y020648D02*
X017990Y020648D01*
X017990Y020550D02*
X016655Y020550D01*
X016760Y020451D02*
X017990Y020451D01*
X017990Y020353D02*
X016865Y020353D01*
X016970Y020254D02*
X017971Y020254D01*
X017971Y020156D02*
X017075Y020156D01*
X017180Y020057D02*
X017971Y020057D01*
X017971Y019959D02*
X017285Y019959D01*
X017390Y019860D02*
X017971Y019860D01*
X018035Y019762D02*
X017495Y019762D01*
X017601Y019663D02*
X020999Y019663D01*
X021107Y019565D02*
X017706Y019565D01*
X017811Y019466D02*
X021215Y019466D01*
X021323Y019368D02*
X020243Y019368D01*
X020308Y019269D02*
X021431Y019269D01*
X021539Y019171D02*
X020308Y019171D01*
X020308Y019072D02*
X021647Y019072D01*
X021756Y018974D02*
X020308Y018974D01*
X020308Y018875D02*
X021864Y018875D01*
X021972Y018777D02*
X020279Y018777D01*
X020190Y018678D02*
X022080Y018678D01*
X022188Y018580D02*
X020190Y018580D01*
X020190Y018481D02*
X022296Y018481D01*
X022404Y018383D02*
X020190Y018383D01*
X020190Y018284D02*
X022513Y018284D01*
X022621Y018186D02*
X020190Y018186D01*
X020190Y018087D02*
X022729Y018087D01*
X022837Y017989D02*
X020190Y017989D01*
X020190Y017890D02*
X022945Y017890D01*
X023053Y017792D02*
X020190Y017792D01*
X020190Y017693D02*
X023161Y017693D01*
X023270Y017595D02*
X020190Y017595D01*
X020190Y017496D02*
X023378Y017496D01*
X023486Y017398D02*
X020190Y017398D01*
X020190Y017299D02*
X023594Y017299D01*
X023702Y017201D02*
X020190Y017201D01*
X020190Y017102D02*
X023810Y017102D01*
X023876Y017004D02*
X020190Y017004D01*
X020190Y016905D02*
X023775Y016905D01*
X023675Y016807D02*
X020190Y016807D01*
X020190Y016708D02*
X023574Y016708D01*
X023474Y016610D02*
X020190Y016610D01*
X020190Y016511D02*
X023374Y016511D01*
X023273Y016413D02*
X020190Y016413D01*
X020190Y016314D02*
X023173Y016314D01*
X023072Y016216D02*
X020190Y016216D01*
X020190Y016117D02*
X022972Y016117D01*
X022871Y016019D02*
X020190Y016019D01*
X020190Y015920D02*
X022771Y015920D01*
X022671Y015822D02*
X020190Y015822D01*
X019730Y015822D02*
X018650Y015822D01*
X018650Y015920D02*
X019730Y015920D01*
X019730Y016019D02*
X018650Y016019D01*
X018650Y016117D02*
X019730Y016117D01*
X019730Y016216D02*
X018650Y016216D01*
X018650Y016314D02*
X019730Y016314D01*
X019730Y016413D02*
X018650Y016413D01*
X018650Y016511D02*
X019730Y016511D01*
X019730Y016610D02*
X018650Y016610D01*
X018650Y016708D02*
X019730Y016708D01*
X019730Y016807D02*
X018650Y016807D01*
X018650Y016905D02*
X019730Y016905D01*
X019730Y017004D02*
X018650Y017004D01*
X018650Y017102D02*
X019730Y017102D01*
X019730Y017201D02*
X018650Y017201D01*
X018650Y017299D02*
X019730Y017299D01*
X019730Y017398D02*
X018650Y017398D01*
X018650Y017496D02*
X019730Y017496D01*
X019730Y017595D02*
X018650Y017595D01*
X018650Y017693D02*
X019730Y017693D01*
X019730Y017792D02*
X018650Y017792D01*
X018650Y017890D02*
X019730Y017890D01*
X019730Y017989D02*
X018650Y017989D01*
X018650Y018087D02*
X019730Y018087D01*
X019730Y018186D02*
X018650Y018186D01*
X018686Y018284D02*
X019730Y018284D01*
X019730Y018383D02*
X018708Y018383D01*
X018708Y018481D02*
X019730Y018481D01*
X019730Y018580D02*
X018708Y018580D01*
X018708Y018678D02*
X019730Y018678D01*
X019640Y018777D02*
X018708Y018777D01*
X018635Y018875D02*
X019611Y018875D01*
X019611Y018974D02*
X018336Y018974D01*
X018231Y019072D02*
X019611Y019072D01*
X019611Y019171D02*
X018126Y019171D01*
X018021Y019269D02*
X019611Y019269D01*
X019676Y019368D02*
X017916Y019368D01*
X018650Y020451D02*
X032360Y020451D01*
X032360Y020461D02*
X032360Y020047D01*
X032652Y019754D01*
X033067Y019754D01*
X033360Y020047D01*
X033360Y020461D01*
X033067Y020754D01*
X032652Y020754D01*
X032360Y020461D01*
X032360Y020353D02*
X021204Y020353D01*
X021330Y020254D02*
X032360Y020254D01*
X032360Y020156D02*
X021438Y020156D01*
X021546Y020057D02*
X032360Y020057D01*
X032448Y019959D02*
X021654Y019959D01*
X021762Y019860D02*
X032546Y019860D01*
X032645Y019762D02*
X021871Y019762D01*
X021979Y019663D02*
X034810Y019663D01*
X034909Y019565D02*
X022087Y019565D01*
X022195Y019466D02*
X035007Y019466D01*
X035106Y019368D02*
X022303Y019368D01*
X022411Y019269D02*
X035168Y019269D01*
X035190Y019171D02*
X022519Y019171D01*
X022628Y019072D02*
X035190Y019072D01*
X035190Y018974D02*
X022736Y018974D01*
X022844Y018875D02*
X035190Y018875D01*
X035190Y018777D02*
X022952Y018777D01*
X023060Y018678D02*
X035190Y018678D01*
X035190Y018580D02*
X023168Y018580D01*
X023276Y018481D02*
X035190Y018481D01*
X035190Y018383D02*
X023385Y018383D01*
X023493Y018284D02*
X035190Y018284D01*
X035190Y018186D02*
X023601Y018186D01*
X023709Y018087D02*
X035190Y018087D01*
X035190Y017989D02*
X023817Y017989D01*
X023925Y017890D02*
X035190Y017890D01*
X035190Y017792D02*
X034151Y017792D01*
X034278Y017693D02*
X035190Y017693D01*
X035190Y017595D02*
X034371Y017595D01*
X034412Y017496D02*
X035190Y017496D01*
X035190Y017398D02*
X034453Y017398D01*
X034460Y017299D02*
X035190Y017299D01*
X035190Y017201D02*
X034460Y017201D01*
X034442Y017102D02*
X035190Y017102D01*
X035190Y017004D02*
X034402Y017004D01*
X034350Y016905D02*
X035190Y016905D01*
X035190Y016807D02*
X034252Y016807D01*
X034088Y016708D02*
X035190Y016708D01*
X035190Y016610D02*
X030554Y016610D01*
X030552Y016519D02*
X030390Y016519D01*
X030390Y016084D01*
X030825Y016084D01*
X030825Y016247D01*
X030552Y016519D01*
X030560Y016511D02*
X035190Y016511D01*
X035190Y016413D02*
X034101Y016413D01*
X034082Y016422D02*
X033995Y016450D01*
X033908Y016464D01*
X033908Y015933D01*
X034439Y015933D01*
X034425Y016021D01*
X034397Y016107D01*
X034356Y016189D01*
X034302Y016263D01*
X034237Y016327D01*
X034164Y016381D01*
X034082Y016422D01*
X033908Y016413D02*
X033811Y016413D01*
X033811Y016464D02*
X033724Y016450D01*
X033637Y016422D01*
X033556Y016381D01*
X033482Y016327D01*
X033417Y016263D01*
X033363Y016189D01*
X033322Y016107D01*
X033294Y016021D01*
X033280Y015933D01*
X033811Y015933D01*
X033811Y015836D01*
X033908Y015836D01*
X033908Y015305D01*
X033995Y015319D01*
X034082Y015347D01*
X034164Y015389D01*
X034237Y015442D01*
X034302Y015507D01*
X034356Y015581D01*
X034397Y015662D01*
X034425Y015749D01*
X034439Y015836D01*
X033908Y015836D01*
X033908Y015933D01*
X033811Y015933D01*
X033811Y016464D01*
X033811Y016314D02*
X033908Y016314D01*
X033908Y016216D02*
X033811Y016216D01*
X033811Y016117D02*
X033908Y016117D01*
X033908Y016019D02*
X033811Y016019D01*
X033811Y015920D02*
X030825Y015920D01*
X030825Y015861D02*
X030825Y016024D01*
X030390Y016024D01*
X030390Y016084D01*
X030330Y016084D01*
X030330Y016519D01*
X030167Y016519D01*
X029895Y016247D01*
X029895Y016084D01*
X030330Y016084D01*
X030330Y016024D01*
X030390Y016024D01*
X030390Y015589D01*
X030552Y015589D01*
X030825Y015861D01*
X030785Y015822D02*
X033282Y015822D01*
X033280Y015836D02*
X033294Y015749D01*
X033322Y015662D01*
X033363Y015581D01*
X033417Y015507D01*
X033482Y015442D01*
X033556Y015389D01*
X033637Y015347D01*
X033724Y015319D01*
X033811Y015305D01*
X033811Y015836D01*
X033280Y015836D01*
X033302Y015723D02*
X030686Y015723D01*
X030588Y015625D02*
X033341Y015625D01*
X033403Y015526D02*
X026645Y015526D01*
X026725Y015447D02*
X026452Y015719D01*
X026290Y015719D01*
X026290Y015284D01*
X026725Y015284D01*
X026725Y015447D01*
X026725Y015428D02*
X033502Y015428D01*
X033693Y015329D02*
X026725Y015329D01*
X026725Y015224D02*
X026290Y015224D01*
X026290Y015284D01*
X026230Y015284D01*
X026230Y015719D01*
X026067Y015719D01*
X025795Y015447D01*
X025795Y015284D01*
X026230Y015284D01*
X026230Y015224D01*
X026290Y015224D01*
X026290Y014789D01*
X026452Y014789D01*
X026725Y015061D01*
X026725Y015224D01*
X026725Y015132D02*
X035190Y015132D01*
X035190Y015034D02*
X026697Y015034D01*
X026598Y014935D02*
X035190Y014935D01*
X035190Y014837D02*
X026500Y014837D01*
X026358Y014738D02*
X035190Y014738D01*
X035190Y014640D02*
X026560Y014640D01*
X026534Y014665D02*
X026356Y014739D01*
X026163Y014739D01*
X025985Y014665D01*
X025848Y014529D01*
X025775Y014351D01*
X025775Y014158D01*
X025848Y013979D01*
X025985Y013843D01*
X026163Y013769D01*
X026356Y013769D01*
X026534Y013843D01*
X026671Y013979D01*
X026745Y014158D01*
X026745Y014351D01*
X026671Y014529D01*
X026534Y014665D01*
X026658Y014541D02*
X035190Y014541D01*
X035190Y014443D02*
X026706Y014443D01*
X026745Y014344D02*
X035190Y014344D01*
X035190Y014246D02*
X026745Y014246D01*
X026740Y014147D02*
X035190Y014147D01*
X035190Y014049D02*
X026699Y014049D01*
X026641Y013950D02*
X035190Y013950D01*
X035190Y013852D02*
X026543Y013852D01*
X025976Y013852D02*
X024564Y013852D01*
X024663Y013950D02*
X025878Y013950D01*
X025820Y014049D02*
X024760Y014049D01*
X024760Y014147D02*
X025779Y014147D01*
X025775Y014246D02*
X024760Y014246D01*
X024760Y014344D02*
X025775Y014344D01*
X025813Y014443D02*
X024760Y014443D01*
X024680Y014541D02*
X025861Y014541D01*
X025959Y014640D02*
X024581Y014640D01*
X024483Y014738D02*
X026161Y014738D01*
X026230Y014789D02*
X026230Y015224D01*
X025795Y015224D01*
X025795Y015061D01*
X026067Y014789D01*
X026230Y014789D01*
X026230Y014837D02*
X026290Y014837D01*
X026290Y014935D02*
X026230Y014935D01*
X026230Y015034D02*
X026290Y015034D01*
X026290Y015132D02*
X026230Y015132D01*
X026230Y015231D02*
X024290Y015231D01*
X024290Y015224D02*
X024290Y015284D01*
X024740Y015284D01*
X024740Y015453D01*
X024458Y015734D01*
X024290Y015734D01*
X024290Y015284D01*
X024230Y015284D01*
X024230Y015734D01*
X024061Y015734D01*
X023780Y015453D01*
X023780Y015284D01*
X024230Y015284D01*
X024230Y015224D01*
X024290Y015224D01*
X024740Y015224D01*
X024740Y015055D01*
X024458Y014774D01*
X024290Y014774D01*
X024290Y015224D01*
X024230Y015224D02*
X024230Y014774D01*
X024061Y014774D01*
X023780Y015055D01*
X023780Y015224D01*
X024230Y015224D01*
X024230Y015231D02*
X023125Y015231D01*
X023225Y015329D02*
X023780Y015329D01*
X023780Y015428D02*
X023326Y015428D01*
X023426Y015526D02*
X023853Y015526D01*
X023951Y015625D02*
X023526Y015625D01*
X023627Y015723D02*
X024050Y015723D01*
X024230Y015723D02*
X024290Y015723D01*
X024290Y015625D02*
X024230Y015625D01*
X024230Y015526D02*
X024290Y015526D01*
X024290Y015428D02*
X024230Y015428D01*
X024230Y015329D02*
X024290Y015329D01*
X024290Y015132D02*
X024230Y015132D01*
X024230Y015034D02*
X024290Y015034D01*
X024290Y014935D02*
X024230Y014935D01*
X024230Y014837D02*
X024290Y014837D01*
X024521Y014837D02*
X026019Y014837D01*
X025921Y014935D02*
X024619Y014935D01*
X024718Y015034D02*
X025822Y015034D01*
X025795Y015132D02*
X024740Y015132D01*
X024740Y015329D02*
X025795Y015329D01*
X025795Y015428D02*
X024740Y015428D01*
X024666Y015526D02*
X025874Y015526D01*
X025972Y015625D02*
X024568Y015625D01*
X024469Y015723D02*
X030033Y015723D01*
X030131Y015625D02*
X026547Y015625D01*
X026290Y015625D02*
X026230Y015625D01*
X026230Y015526D02*
X026290Y015526D01*
X026290Y015428D02*
X026230Y015428D01*
X026230Y015329D02*
X026290Y015329D01*
X026290Y015231D02*
X035190Y015231D01*
X035190Y015329D02*
X034026Y015329D01*
X033908Y015329D02*
X033811Y015329D01*
X033811Y015428D02*
X033908Y015428D01*
X033908Y015526D02*
X033811Y015526D01*
X033811Y015625D02*
X033908Y015625D01*
X033908Y015723D02*
X033811Y015723D01*
X033811Y015822D02*
X033908Y015822D01*
X033908Y015920D02*
X035190Y015920D01*
X035190Y015822D02*
X034437Y015822D01*
X034417Y015723D02*
X035190Y015723D01*
X035190Y015625D02*
X034378Y015625D01*
X034316Y015526D02*
X035190Y015526D01*
X035190Y015428D02*
X034217Y015428D01*
X034426Y016019D02*
X035190Y016019D01*
X035190Y016117D02*
X034392Y016117D01*
X034336Y016216D02*
X035190Y016216D01*
X035190Y016314D02*
X034250Y016314D01*
X033618Y016413D02*
X030659Y016413D01*
X030757Y016314D02*
X033469Y016314D01*
X033383Y016216D02*
X030825Y016216D01*
X030825Y016117D02*
X033327Y016117D01*
X033293Y016019D02*
X030825Y016019D01*
X030390Y016019D02*
X030330Y016019D01*
X030330Y016024D02*
X030330Y015589D01*
X030167Y015589D01*
X029895Y015861D01*
X029895Y016024D01*
X030330Y016024D01*
X030330Y016117D02*
X030390Y016117D01*
X030390Y016216D02*
X030330Y016216D01*
X030330Y016314D02*
X030390Y016314D01*
X030390Y016413D02*
X030330Y016413D01*
X030330Y016511D02*
X030390Y016511D01*
X030159Y016511D02*
X024430Y016511D01*
X024330Y016413D02*
X030060Y016413D01*
X029962Y016314D02*
X024230Y016314D01*
X024129Y016216D02*
X029895Y016216D01*
X029895Y016117D02*
X024029Y016117D01*
X023928Y016019D02*
X029895Y016019D01*
X029895Y015920D02*
X023828Y015920D01*
X023727Y015822D02*
X029934Y015822D01*
X030330Y015822D02*
X030390Y015822D01*
X030390Y015920D02*
X030330Y015920D01*
X030330Y015723D02*
X030390Y015723D01*
X030390Y015625D02*
X030330Y015625D01*
X030165Y016610D02*
X024531Y016610D01*
X024358Y017496D02*
X030159Y017496D01*
X030403Y017595D02*
X024250Y017595D01*
X024142Y017693D02*
X033441Y017693D01*
X033568Y017792D02*
X024033Y017792D01*
X022570Y015723D02*
X020687Y015723D01*
X020708Y015625D02*
X022470Y015625D01*
X022369Y015526D02*
X020708Y015526D01*
X020708Y015428D02*
X022269Y015428D01*
X022168Y015329D02*
X020708Y015329D01*
X020708Y015231D02*
X022068Y015231D01*
X021968Y015132D02*
X020634Y015132D01*
X020590Y015034D02*
X021867Y015034D01*
X021767Y014935D02*
X020590Y014935D01*
X020590Y014837D02*
X021666Y014837D01*
X021566Y014738D02*
X020590Y014738D01*
X020590Y014640D02*
X021465Y014640D01*
X021365Y014541D02*
X020590Y014541D01*
X020590Y014443D02*
X021265Y014443D01*
X021164Y014344D02*
X020666Y014344D01*
X020708Y014246D02*
X021064Y014246D01*
X020963Y014147D02*
X020708Y014147D01*
X020708Y014049D02*
X020863Y014049D01*
X020762Y013950D02*
X020708Y013950D01*
X020461Y013655D02*
X019985Y013655D01*
X019887Y013556D02*
X020361Y013556D01*
X020260Y013458D02*
X019788Y013458D01*
X019690Y013359D02*
X020160Y013359D01*
X020059Y013261D02*
X019591Y013261D01*
X019493Y013162D02*
X019959Y013162D01*
X019858Y013064D02*
X019408Y013064D01*
X019408Y012965D02*
X019758Y012965D01*
X019658Y012867D02*
X019408Y012867D01*
X019370Y012768D02*
X019557Y012768D01*
X019457Y012670D02*
X018650Y012670D01*
X018650Y012768D02*
X018749Y012768D01*
X018711Y012867D02*
X018650Y012867D01*
X018650Y012965D02*
X018711Y012965D01*
X018711Y013064D02*
X018650Y013064D01*
X018650Y013162D02*
X018711Y013162D01*
X018711Y013261D02*
X018650Y013261D01*
X018650Y013359D02*
X018768Y013359D01*
X018650Y013458D02*
X019138Y013458D01*
X019236Y013556D02*
X018650Y013556D01*
X018650Y013655D02*
X019335Y013655D01*
X019433Y013753D02*
X018650Y013753D01*
X018650Y013852D02*
X019532Y013852D01*
X019630Y013950D02*
X018650Y013950D01*
X018650Y014049D02*
X019729Y014049D01*
X019730Y014147D02*
X018650Y014147D01*
X018650Y014246D02*
X019730Y014246D01*
X019730Y014344D02*
X018650Y014344D01*
X018650Y014443D02*
X019730Y014443D01*
X019730Y014541D02*
X018650Y014541D01*
X018650Y014640D02*
X019730Y014640D01*
X019730Y014738D02*
X018650Y014738D01*
X018650Y014837D02*
X019730Y014837D01*
X019730Y014935D02*
X018650Y014935D01*
X018650Y015034D02*
X019730Y015034D01*
X019730Y015132D02*
X018650Y015132D01*
X018650Y015231D02*
X019730Y015231D01*
X019730Y015329D02*
X018650Y015329D01*
X018650Y015428D02*
X019730Y015428D01*
X019730Y015526D02*
X018650Y015526D01*
X018650Y015625D02*
X019730Y015625D01*
X019730Y015723D02*
X018650Y015723D01*
X021323Y013064D02*
X027580Y013064D01*
X027580Y013103D02*
X027580Y012934D01*
X028030Y012934D01*
X028030Y013384D01*
X027861Y013384D01*
X027580Y013103D01*
X027639Y013162D02*
X021421Y013162D01*
X021520Y013261D02*
X027737Y013261D01*
X027836Y013359D02*
X021618Y013359D01*
X021717Y013458D02*
X035190Y013458D01*
X035190Y013556D02*
X021815Y013556D01*
X021914Y013655D02*
X035190Y013655D01*
X035190Y013753D02*
X022012Y013753D01*
X022111Y013852D02*
X023955Y013852D01*
X023856Y013950D02*
X022209Y013950D01*
X022422Y014541D02*
X023839Y014541D01*
X023938Y014640D02*
X022522Y014640D01*
X022623Y014738D02*
X024036Y014738D01*
X023998Y014837D02*
X022723Y014837D01*
X022823Y014935D02*
X023900Y014935D01*
X023801Y015034D02*
X022924Y015034D01*
X023024Y015132D02*
X023780Y015132D01*
X021224Y012965D02*
X027580Y012965D01*
X027580Y012874D02*
X027580Y012705D01*
X027861Y012424D01*
X028030Y012424D01*
X028030Y012874D01*
X028090Y012874D01*
X028090Y012934D01*
X028540Y012934D01*
X028540Y013103D01*
X028258Y013384D01*
X028090Y013384D01*
X028090Y012934D01*
X028030Y012934D01*
X028030Y012874D01*
X027580Y012874D01*
X027580Y012867D02*
X021126Y012867D01*
X021027Y012768D02*
X027580Y012768D01*
X027615Y012670D02*
X020929Y012670D01*
X020830Y012571D02*
X027714Y012571D01*
X027812Y012473D02*
X020732Y012473D01*
X020822Y012374D02*
X020633Y012374D01*
X020724Y012276D02*
X020535Y012276D01*
X020508Y012177D02*
X020625Y012177D01*
X020560Y012111D02*
X020560Y011697D01*
X020852Y011404D01*
X021267Y011404D01*
X021397Y011534D01*
X024156Y011534D01*
X025946Y009744D01*
X026050Y009640D01*
X026186Y009584D01*
X028806Y009584D01*
X030346Y008044D01*
X030450Y007940D01*
X030586Y007884D01*
X031021Y007884D01*
X031081Y007824D01*
X031438Y007824D01*
X031690Y008076D01*
X031690Y008115D01*
X033381Y008115D01*
X033520Y007976D01*
X033740Y007885D01*
X033979Y007885D01*
X034199Y007976D01*
X034368Y008145D01*
X034460Y008365D01*
X034460Y008604D01*
X034368Y008825D01*
X034199Y008993D01*
X033979Y009085D01*
X033740Y009085D01*
X033520Y008993D01*
X033381Y008855D01*
X031417Y008855D01*
X031281Y008798D01*
X031177Y008694D01*
X031166Y008684D01*
X031081Y008684D01*
X031021Y008624D01*
X030813Y008624D01*
X029169Y010268D01*
X029033Y010324D01*
X026413Y010324D01*
X024623Y012114D01*
X024519Y012218D01*
X024383Y012274D01*
X021397Y012274D01*
X021267Y012404D01*
X020852Y012404D01*
X020560Y012111D01*
X020560Y012079D02*
X020507Y012079D01*
X020507Y011980D02*
X020560Y011980D01*
X020560Y011882D02*
X020506Y011882D01*
X020505Y011783D02*
X020560Y011783D01*
X020572Y011685D02*
X020504Y011685D01*
X020503Y011586D02*
X020670Y011586D01*
X020769Y011488D02*
X020503Y011488D01*
X020502Y011389D02*
X024301Y011389D01*
X024203Y011488D02*
X021350Y011488D01*
X021258Y011384D02*
X021090Y011384D01*
X021090Y010934D01*
X021540Y010934D01*
X021540Y011103D01*
X021258Y011384D01*
X021352Y011291D02*
X024400Y011291D01*
X024498Y011192D02*
X021450Y011192D01*
X021540Y011094D02*
X024597Y011094D01*
X024695Y010995D02*
X021540Y010995D01*
X021540Y010874D02*
X021090Y010874D01*
X021090Y010934D01*
X021030Y010934D01*
X021030Y011384D01*
X020861Y011384D01*
X020580Y011103D01*
X020580Y010934D01*
X021030Y010934D01*
X021030Y010874D01*
X021090Y010874D01*
X021090Y010424D01*
X021258Y010424D01*
X021540Y010705D01*
X021540Y010874D01*
X021540Y010798D02*
X024892Y010798D01*
X024794Y010897D02*
X021090Y010897D01*
X021030Y010897D02*
X020498Y010897D01*
X020580Y010874D02*
X020580Y010705D01*
X020861Y010424D01*
X021030Y010424D01*
X021030Y010874D01*
X020580Y010874D01*
X020580Y010798D02*
X020497Y010798D01*
X020496Y010700D02*
X020585Y010700D01*
X020496Y010601D02*
X020684Y010601D01*
X020782Y010503D02*
X020495Y010503D01*
X020494Y010404D02*
X025286Y010404D01*
X025188Y010503D02*
X021337Y010503D01*
X021435Y010601D02*
X025089Y010601D01*
X024991Y010700D02*
X021534Y010700D01*
X021090Y010700D02*
X021030Y010700D01*
X021030Y010798D02*
X021090Y010798D01*
X021090Y010601D02*
X021030Y010601D01*
X021030Y010503D02*
X021090Y010503D01*
X021211Y010202D02*
X021111Y010103D01*
X021111Y009606D01*
X021211Y009506D01*
X021708Y009506D01*
X021808Y009606D01*
X021808Y009624D01*
X024064Y009624D01*
X024811Y008877D01*
X024811Y008606D01*
X024911Y008506D01*
X025408Y008506D01*
X025508Y008606D01*
X025508Y009103D01*
X025408Y009202D01*
X025137Y009202D01*
X024255Y010084D01*
X021808Y010084D01*
X021808Y010103D01*
X021708Y010202D01*
X021211Y010202D01*
X021117Y010109D02*
X020492Y010109D01*
X020492Y010207D02*
X025483Y010207D01*
X025385Y010306D02*
X020493Y010306D01*
X020491Y010010D02*
X021111Y010010D01*
X021111Y009912D02*
X020490Y009912D01*
X020489Y009813D02*
X021111Y009813D01*
X021111Y009715D02*
X020489Y009715D01*
X020488Y009616D02*
X021111Y009616D01*
X021199Y009518D02*
X020487Y009518D01*
X020486Y009419D02*
X024269Y009419D01*
X024171Y009518D02*
X021720Y009518D01*
X021808Y009616D02*
X024072Y009616D01*
X024368Y009321D02*
X020485Y009321D01*
X020485Y009222D02*
X024466Y009222D01*
X024565Y009124D02*
X020484Y009124D01*
X020483Y009025D02*
X024663Y009025D01*
X024762Y008927D02*
X020482Y008927D01*
X020482Y008828D02*
X024811Y008828D01*
X024811Y008730D02*
X020481Y008730D01*
X020480Y008631D02*
X024811Y008631D01*
X024884Y008533D02*
X020479Y008533D01*
X020478Y008434D02*
X029956Y008434D01*
X029858Y008533D02*
X025435Y008533D01*
X025508Y008631D02*
X029759Y008631D01*
X029661Y008730D02*
X025508Y008730D01*
X025508Y008828D02*
X029562Y008828D01*
X029464Y008927D02*
X025508Y008927D01*
X025508Y009025D02*
X029365Y009025D01*
X029267Y009124D02*
X025487Y009124D01*
X025117Y009222D02*
X029168Y009222D01*
X029070Y009321D02*
X025018Y009321D01*
X024920Y009419D02*
X028971Y009419D01*
X028873Y009518D02*
X024821Y009518D01*
X024723Y009616D02*
X026109Y009616D01*
X025976Y009715D02*
X024624Y009715D01*
X024526Y009813D02*
X025877Y009813D01*
X025779Y009912D02*
X024427Y009912D01*
X024329Y010010D02*
X025680Y010010D01*
X025582Y010109D02*
X021802Y010109D01*
X021090Y010995D02*
X021030Y010995D01*
X021030Y011094D02*
X021090Y011094D01*
X021090Y011192D02*
X021030Y011192D01*
X021030Y011291D02*
X021090Y011291D01*
X020767Y011291D02*
X020501Y011291D01*
X020500Y011192D02*
X020669Y011192D01*
X020580Y011094D02*
X020500Y011094D01*
X020499Y010995D02*
X020580Y010995D01*
X019999Y010995D02*
X019830Y010995D01*
X019830Y010897D02*
X019998Y010897D01*
X019997Y010798D02*
X019830Y010798D01*
X019830Y010700D02*
X019996Y010700D01*
X019996Y010601D02*
X019830Y010601D01*
X019830Y010503D02*
X019995Y010503D01*
X019994Y010404D02*
X019830Y010404D01*
X019830Y010306D02*
X019993Y010306D01*
X019992Y010207D02*
X019830Y010207D01*
X019830Y010109D02*
X019992Y010109D01*
X019991Y010010D02*
X019830Y010010D01*
X019830Y009912D02*
X019990Y009912D01*
X019989Y009813D02*
X019830Y009813D01*
X019830Y009715D02*
X019989Y009715D01*
X019988Y009616D02*
X019830Y009616D01*
X019830Y009518D02*
X019987Y009518D01*
X019986Y009419D02*
X019830Y009419D01*
X019830Y009321D02*
X019985Y009321D01*
X019985Y009222D02*
X019830Y009222D01*
X019830Y009124D02*
X019984Y009124D01*
X019983Y009025D02*
X019830Y009025D01*
X019830Y008927D02*
X019982Y008927D01*
X019982Y008828D02*
X019830Y008828D01*
X019830Y008730D02*
X019981Y008730D01*
X019980Y008631D02*
X019830Y008631D01*
X019830Y008533D02*
X019979Y008533D01*
X019978Y008434D02*
X019830Y008434D01*
X019811Y008336D02*
X019978Y008336D01*
X019977Y008237D02*
X019808Y008237D01*
X019741Y008139D02*
X019976Y008139D01*
X019975Y008040D02*
X018650Y008040D01*
X018650Y007942D02*
X019974Y007942D01*
X019974Y007843D02*
X019876Y007843D01*
X020474Y007843D02*
X031062Y007843D01*
X031457Y007843D02*
X035190Y007843D01*
X035190Y007745D02*
X020473Y007745D01*
X020472Y007646D02*
X035190Y007646D01*
X035190Y007548D02*
X020471Y007548D01*
X020471Y007449D02*
X035190Y007449D01*
X035190Y007351D02*
X020470Y007351D01*
X020469Y007252D02*
X035190Y007252D01*
X035190Y007154D02*
X020468Y007154D01*
X020467Y007055D02*
X035190Y007055D01*
X035190Y006957D02*
X020467Y006957D01*
X020466Y006858D02*
X035190Y006858D01*
X035190Y006760D02*
X020465Y006760D01*
X020464Y006661D02*
X035190Y006661D01*
X035190Y006563D02*
X020464Y006563D01*
X020463Y006464D02*
X035129Y006464D01*
X035031Y006366D02*
X020462Y006366D01*
X020461Y006267D02*
X034932Y006267D01*
X034834Y006169D02*
X020460Y006169D01*
X020460Y006070D02*
X034735Y006070D01*
X034637Y005972D02*
X020460Y005972D01*
X020460Y005873D02*
X021071Y005873D01*
X020973Y005775D02*
X020460Y005775D01*
X020460Y005676D02*
X020874Y005676D01*
X020860Y005578D02*
X020460Y005578D01*
X020460Y005479D02*
X020860Y005479D01*
X020860Y005381D02*
X020537Y005381D01*
X020635Y005282D02*
X020860Y005282D01*
X020923Y005184D02*
X020734Y005184D01*
X020832Y005085D02*
X021021Y005085D01*
X021258Y004888D02*
X034190Y004888D01*
X034190Y004790D02*
X021258Y004790D01*
X021258Y004691D02*
X034190Y004691D01*
X034190Y004593D02*
X021258Y004593D01*
X021258Y004494D02*
X034190Y004494D01*
X034190Y004396D02*
X021248Y004396D01*
X020957Y004100D02*
X034190Y004100D01*
X034190Y004002D02*
X021066Y004002D01*
X021175Y003903D02*
X034190Y003903D01*
X034190Y003805D02*
X021284Y003805D01*
X021393Y003706D02*
X034190Y003706D01*
X034190Y003608D02*
X033414Y003608D01*
X033522Y003563D02*
X033302Y003654D01*
X033063Y003654D01*
X032842Y003563D01*
X032674Y003394D01*
X032582Y003173D01*
X032582Y002935D01*
X032674Y002714D01*
X032842Y002545D01*
X033063Y002454D01*
X033302Y002454D01*
X033522Y002545D01*
X033691Y002714D01*
X033782Y002935D01*
X033782Y003173D01*
X033691Y003394D01*
X033522Y003563D01*
X033576Y003509D02*
X034190Y003509D01*
X034190Y003411D02*
X033674Y003411D01*
X033725Y003312D02*
X034190Y003312D01*
X034190Y003214D02*
X033766Y003214D01*
X033782Y003115D02*
X034190Y003115D01*
X034190Y003017D02*
X033782Y003017D01*
X033775Y002918D02*
X034190Y002918D01*
X034190Y002820D02*
X033735Y002820D01*
X033694Y002721D02*
X034190Y002721D01*
X034190Y002623D02*
X033599Y002623D01*
X033471Y002524D02*
X034190Y002524D01*
X034190Y002426D02*
X031641Y002426D01*
X031543Y002327D02*
X034190Y002327D01*
X034190Y002229D02*
X031444Y002229D01*
X031346Y002130D02*
X034190Y002130D01*
X034190Y002032D02*
X031247Y002032D01*
X031149Y001933D02*
X034190Y001933D01*
X034190Y001835D02*
X031050Y001835D01*
X030952Y001736D02*
X034190Y001736D01*
X034190Y001638D02*
X030853Y001638D01*
X030755Y001539D02*
X034190Y001539D01*
X034190Y001441D02*
X030656Y001441D01*
X030558Y001342D02*
X034190Y001342D01*
X034190Y001244D02*
X030459Y001244D01*
X030361Y001145D02*
X034190Y001145D01*
X034190Y001047D02*
X030262Y001047D01*
X030164Y000948D02*
X034190Y000948D01*
X032894Y002524D02*
X032093Y002524D01*
X032221Y002623D02*
X032765Y002623D01*
X032671Y002721D02*
X032316Y002721D01*
X032357Y002820D02*
X032630Y002820D01*
X032589Y002918D02*
X032397Y002918D01*
X032404Y003017D02*
X032582Y003017D01*
X032582Y003115D02*
X032404Y003115D01*
X032388Y003214D02*
X032599Y003214D01*
X032640Y003312D02*
X032347Y003312D01*
X032296Y003411D02*
X032690Y003411D01*
X032789Y003509D02*
X032198Y003509D01*
X032036Y003608D02*
X032951Y003608D01*
X034190Y004199D02*
X020848Y004199D01*
X020739Y004297D02*
X034190Y004297D01*
X034190Y004987D02*
X033599Y004987D01*
X033567Y004954D02*
X033860Y005247D01*
X033860Y005661D01*
X033567Y005954D01*
X033152Y005954D01*
X032860Y005661D01*
X032860Y005247D01*
X033152Y004954D01*
X033567Y004954D01*
X033698Y005085D02*
X034190Y005085D01*
X034190Y005184D02*
X033796Y005184D01*
X033860Y005282D02*
X034190Y005282D01*
X034190Y005381D02*
X033860Y005381D01*
X033860Y005479D02*
X034190Y005479D01*
X034243Y005578D02*
X033860Y005578D01*
X033845Y005676D02*
X034341Y005676D01*
X034440Y005775D02*
X033746Y005775D01*
X033648Y005873D02*
X034538Y005873D01*
X033071Y005873D02*
X032648Y005873D01*
X032567Y005954D02*
X032152Y005954D01*
X031860Y005661D01*
X031860Y005247D01*
X032152Y004954D01*
X032567Y004954D01*
X032860Y005247D01*
X032860Y005661D01*
X032567Y005954D01*
X032746Y005775D02*
X032973Y005775D01*
X032874Y005676D02*
X032845Y005676D01*
X032860Y005578D02*
X032860Y005578D01*
X032860Y005479D02*
X032860Y005479D01*
X032860Y005381D02*
X032860Y005381D01*
X032860Y005282D02*
X032860Y005282D01*
X032923Y005184D02*
X032796Y005184D01*
X032698Y005085D02*
X033021Y005085D01*
X033120Y004987D02*
X032599Y004987D01*
X032120Y004987D02*
X031599Y004987D01*
X031567Y004954D02*
X031860Y005247D01*
X031860Y005661D01*
X031567Y005954D01*
X031152Y005954D01*
X030860Y005661D01*
X030860Y005247D01*
X031152Y004954D01*
X031567Y004954D01*
X031698Y005085D02*
X032021Y005085D01*
X031923Y005184D02*
X031796Y005184D01*
X031860Y005282D02*
X031860Y005282D01*
X031860Y005381D02*
X031860Y005381D01*
X031860Y005479D02*
X031860Y005479D01*
X031860Y005578D02*
X031860Y005578D01*
X031874Y005676D02*
X031845Y005676D01*
X031746Y005775D02*
X031973Y005775D01*
X032071Y005873D02*
X031648Y005873D01*
X031071Y005873D02*
X030648Y005873D01*
X030567Y005954D02*
X030152Y005954D01*
X029860Y005661D01*
X029860Y005247D01*
X030152Y004954D01*
X030567Y004954D01*
X030860Y005247D01*
X030860Y005661D01*
X030567Y005954D01*
X030746Y005775D02*
X030973Y005775D01*
X030874Y005676D02*
X030845Y005676D01*
X030860Y005578D02*
X030860Y005578D01*
X030860Y005479D02*
X030860Y005479D01*
X030860Y005381D02*
X030860Y005381D01*
X030860Y005282D02*
X030860Y005282D01*
X030923Y005184D02*
X030796Y005184D01*
X030698Y005085D02*
X031021Y005085D01*
X031120Y004987D02*
X030599Y004987D01*
X030120Y004987D02*
X029599Y004987D01*
X029567Y004954D02*
X029860Y005247D01*
X029860Y005661D01*
X029567Y005954D01*
X029152Y005954D01*
X028860Y005661D01*
X028860Y005247D01*
X029152Y004954D01*
X029567Y004954D01*
X029698Y005085D02*
X030021Y005085D01*
X029923Y005184D02*
X029796Y005184D01*
X029860Y005282D02*
X029860Y005282D01*
X029860Y005381D02*
X029860Y005381D01*
X029860Y005479D02*
X029860Y005479D01*
X029860Y005578D02*
X029860Y005578D01*
X029874Y005676D02*
X029845Y005676D01*
X029746Y005775D02*
X029973Y005775D01*
X030071Y005873D02*
X029648Y005873D01*
X029071Y005873D02*
X028648Y005873D01*
X028567Y005954D02*
X028860Y005661D01*
X028860Y005247D01*
X028567Y004954D01*
X028152Y004954D01*
X027860Y005247D01*
X027860Y005661D01*
X028152Y005954D01*
X028567Y005954D01*
X028746Y005775D02*
X028973Y005775D01*
X028874Y005676D02*
X028845Y005676D01*
X028860Y005578D02*
X028860Y005578D01*
X028860Y005479D02*
X028860Y005479D01*
X028860Y005381D02*
X028860Y005381D01*
X028860Y005282D02*
X028860Y005282D01*
X028923Y005184D02*
X028796Y005184D01*
X028698Y005085D02*
X029021Y005085D01*
X029120Y004987D02*
X028599Y004987D01*
X028120Y004987D02*
X026599Y004987D01*
X026567Y004954D02*
X026860Y005247D01*
X026860Y005661D01*
X026567Y005954D01*
X026152Y005954D01*
X025860Y005661D01*
X025860Y005247D01*
X026152Y004954D01*
X026567Y004954D01*
X026698Y005085D02*
X028021Y005085D01*
X027923Y005184D02*
X026796Y005184D01*
X026860Y005282D02*
X027860Y005282D01*
X027860Y005381D02*
X026860Y005381D01*
X026860Y005479D02*
X027860Y005479D01*
X027860Y005578D02*
X026860Y005578D01*
X026845Y005676D02*
X027874Y005676D01*
X027973Y005775D02*
X026746Y005775D01*
X026648Y005873D02*
X028071Y005873D01*
X026071Y005873D02*
X025619Y005873D01*
X025558Y005934D02*
X025408Y005934D01*
X025408Y005503D01*
X025311Y005503D01*
X025311Y005934D01*
X025161Y005934D01*
X024880Y005653D01*
X024880Y005502D01*
X025311Y005502D01*
X025311Y005406D01*
X024880Y005406D01*
X024880Y005255D01*
X025161Y004974D01*
X025311Y004974D01*
X025311Y005406D01*
X025408Y005406D01*
X025408Y005502D01*
X025840Y005502D01*
X025840Y005653D01*
X025558Y005934D01*
X025408Y005873D02*
X025311Y005873D01*
X025311Y005775D02*
X025408Y005775D01*
X025408Y005676D02*
X025311Y005676D01*
X025311Y005578D02*
X025408Y005578D01*
X025408Y005479D02*
X025860Y005479D01*
X025840Y005406D02*
X025408Y005406D01*
X025408Y004974D01*
X025558Y004974D01*
X025840Y005255D01*
X025840Y005406D01*
X025840Y005381D02*
X025860Y005381D01*
X025860Y005282D02*
X025840Y005282D01*
X025768Y005184D02*
X025923Y005184D01*
X026021Y005085D02*
X025669Y005085D01*
X025571Y004987D02*
X026120Y004987D01*
X025860Y005578D02*
X025840Y005578D01*
X025816Y005676D02*
X025874Y005676D01*
X025973Y005775D02*
X025718Y005775D01*
X025408Y005381D02*
X025311Y005381D01*
X025311Y005479D02*
X024408Y005479D01*
X024408Y005502D02*
X024840Y005502D01*
X024840Y005653D01*
X024558Y005934D01*
X024408Y005934D01*
X024408Y005503D01*
X024311Y005503D01*
X024311Y005934D01*
X024161Y005934D01*
X023880Y005653D01*
X023880Y005502D01*
X024311Y005502D01*
X024311Y005406D01*
X023880Y005406D01*
X023880Y005255D01*
X024161Y004974D01*
X024311Y004974D01*
X024311Y005406D01*
X024408Y005406D01*
X024408Y005502D01*
X024408Y005578D02*
X024311Y005578D01*
X024311Y005676D02*
X024408Y005676D01*
X024408Y005775D02*
X024311Y005775D01*
X024311Y005873D02*
X024408Y005873D01*
X024619Y005873D02*
X025100Y005873D01*
X025001Y005775D02*
X024718Y005775D01*
X024816Y005676D02*
X024903Y005676D01*
X024880Y005578D02*
X024840Y005578D01*
X024840Y005406D02*
X024408Y005406D01*
X024408Y004974D01*
X024558Y004974D01*
X024840Y005255D01*
X024840Y005406D01*
X024840Y005381D02*
X024880Y005381D01*
X024880Y005282D02*
X024840Y005282D01*
X024768Y005184D02*
X024951Y005184D01*
X025050Y005085D02*
X024669Y005085D01*
X024571Y004987D02*
X025148Y004987D01*
X025311Y004987D02*
X025408Y004987D01*
X025408Y005085D02*
X025311Y005085D01*
X025311Y005184D02*
X025408Y005184D01*
X025408Y005282D02*
X025311Y005282D01*
X024408Y005282D02*
X024311Y005282D01*
X024311Y005184D02*
X024408Y005184D01*
X024408Y005085D02*
X024311Y005085D01*
X024311Y004987D02*
X024408Y004987D01*
X024148Y004987D02*
X023599Y004987D01*
X023698Y005085D02*
X024050Y005085D01*
X023951Y005184D02*
X023796Y005184D01*
X023860Y005282D02*
X023880Y005282D01*
X023880Y005381D02*
X023860Y005381D01*
X023860Y005479D02*
X024311Y005479D01*
X024311Y005381D02*
X024408Y005381D01*
X024001Y005775D02*
X023746Y005775D01*
X023648Y005873D02*
X024100Y005873D01*
X023903Y005676D02*
X023845Y005676D01*
X023860Y005578D02*
X023880Y005578D01*
X023071Y005873D02*
X022648Y005873D01*
X022746Y005775D02*
X022973Y005775D01*
X022874Y005676D02*
X022845Y005676D01*
X022860Y005578D02*
X022860Y005578D01*
X022860Y005479D02*
X022860Y005479D01*
X022860Y005381D02*
X022860Y005381D01*
X022860Y005282D02*
X022860Y005282D01*
X022923Y005184D02*
X022796Y005184D01*
X022698Y005085D02*
X023021Y005085D01*
X023120Y004987D02*
X022599Y004987D01*
X022120Y004987D02*
X021599Y004987D01*
X021698Y005085D02*
X022021Y005085D01*
X021923Y005184D02*
X021796Y005184D01*
X021860Y005282D02*
X021860Y005282D01*
X021860Y005381D02*
X021860Y005381D01*
X021860Y005479D02*
X021860Y005479D01*
X021860Y005578D02*
X021860Y005578D01*
X021874Y005676D02*
X021845Y005676D01*
X021746Y005775D02*
X021973Y005775D01*
X022071Y005873D02*
X021648Y005873D01*
X019874Y004297D02*
X019527Y004297D01*
X019625Y004199D02*
X019983Y004199D01*
X020092Y004100D02*
X019724Y004100D01*
X019822Y004002D02*
X020201Y004002D01*
X020310Y003903D02*
X019921Y003903D01*
X020019Y003805D02*
X020419Y003805D01*
X020528Y003706D02*
X020118Y003706D01*
X020536Y003608D02*
X020637Y003608D01*
X020698Y003509D02*
X020746Y003509D01*
X020796Y003411D02*
X020855Y003411D01*
X020847Y003312D02*
X020964Y003312D01*
X020888Y003214D02*
X021073Y003214D01*
X021082Y003115D02*
X020904Y003115D01*
X020904Y003017D02*
X021082Y003017D01*
X021089Y002918D02*
X020906Y002918D01*
X021004Y002820D02*
X021130Y002820D01*
X021103Y002721D02*
X021171Y002721D01*
X021201Y002623D02*
X021265Y002623D01*
X021300Y002524D02*
X021394Y002524D01*
X021398Y002426D02*
X023876Y002426D01*
X023825Y002524D02*
X023975Y002524D01*
X023877Y002545D02*
X024045Y002714D01*
X024137Y002935D01*
X024137Y003173D01*
X024045Y003394D01*
X023877Y003563D01*
X023656Y003654D01*
X023417Y003654D01*
X023197Y003563D01*
X023028Y003394D01*
X022937Y003173D01*
X022937Y002935D01*
X023028Y002714D01*
X023197Y002545D01*
X023417Y002454D01*
X023656Y002454D01*
X023877Y002545D01*
X023954Y002623D02*
X024073Y002623D01*
X024048Y002721D02*
X024172Y002721D01*
X024089Y002820D02*
X024270Y002820D01*
X024322Y002918D02*
X024130Y002918D01*
X024137Y003017D02*
X024315Y003017D01*
X024315Y003115D02*
X024137Y003115D01*
X024120Y003214D02*
X024331Y003214D01*
X024372Y003312D02*
X024079Y003312D01*
X024029Y003411D02*
X024423Y003411D01*
X024521Y003509D02*
X023930Y003509D01*
X023768Y003608D02*
X024683Y003608D01*
X025146Y003608D02*
X026061Y003608D01*
X025899Y003509D02*
X025308Y003509D01*
X025407Y003411D02*
X025801Y003411D01*
X025750Y003312D02*
X025457Y003312D01*
X025498Y003214D02*
X025709Y003214D01*
X025693Y003115D02*
X025515Y003115D01*
X025515Y003017D02*
X025693Y003017D01*
X025699Y002918D02*
X025508Y002918D01*
X025467Y002820D02*
X025648Y002820D01*
X025549Y002721D02*
X025426Y002721D01*
X025451Y002623D02*
X025332Y002623D01*
X025352Y002524D02*
X025203Y002524D01*
X025254Y002426D02*
X024696Y002426D01*
X024598Y002327D02*
X025155Y002327D01*
X025057Y002229D02*
X024499Y002229D01*
X024401Y002130D02*
X024958Y002130D01*
X024860Y002032D02*
X024302Y002032D01*
X024204Y001933D02*
X024761Y001933D01*
X025188Y001539D02*
X029934Y001539D01*
X029836Y001441D02*
X025089Y001441D01*
X025286Y001638D02*
X030033Y001638D01*
X030131Y001736D02*
X025385Y001736D01*
X025483Y001835D02*
X030230Y001835D01*
X030328Y001933D02*
X025582Y001933D01*
X025680Y002032D02*
X030427Y002032D01*
X030525Y002130D02*
X025779Y002130D01*
X025877Y002229D02*
X030624Y002229D01*
X030722Y002327D02*
X025976Y002327D01*
X026074Y002426D02*
X030821Y002426D01*
X030766Y002545D02*
X030935Y002714D01*
X031026Y002935D01*
X031026Y003173D01*
X030935Y003394D01*
X030766Y003563D01*
X030546Y003654D01*
X030307Y003654D01*
X030087Y003563D01*
X029918Y003394D01*
X029826Y003173D01*
X029826Y002935D01*
X029918Y002714D01*
X030087Y002545D01*
X030307Y002454D01*
X030546Y002454D01*
X030766Y002545D01*
X030715Y002524D02*
X030919Y002524D01*
X030843Y002623D02*
X031018Y002623D01*
X030938Y002721D02*
X031116Y002721D01*
X031215Y002820D02*
X030979Y002820D01*
X031020Y002918D02*
X031211Y002918D01*
X031204Y003017D02*
X031026Y003017D01*
X031026Y003115D02*
X031204Y003115D01*
X031221Y003214D02*
X031010Y003214D01*
X030969Y003312D02*
X031262Y003312D01*
X031312Y003411D02*
X030918Y003411D01*
X030820Y003509D02*
X031411Y003509D01*
X031573Y003608D02*
X030658Y003608D01*
X030195Y003608D02*
X029280Y003608D01*
X029388Y003563D02*
X029168Y003654D01*
X028929Y003654D01*
X028709Y003563D01*
X028540Y003394D01*
X028448Y003173D01*
X028448Y002935D01*
X028540Y002714D01*
X028709Y002545D01*
X028929Y002454D01*
X029168Y002454D01*
X029388Y002545D01*
X029557Y002714D01*
X029648Y002935D01*
X029648Y003173D01*
X029557Y003394D01*
X029388Y003563D01*
X029442Y003509D02*
X030033Y003509D01*
X029934Y003411D02*
X029541Y003411D01*
X029591Y003312D02*
X029884Y003312D01*
X029843Y003214D02*
X029632Y003214D01*
X029648Y003115D02*
X029826Y003115D01*
X029826Y003017D02*
X029648Y003017D01*
X029642Y002918D02*
X029833Y002918D01*
X029874Y002820D02*
X029601Y002820D01*
X029560Y002721D02*
X029915Y002721D01*
X030009Y002623D02*
X029466Y002623D01*
X029337Y002524D02*
X030138Y002524D01*
X028760Y002524D02*
X027959Y002524D01*
X028010Y002545D02*
X028179Y002714D01*
X028271Y002935D01*
X028271Y003173D01*
X028179Y003394D01*
X028010Y003563D01*
X027790Y003654D01*
X027551Y003654D01*
X027331Y003563D01*
X027162Y003394D01*
X027071Y003173D01*
X027071Y002935D01*
X027162Y002714D01*
X027331Y002545D01*
X027551Y002454D01*
X027790Y002454D01*
X028010Y002545D01*
X028088Y002623D02*
X028631Y002623D01*
X028537Y002721D02*
X028182Y002721D01*
X028223Y002820D02*
X028496Y002820D01*
X028455Y002918D02*
X028264Y002918D01*
X028271Y003017D02*
X028448Y003017D01*
X028448Y003115D02*
X028271Y003115D01*
X028254Y003214D02*
X028465Y003214D01*
X028506Y003312D02*
X028213Y003312D01*
X028163Y003411D02*
X028556Y003411D01*
X028655Y003509D02*
X028064Y003509D01*
X027902Y003608D02*
X028817Y003608D01*
X027439Y003608D02*
X026524Y003608D01*
X026686Y003509D02*
X027277Y003509D01*
X027179Y003411D02*
X026785Y003411D01*
X026835Y003312D02*
X027128Y003312D01*
X027087Y003214D02*
X026876Y003214D01*
X026893Y003115D02*
X027071Y003115D01*
X027071Y003017D02*
X026893Y003017D01*
X026886Y002918D02*
X027077Y002918D01*
X027118Y002820D02*
X026845Y002820D01*
X026804Y002721D02*
X027159Y002721D01*
X027254Y002623D02*
X026710Y002623D01*
X026581Y002524D02*
X027382Y002524D01*
X023248Y002524D02*
X021971Y002524D01*
X022099Y002623D02*
X023120Y002623D01*
X023025Y002721D02*
X022194Y002721D01*
X022235Y002820D02*
X022984Y002820D01*
X022944Y002918D02*
X022275Y002918D01*
X022282Y003017D02*
X022937Y003017D01*
X022937Y003115D02*
X022282Y003115D01*
X022266Y003214D02*
X022953Y003214D01*
X022994Y003312D02*
X022225Y003312D01*
X022174Y003411D02*
X023045Y003411D01*
X023143Y003509D02*
X022076Y003509D01*
X021914Y003608D02*
X023305Y003608D01*
X019764Y004396D02*
X019428Y004396D01*
X019330Y004494D02*
X019655Y004494D01*
X019546Y004593D02*
X019231Y004593D01*
X019133Y004691D02*
X019437Y004691D01*
X019328Y004790D02*
X019034Y004790D01*
X018936Y004888D02*
X019219Y004888D01*
X019110Y004987D02*
X018837Y004987D01*
X018739Y005085D02*
X019001Y005085D01*
X018892Y005184D02*
X018640Y005184D01*
X018542Y005282D02*
X018783Y005282D01*
X018674Y005381D02*
X018443Y005381D01*
X018345Y005479D02*
X018565Y005479D01*
X018456Y005578D02*
X018246Y005578D01*
X018150Y005676D02*
X018346Y005676D01*
X018237Y005775D02*
X018150Y005775D01*
X016570Y005775D02*
X016461Y005775D01*
X016461Y005676D02*
X016570Y005676D01*
X016570Y005578D02*
X016461Y005578D01*
X016461Y005479D02*
X016570Y005479D01*
X016570Y005381D02*
X016461Y005381D01*
X016461Y005282D02*
X016570Y005282D01*
X016570Y005184D02*
X016461Y005184D01*
X016461Y005085D02*
X016570Y005085D01*
X016570Y004987D02*
X016461Y004987D01*
X016461Y004888D02*
X016570Y004888D01*
X016570Y004790D02*
X016461Y004790D01*
X016461Y004691D02*
X016570Y004691D01*
X016570Y004593D02*
X016461Y004593D01*
X016461Y004494D02*
X016570Y004494D01*
X016570Y004396D02*
X016461Y004396D01*
X016461Y004297D02*
X016570Y004297D01*
X016570Y004199D02*
X016461Y004199D01*
X016461Y004100D02*
X016570Y004100D01*
X016570Y004002D02*
X016461Y004002D01*
X016461Y003903D02*
X016570Y003903D01*
X016570Y003805D02*
X016461Y003805D01*
X016461Y003706D02*
X016570Y003706D01*
X016570Y003608D02*
X016461Y003608D01*
X016564Y003509D02*
X016570Y003509D01*
X014161Y001342D02*
X007530Y001342D01*
X007530Y001244D02*
X014260Y001244D01*
X014358Y001145D02*
X007530Y001145D01*
X007530Y001047D02*
X014457Y001047D01*
X014555Y000948D02*
X007530Y000948D01*
X007530Y001441D02*
X014063Y001441D01*
X013964Y001539D02*
X007530Y001539D01*
X007530Y001638D02*
X013866Y001638D01*
X013767Y001736D02*
X007530Y001736D01*
X007530Y001835D02*
X013669Y001835D01*
X013570Y001933D02*
X007530Y001933D01*
X007530Y002032D02*
X013472Y002032D01*
X013373Y002130D02*
X007530Y002130D01*
X007530Y002229D02*
X013275Y002229D01*
X013176Y002327D02*
X007530Y002327D01*
X007530Y002426D02*
X013131Y002426D01*
X013125Y002524D02*
X012325Y002524D01*
X012454Y002623D02*
X012998Y002623D01*
X012903Y002721D02*
X012548Y002721D01*
X012589Y002820D02*
X012862Y002820D01*
X012822Y002918D02*
X012630Y002918D01*
X012637Y003017D02*
X012815Y003017D01*
X012815Y003115D02*
X012637Y003115D01*
X012620Y003214D02*
X012831Y003214D01*
X012747Y003312D02*
X012647Y003312D01*
X012070Y003706D02*
X007530Y003706D01*
X007530Y003608D02*
X007959Y003608D01*
X007850Y003563D02*
X008071Y003654D01*
X008310Y003654D01*
X008530Y003563D01*
X008699Y003394D01*
X008790Y003173D01*
X008790Y002935D01*
X008699Y002714D01*
X008530Y002545D01*
X008310Y002454D01*
X008071Y002454D01*
X007850Y002545D01*
X007682Y002714D01*
X007590Y002935D01*
X007590Y003173D01*
X007682Y003394D01*
X007850Y003563D01*
X007797Y003509D02*
X007530Y003509D01*
X007530Y003411D02*
X007698Y003411D01*
X007648Y003312D02*
X007530Y003312D01*
X007530Y003214D02*
X007607Y003214D01*
X007590Y003115D02*
X007530Y003115D01*
X007530Y003017D02*
X007590Y003017D01*
X007597Y002918D02*
X007530Y002918D01*
X007530Y002820D02*
X007638Y002820D01*
X007679Y002721D02*
X007530Y002721D01*
X007530Y002623D02*
X007773Y002623D01*
X007902Y002524D02*
X007530Y002524D01*
X008479Y002524D02*
X009280Y002524D01*
X009228Y002545D02*
X009449Y002454D01*
X009688Y002454D01*
X009908Y002545D01*
X010077Y002714D01*
X010168Y002935D01*
X010168Y003173D01*
X010077Y003394D01*
X009908Y003563D01*
X009688Y003654D01*
X009449Y003654D01*
X009228Y003563D01*
X009060Y003394D01*
X008968Y003173D01*
X008968Y002935D01*
X009060Y002714D01*
X009228Y002545D01*
X009151Y002623D02*
X008607Y002623D01*
X008702Y002721D02*
X009057Y002721D01*
X009016Y002820D02*
X008743Y002820D01*
X008783Y002918D02*
X008975Y002918D01*
X008968Y003017D02*
X008790Y003017D01*
X008790Y003115D02*
X008968Y003115D01*
X008985Y003214D02*
X008774Y003214D01*
X008733Y003312D02*
X009026Y003312D01*
X009076Y003411D02*
X008682Y003411D01*
X008584Y003509D02*
X009175Y003509D01*
X009337Y003608D02*
X008422Y003608D01*
X007530Y003805D02*
X012070Y003805D01*
X012070Y003903D02*
X007530Y003903D01*
X007530Y004002D02*
X012070Y004002D01*
X012070Y004100D02*
X007530Y004100D01*
X007530Y004199D02*
X012070Y004199D01*
X012070Y004297D02*
X007530Y004297D01*
X007530Y004396D02*
X012070Y004396D01*
X012070Y004494D02*
X007530Y004494D01*
X007530Y004593D02*
X012070Y004593D01*
X012070Y004691D02*
X007530Y004691D01*
X007530Y004790D02*
X012070Y004790D01*
X012070Y004888D02*
X007530Y004888D01*
X007530Y004987D02*
X012070Y004987D01*
X012070Y005085D02*
X007530Y005085D01*
X007530Y005184D02*
X012070Y005184D01*
X012070Y005282D02*
X007530Y005282D01*
X007530Y005381D02*
X012070Y005381D01*
X012070Y005479D02*
X007530Y005479D01*
X007530Y005578D02*
X012070Y005578D01*
X012070Y005676D02*
X007530Y005676D01*
X007530Y005775D02*
X012070Y005775D01*
X012070Y005873D02*
X007530Y005873D01*
X007530Y005972D02*
X011045Y005972D01*
X011011Y006070D02*
X007530Y006070D01*
X007530Y006169D02*
X011011Y006169D01*
X010873Y006267D02*
X007530Y006267D01*
X007530Y006366D02*
X010719Y006366D01*
X010564Y006464D02*
X007530Y006464D01*
X007530Y006563D02*
X010409Y006563D01*
X010254Y006661D02*
X007530Y006661D01*
X007530Y006760D02*
X010044Y006760D01*
X009985Y006858D02*
X007530Y006858D01*
X007530Y006957D02*
X009970Y006957D01*
X009970Y007055D02*
X007530Y007055D01*
X007530Y007154D02*
X009970Y007154D01*
X009970Y007252D02*
X007530Y007252D01*
X007530Y007351D02*
X009970Y007351D01*
X009970Y007449D02*
X007530Y007449D01*
X007530Y007548D02*
X009970Y007548D01*
X009970Y007646D02*
X007530Y007646D01*
X007530Y007745D02*
X009970Y007745D01*
X009970Y007843D02*
X007530Y007843D01*
X007530Y007942D02*
X009970Y007942D01*
X009970Y008040D02*
X007530Y008040D01*
X007530Y008139D02*
X009970Y008139D01*
X009970Y008237D02*
X007530Y008237D01*
X007530Y008336D02*
X009970Y008336D01*
X009970Y008434D02*
X007530Y008434D01*
X007530Y008533D02*
X009970Y008533D01*
X009970Y008631D02*
X009893Y008631D01*
X009426Y008631D02*
X008887Y008631D01*
X008850Y008594D02*
X009120Y008864D01*
X009120Y009024D01*
X008690Y009024D01*
X008690Y009084D01*
X009120Y009084D01*
X009120Y009245D01*
X008850Y009514D01*
X008690Y009514D01*
X008690Y009084D01*
X008630Y009084D01*
X008630Y009514D01*
X008469Y009514D01*
X008200Y009245D01*
X008200Y009084D01*
X008630Y009084D01*
X008630Y009024D01*
X008690Y009024D01*
X008690Y008594D01*
X008850Y008594D01*
X008690Y008631D02*
X008630Y008631D01*
X008630Y008594D02*
X008630Y009024D01*
X008200Y009024D01*
X008200Y008864D01*
X008469Y008594D01*
X008630Y008594D01*
X008630Y008730D02*
X008690Y008730D01*
X008690Y008828D02*
X008630Y008828D01*
X008630Y008927D02*
X008690Y008927D01*
X008690Y009025D02*
X009180Y009025D01*
X009180Y009124D02*
X009120Y009124D01*
X009120Y009222D02*
X009210Y009222D01*
X009250Y009321D02*
X009044Y009321D01*
X008945Y009419D02*
X009346Y009419D01*
X009524Y009518D02*
X007530Y009518D01*
X007530Y009616D02*
X009970Y009616D01*
X009970Y009518D02*
X009795Y009518D01*
X009970Y009715D02*
X007530Y009715D01*
X007530Y009813D02*
X009970Y009813D01*
X009970Y009912D02*
X007530Y009912D01*
X007530Y010010D02*
X009970Y010010D01*
X009970Y010109D02*
X007530Y010109D01*
X007530Y010207D02*
X009970Y010207D01*
X009970Y010306D02*
X007530Y010306D01*
X007530Y010404D02*
X009970Y010404D01*
X009901Y010503D02*
X007530Y010503D01*
X007530Y010601D02*
X009802Y010601D01*
X009407Y010700D02*
X008884Y010700D01*
X008858Y010674D02*
X009140Y010955D01*
X009140Y011124D01*
X008690Y011124D01*
X008690Y011184D01*
X009140Y011184D01*
X009140Y011353D01*
X008858Y011634D01*
X008690Y011634D01*
X008690Y011184D01*
X008630Y011184D01*
X008630Y011634D01*
X008461Y011634D01*
X008180Y011353D01*
X008180Y011184D01*
X008630Y011184D01*
X008630Y011124D01*
X008690Y011124D01*
X008690Y010674D01*
X008858Y010674D01*
X008690Y010700D02*
X008630Y010700D01*
X008630Y010674D02*
X008630Y011124D01*
X008180Y011124D01*
X008180Y010955D01*
X008461Y010674D01*
X008630Y010674D01*
X008630Y010798D02*
X008690Y010798D01*
X008690Y010897D02*
X008630Y010897D01*
X008630Y010995D02*
X008690Y010995D01*
X008690Y011094D02*
X008630Y011094D01*
X008630Y011192D02*
X008690Y011192D01*
X008690Y011291D02*
X008630Y011291D01*
X008630Y011389D02*
X008690Y011389D01*
X008690Y011488D02*
X008630Y011488D01*
X008630Y011586D02*
X008690Y011586D01*
X008906Y011586D02*
X009384Y011586D01*
X009286Y011488D02*
X009005Y011488D01*
X009103Y011389D02*
X009187Y011389D01*
X009160Y011291D02*
X009140Y011291D01*
X009140Y011192D02*
X009160Y011192D01*
X009160Y011094D02*
X009140Y011094D01*
X009140Y010995D02*
X009160Y010995D01*
X009210Y010897D02*
X009081Y010897D01*
X008982Y010798D02*
X009308Y010798D01*
X008435Y010700D02*
X007530Y010700D01*
X007530Y010798D02*
X008337Y010798D01*
X008238Y010897D02*
X007530Y010897D01*
X007530Y010995D02*
X008180Y010995D01*
X008180Y011094D02*
X007530Y011094D01*
X007530Y011192D02*
X008180Y011192D01*
X008180Y011291D02*
X007530Y011291D01*
X007530Y011389D02*
X008216Y011389D01*
X008314Y011488D02*
X007530Y011488D01*
X007530Y011586D02*
X008413Y011586D01*
X010550Y009813D02*
X010604Y009813D01*
X010550Y009715D02*
X011610Y009715D01*
X011610Y009813D02*
X011115Y009813D01*
X011208Y009912D02*
X011610Y009912D01*
X011610Y010010D02*
X011208Y010010D01*
X011208Y010109D02*
X011610Y010109D01*
X011610Y010207D02*
X011208Y010207D01*
X011208Y010306D02*
X011610Y010306D01*
X011610Y010404D02*
X011206Y010404D01*
X011610Y009616D02*
X010550Y009616D01*
X010550Y009518D02*
X011610Y009518D01*
X011610Y009419D02*
X010550Y009419D01*
X010550Y009321D02*
X011610Y009321D01*
X011610Y009222D02*
X010550Y009222D01*
X010550Y009124D02*
X011585Y009124D01*
X011487Y009025D02*
X010550Y009025D01*
X010550Y008927D02*
X011388Y008927D01*
X011290Y008828D02*
X010550Y008828D01*
X010550Y008730D02*
X011191Y008730D01*
X011101Y008631D02*
X010550Y008631D01*
X010550Y008533D02*
X011068Y008533D01*
X011070Y008434D02*
X010550Y008434D01*
X010550Y008336D02*
X011071Y008336D01*
X011073Y008237D02*
X010550Y008237D01*
X010550Y008139D02*
X011075Y008139D01*
X011077Y008040D02*
X010550Y008040D01*
X010550Y007942D02*
X011079Y007942D01*
X011080Y007843D02*
X010550Y007843D01*
X010550Y007745D02*
X011082Y007745D01*
X011084Y007646D02*
X010550Y007646D01*
X010550Y007548D02*
X011086Y007548D01*
X011088Y007449D02*
X010550Y007449D01*
X010550Y007351D02*
X011089Y007351D01*
X011091Y007252D02*
X010550Y007252D01*
X010550Y007154D02*
X011093Y007154D01*
X011095Y007055D02*
X010566Y007055D01*
X010721Y006957D02*
X011097Y006957D01*
X011098Y006858D02*
X010876Y006858D01*
X011031Y006760D02*
X011100Y006760D01*
X011600Y006760D02*
X012070Y006760D01*
X012070Y006858D02*
X011599Y006858D01*
X011597Y006957D02*
X012070Y006957D01*
X012070Y007055D02*
X011595Y007055D01*
X011593Y007154D02*
X012070Y007154D01*
X012070Y007252D02*
X011591Y007252D01*
X011590Y007351D02*
X012070Y007351D01*
X012070Y007449D02*
X011588Y007449D01*
X011586Y007548D02*
X012070Y007548D01*
X012070Y007646D02*
X011584Y007646D01*
X011582Y007745D02*
X012070Y007745D01*
X012070Y007843D02*
X011580Y007843D01*
X011579Y007942D02*
X012070Y007942D01*
X012070Y008040D02*
X011577Y008040D01*
X011575Y008139D02*
X012070Y008139D01*
X012070Y008237D02*
X011573Y008237D01*
X011571Y008336D02*
X012070Y008336D01*
X012070Y008434D02*
X011603Y008434D01*
X011701Y008533D02*
X012070Y008533D01*
X012070Y008631D02*
X011800Y008631D01*
X011898Y008730D02*
X012070Y008730D01*
X012070Y008828D02*
X011997Y008828D01*
X014150Y008828D02*
X015311Y008828D01*
X015311Y008730D02*
X014150Y008730D01*
X014150Y008631D02*
X015311Y008631D01*
X015311Y008533D02*
X014150Y008533D01*
X014150Y008434D02*
X015311Y008434D01*
X015381Y008336D02*
X014150Y008336D01*
X014150Y008237D02*
X016570Y008237D01*
X016570Y008139D02*
X014185Y008139D01*
X014284Y008040D02*
X016570Y008040D01*
X016570Y007942D02*
X014382Y007942D01*
X014481Y007843D02*
X016570Y007843D01*
X016570Y007745D02*
X014579Y007745D01*
X014678Y007646D02*
X016570Y007646D01*
X016570Y007548D02*
X014776Y007548D01*
X014875Y007449D02*
X016570Y007449D01*
X016570Y007351D02*
X014973Y007351D01*
X015072Y007252D02*
X016570Y007252D01*
X016570Y007154D02*
X015170Y007154D01*
X015269Y007055D02*
X016570Y007055D01*
X016570Y006957D02*
X015367Y006957D01*
X015466Y006858D02*
X016570Y006858D01*
X016570Y006760D02*
X015564Y006760D01*
X015663Y006661D02*
X016570Y006661D01*
X016570Y006563D02*
X015761Y006563D01*
X015860Y006464D02*
X016570Y006464D01*
X016570Y006366D02*
X015958Y006366D01*
X016057Y006267D02*
X016570Y006267D01*
X016570Y006169D02*
X016155Y006169D01*
X016254Y006070D02*
X016570Y006070D01*
X016570Y005972D02*
X016352Y005972D01*
X016431Y005873D02*
X016570Y005873D01*
X018650Y007646D02*
X018672Y007646D01*
X018650Y007745D02*
X018734Y007745D01*
X018650Y007843D02*
X018843Y007843D01*
X018778Y008139D02*
X018650Y008139D01*
X018650Y008237D02*
X018711Y008237D01*
X018711Y008336D02*
X018650Y008336D01*
X018650Y008434D02*
X018711Y008434D01*
X018711Y008533D02*
X018650Y008533D01*
X018650Y008631D02*
X018711Y008631D01*
X018738Y008730D02*
X018650Y008730D01*
X018650Y008828D02*
X019090Y008828D01*
X019090Y008927D02*
X018650Y008927D01*
X018650Y009025D02*
X019090Y009025D01*
X019090Y009124D02*
X018650Y009124D01*
X018650Y009222D02*
X019090Y009222D01*
X019090Y009321D02*
X018650Y009321D01*
X018650Y009419D02*
X019090Y009419D01*
X019090Y009518D02*
X018650Y009518D01*
X018650Y009616D02*
X019090Y009616D01*
X019090Y009715D02*
X018650Y009715D01*
X018650Y009813D02*
X019090Y009813D01*
X019090Y009912D02*
X018650Y009912D01*
X018650Y010010D02*
X019090Y010010D01*
X019090Y010109D02*
X018650Y010109D01*
X018650Y010207D02*
X019090Y010207D01*
X019090Y010306D02*
X018650Y010306D01*
X018650Y010404D02*
X019090Y010404D01*
X019090Y010503D02*
X018650Y010503D01*
X018650Y010601D02*
X019090Y010601D01*
X019090Y010700D02*
X018650Y010700D01*
X018650Y010798D02*
X019090Y010798D01*
X019090Y010897D02*
X018650Y010897D01*
X018650Y010995D02*
X019090Y010995D01*
X019090Y011094D02*
X018650Y011094D01*
X018650Y011192D02*
X019090Y011192D01*
X019090Y011291D02*
X018650Y011291D01*
X018650Y011389D02*
X019090Y011389D01*
X019090Y011488D02*
X018650Y011488D01*
X018650Y011586D02*
X019090Y011586D01*
X019090Y011685D02*
X018650Y011685D01*
X018650Y011783D02*
X019090Y011783D01*
X019090Y011882D02*
X018650Y011882D01*
X018650Y011980D02*
X019090Y011980D01*
X019090Y012079D02*
X018650Y012079D01*
X018650Y012177D02*
X019090Y012177D01*
X019109Y012276D02*
X018650Y012276D01*
X018650Y012374D02*
X019155Y012374D01*
X019256Y012473D02*
X018650Y012473D01*
X018650Y012571D02*
X019356Y012571D01*
X019911Y012079D02*
X020007Y012079D01*
X020007Y011980D02*
X019830Y011980D01*
X019830Y011882D02*
X020006Y011882D01*
X020005Y011783D02*
X019830Y011783D01*
X019830Y011685D02*
X020004Y011685D01*
X020003Y011586D02*
X019830Y011586D01*
X019830Y011488D02*
X020003Y011488D01*
X020002Y011389D02*
X019830Y011389D01*
X019830Y011291D02*
X020001Y011291D01*
X020000Y011192D02*
X019830Y011192D01*
X019830Y011094D02*
X020000Y011094D01*
X021297Y012374D02*
X027822Y012374D01*
X027852Y012404D02*
X027560Y012111D01*
X027560Y011697D01*
X027852Y011404D01*
X028267Y011404D01*
X028560Y011697D01*
X028560Y012111D01*
X028267Y012404D01*
X027852Y012404D01*
X027724Y012276D02*
X021395Y012276D01*
X024560Y012177D02*
X027625Y012177D01*
X027560Y012079D02*
X024658Y012079D01*
X024757Y011980D02*
X027560Y011980D01*
X027560Y011882D02*
X024855Y011882D01*
X024954Y011783D02*
X027560Y011783D01*
X027572Y011685D02*
X025052Y011685D01*
X025151Y011586D02*
X027670Y011586D01*
X027769Y011488D02*
X025249Y011488D01*
X025348Y011389D02*
X035190Y011389D01*
X035190Y011291D02*
X025446Y011291D01*
X025545Y011192D02*
X035190Y011192D01*
X035190Y011094D02*
X025643Y011094D01*
X025742Y010995D02*
X035190Y010995D01*
X035190Y010897D02*
X025840Y010897D01*
X025939Y010798D02*
X035190Y010798D01*
X035190Y010700D02*
X026037Y010700D01*
X026136Y010601D02*
X030998Y010601D01*
X031081Y010684D02*
X030830Y010432D01*
X030830Y010076D01*
X031081Y009824D01*
X031438Y009824D01*
X031690Y010076D01*
X031690Y010432D01*
X031438Y010684D01*
X031081Y010684D01*
X030900Y010503D02*
X026234Y010503D01*
X026333Y010404D02*
X030830Y010404D01*
X030830Y010306D02*
X029078Y010306D01*
X029230Y010207D02*
X030830Y010207D01*
X030830Y010109D02*
X029328Y010109D01*
X029427Y010010D02*
X030895Y010010D01*
X030994Y009912D02*
X029525Y009912D01*
X029624Y009813D02*
X033260Y009813D01*
X033260Y009743D02*
X033260Y009982D01*
X033351Y010203D01*
X033520Y010371D01*
X033740Y010463D01*
X033979Y010463D01*
X034199Y010371D01*
X034368Y010203D01*
X034460Y009982D01*
X034460Y009743D01*
X034368Y009523D01*
X034199Y009354D01*
X033979Y009263D01*
X033740Y009263D01*
X033520Y009354D01*
X033351Y009523D01*
X033260Y009743D01*
X033271Y009715D02*
X029722Y009715D01*
X029821Y009616D02*
X033312Y009616D01*
X033356Y009518D02*
X029919Y009518D01*
X030018Y009419D02*
X033455Y009419D01*
X033600Y009321D02*
X030116Y009321D01*
X030215Y009222D02*
X035190Y009222D01*
X035190Y009124D02*
X030313Y009124D01*
X030412Y009025D02*
X033596Y009025D01*
X033453Y008927D02*
X030510Y008927D01*
X030609Y008828D02*
X031352Y008828D01*
X031212Y008730D02*
X030707Y008730D01*
X030806Y008631D02*
X031028Y008631D01*
X031654Y008040D02*
X033456Y008040D01*
X033603Y007942D02*
X031555Y007942D01*
X030449Y007942D02*
X020475Y007942D01*
X020475Y008040D02*
X030350Y008040D01*
X030252Y008139D02*
X020476Y008139D01*
X020477Y008237D02*
X030153Y008237D01*
X030055Y008336D02*
X020478Y008336D01*
X016570Y008336D02*
X015938Y008336D01*
X016008Y008434D02*
X016570Y008434D01*
X016570Y008533D02*
X016008Y008533D01*
X016008Y008631D02*
X016570Y008631D01*
X016570Y008730D02*
X016008Y008730D01*
X016008Y008828D02*
X016570Y008828D01*
X016570Y008927D02*
X015984Y008927D01*
X015890Y009025D02*
X016570Y009025D01*
X016570Y009124D02*
X015890Y009124D01*
X015890Y009222D02*
X016570Y009222D01*
X016570Y009321D02*
X015890Y009321D01*
X015890Y009419D02*
X016570Y009419D01*
X016570Y009518D02*
X015890Y009518D01*
X015890Y009616D02*
X016570Y009616D01*
X016570Y009715D02*
X015890Y009715D01*
X015890Y009813D02*
X016570Y009813D01*
X016570Y009912D02*
X015890Y009912D01*
X015890Y010010D02*
X016570Y010010D01*
X016570Y010109D02*
X015890Y010109D01*
X015890Y010207D02*
X016570Y010207D01*
X016570Y010306D02*
X015890Y010306D01*
X015890Y010404D02*
X016570Y010404D01*
X016570Y010503D02*
X015890Y010503D01*
X015890Y010601D02*
X016570Y010601D01*
X016570Y010700D02*
X015890Y010700D01*
X015890Y010798D02*
X016570Y010798D01*
X016570Y010897D02*
X015890Y010897D01*
X015890Y010995D02*
X016570Y010995D01*
X016570Y011094D02*
X015890Y011094D01*
X015890Y011192D02*
X016570Y011192D01*
X016570Y011291D02*
X015890Y011291D01*
X015890Y011389D02*
X016570Y011389D01*
X016570Y011488D02*
X015890Y011488D01*
X015890Y011586D02*
X016570Y011586D01*
X016570Y011685D02*
X015890Y011685D01*
X015890Y011783D02*
X016570Y011783D01*
X016570Y011882D02*
X015890Y011882D01*
X015982Y011980D02*
X016570Y011980D01*
X016570Y012079D02*
X016008Y012079D01*
X016008Y012177D02*
X016570Y012177D01*
X015430Y011882D02*
X014150Y011882D01*
X014150Y011980D02*
X015337Y011980D01*
X015311Y012079D02*
X014150Y012079D01*
X014150Y012177D02*
X015311Y012177D01*
X015311Y012276D02*
X014150Y012276D01*
X014150Y012374D02*
X015311Y012374D01*
X015311Y012473D02*
X014150Y012473D01*
X014150Y012571D02*
X015380Y012571D01*
X015430Y011783D02*
X014150Y011783D01*
X014150Y011685D02*
X015430Y011685D01*
X015430Y011586D02*
X014150Y011586D01*
X014150Y011488D02*
X015430Y011488D01*
X015430Y011389D02*
X014150Y011389D01*
X014150Y011291D02*
X015430Y011291D01*
X015430Y011192D02*
X014150Y011192D01*
X014150Y011094D02*
X015430Y011094D01*
X015430Y010995D02*
X014150Y010995D01*
X014150Y010897D02*
X015430Y010897D01*
X015430Y010798D02*
X014150Y010798D01*
X014150Y010700D02*
X015430Y010700D01*
X015430Y010601D02*
X014150Y010601D01*
X014150Y010503D02*
X015430Y010503D01*
X015430Y010404D02*
X014150Y010404D01*
X014150Y010306D02*
X015430Y010306D01*
X015430Y010207D02*
X014150Y010207D01*
X014150Y010109D02*
X015430Y010109D01*
X015430Y010010D02*
X014150Y010010D01*
X014150Y009912D02*
X015430Y009912D01*
X015430Y009813D02*
X014150Y009813D01*
X014150Y009715D02*
X015430Y009715D01*
X015430Y009616D02*
X014150Y009616D01*
X014150Y009518D02*
X015430Y009518D01*
X015430Y009419D02*
X014150Y009419D01*
X014150Y009321D02*
X015430Y009321D01*
X015430Y009222D02*
X014150Y009222D01*
X014150Y009124D02*
X015430Y009124D01*
X015430Y009025D02*
X014150Y009025D01*
X014150Y008927D02*
X015335Y008927D01*
X012070Y006661D02*
X011602Y006661D01*
X011648Y006563D02*
X012070Y006563D01*
X012070Y006464D02*
X011708Y006464D01*
X011708Y006366D02*
X012070Y006366D01*
X012070Y006267D02*
X011708Y006267D01*
X011708Y006169D02*
X012070Y006169D01*
X012070Y006070D02*
X011708Y006070D01*
X011674Y005972D02*
X012070Y005972D01*
X011805Y003608D02*
X009800Y003608D01*
X009962Y003509D02*
X011643Y003509D01*
X011545Y003411D02*
X010060Y003411D01*
X010111Y003312D02*
X011494Y003312D01*
X011453Y003214D02*
X010152Y003214D01*
X010168Y003115D02*
X011437Y003115D01*
X011437Y003017D02*
X010168Y003017D01*
X010161Y002918D02*
X011444Y002918D01*
X011484Y002820D02*
X010120Y002820D01*
X010080Y002721D02*
X011525Y002721D01*
X011620Y002623D02*
X009985Y002623D01*
X009857Y002524D02*
X011748Y002524D01*
X009305Y008730D02*
X008986Y008730D01*
X009084Y008828D02*
X009234Y008828D01*
X009193Y008927D02*
X009120Y008927D01*
X008690Y009124D02*
X008630Y009124D01*
X008630Y009222D02*
X008690Y009222D01*
X008690Y009321D02*
X008630Y009321D01*
X008630Y009419D02*
X008690Y009419D01*
X008374Y009419D02*
X007530Y009419D01*
X007530Y009321D02*
X008275Y009321D01*
X008200Y009222D02*
X007530Y009222D01*
X007530Y009124D02*
X008200Y009124D01*
X008200Y008927D02*
X007530Y008927D01*
X007530Y009025D02*
X008630Y009025D01*
X008333Y008730D02*
X007530Y008730D01*
X007530Y008828D02*
X008235Y008828D01*
X008432Y008631D02*
X007530Y008631D01*
X007530Y016019D02*
X011890Y016019D01*
X011742Y016117D02*
X007530Y016117D01*
X015450Y021732D02*
X015675Y021732D01*
X015576Y021830D02*
X015450Y021830D01*
X015450Y021929D02*
X015560Y021929D01*
X015560Y022027D02*
X015450Y022027D01*
X015450Y022126D02*
X015560Y022126D01*
X015560Y022224D02*
X015450Y022224D01*
X015450Y022323D02*
X015621Y022323D01*
X015719Y022421D02*
X015450Y022421D01*
X015450Y022520D02*
X015818Y022520D01*
X016301Y022520D02*
X016846Y022520D01*
X016748Y022421D02*
X016400Y022421D01*
X016498Y022323D02*
X016649Y022323D01*
X016580Y022224D02*
X016560Y022224D01*
X016560Y022126D02*
X016580Y022126D01*
X016560Y022027D02*
X017030Y022027D01*
X017030Y022126D02*
X017090Y022126D01*
X017090Y022224D02*
X017030Y022224D01*
X017030Y022323D02*
X017090Y022323D01*
X017090Y022421D02*
X017030Y022421D01*
X017030Y022520D02*
X017090Y022520D01*
X016580Y021929D02*
X016560Y021929D01*
X016543Y021830D02*
X016605Y021830D01*
X016703Y021732D02*
X016444Y021732D01*
X016346Y021633D02*
X016802Y021633D01*
X018650Y021633D02*
X032560Y021633D01*
X032658Y021732D02*
X019888Y021732D01*
X019850Y021694D02*
X020120Y021964D01*
X020120Y022124D01*
X019690Y022124D01*
X019690Y022184D01*
X020120Y022184D01*
X020120Y022345D01*
X019850Y022614D01*
X019690Y022614D01*
X019690Y022184D01*
X019630Y022184D01*
X019630Y022614D01*
X019469Y022614D01*
X019200Y022345D01*
X019200Y022184D01*
X019630Y022184D01*
X019630Y022124D01*
X019690Y022124D01*
X019690Y021694D01*
X019850Y021694D01*
X019690Y021732D02*
X019630Y021732D01*
X019630Y021694D02*
X019630Y022124D01*
X019200Y022124D01*
X019200Y021964D01*
X019469Y021694D01*
X019630Y021694D01*
X019630Y021830D02*
X019690Y021830D01*
X019690Y021929D02*
X019630Y021929D01*
X019630Y022027D02*
X019690Y022027D01*
X019690Y022126D02*
X034190Y022126D01*
X034190Y022224D02*
X020120Y022224D01*
X020120Y022323D02*
X034190Y022323D01*
X034190Y022421D02*
X020043Y022421D01*
X019944Y022520D02*
X034190Y022520D01*
X034190Y022618D02*
X018793Y022618D01*
X018973Y022520D02*
X019375Y022520D01*
X019276Y022421D02*
X019068Y022421D01*
X019109Y022323D02*
X019200Y022323D01*
X019200Y022224D02*
X019140Y022224D01*
X019140Y022126D02*
X019630Y022126D01*
X019630Y022224D02*
X019690Y022224D01*
X019690Y022323D02*
X019630Y022323D01*
X019630Y022421D02*
X019690Y022421D01*
X019690Y022520D02*
X019630Y022520D01*
X019200Y022027D02*
X019126Y022027D01*
X019086Y021929D02*
X019234Y021929D01*
X019333Y021830D02*
X019014Y021830D01*
X018894Y021732D02*
X019431Y021732D01*
X019986Y021830D02*
X034190Y021830D01*
X034190Y021732D02*
X033061Y021732D01*
X033058Y021734D02*
X032890Y021734D01*
X032890Y021284D01*
X033340Y021284D01*
X033340Y021453D01*
X033058Y021734D01*
X033159Y021633D02*
X034190Y021633D01*
X034190Y021535D02*
X033258Y021535D01*
X033340Y021436D02*
X034190Y021436D01*
X034190Y021338D02*
X033340Y021338D01*
X033340Y021224D02*
X032890Y021224D01*
X032890Y021284D01*
X032830Y021284D01*
X032830Y021734D01*
X032661Y021734D01*
X032380Y021453D01*
X032380Y021284D01*
X032830Y021284D01*
X032830Y021224D01*
X032890Y021224D01*
X032890Y020774D01*
X033058Y020774D01*
X033340Y021055D01*
X033340Y021224D01*
X033340Y021141D02*
X034190Y021141D01*
X034190Y021239D02*
X032890Y021239D01*
X032830Y021239D02*
X018650Y021239D01*
X018650Y021141D02*
X032380Y021141D01*
X032380Y021224D02*
X032380Y021055D01*
X032661Y020774D01*
X032830Y020774D01*
X032830Y021224D01*
X032380Y021224D01*
X032380Y021338D02*
X018650Y021338D01*
X018650Y021436D02*
X032380Y021436D01*
X032461Y021535D02*
X018650Y021535D01*
X018650Y021042D02*
X032393Y021042D01*
X032491Y020944D02*
X018650Y020944D01*
X018650Y020845D02*
X032590Y020845D01*
X032645Y020747D02*
X018650Y020747D01*
X018650Y020648D02*
X032546Y020648D01*
X032448Y020550D02*
X018650Y020550D01*
X020085Y021929D02*
X034190Y021929D01*
X034190Y022027D02*
X020120Y022027D01*
X019967Y023954D02*
X019552Y023954D01*
X019260Y024247D01*
X019260Y024661D01*
X019552Y024954D01*
X019967Y024954D01*
X020260Y024661D01*
X020260Y024247D01*
X020552Y023954D01*
X020967Y023954D01*
X021260Y024247D01*
X021552Y023954D01*
X021967Y023954D01*
X022260Y024247D01*
X022552Y023954D01*
X022967Y023954D01*
X023260Y024247D01*
X023552Y023954D01*
X023967Y023954D01*
X024260Y024247D01*
X024552Y023954D01*
X024967Y023954D01*
X025260Y024247D01*
X025260Y024661D01*
X024967Y024954D01*
X024552Y024954D01*
X024260Y024661D01*
X024260Y024247D01*
X024260Y024661D01*
X023967Y024954D01*
X023552Y024954D01*
X023260Y024661D01*
X023260Y024247D01*
X023260Y024661D01*
X022967Y024954D01*
X022552Y024954D01*
X022260Y024661D01*
X022260Y024247D01*
X022260Y024661D01*
X021967Y024954D01*
X021552Y024954D01*
X021260Y024661D01*
X021260Y024247D01*
X021260Y024661D01*
X020967Y024954D01*
X020552Y024954D01*
X020260Y024661D01*
X020260Y024247D01*
X019967Y023954D01*
X020010Y023997D02*
X020509Y023997D01*
X020411Y024096D02*
X020108Y024096D01*
X020207Y024194D02*
X020312Y024194D01*
X020260Y024293D02*
X020260Y024293D01*
X020260Y024391D02*
X020260Y024391D01*
X020260Y024490D02*
X020260Y024490D01*
X020260Y024588D02*
X020260Y024588D01*
X020234Y024687D02*
X020285Y024687D01*
X020383Y024785D02*
X020136Y024785D01*
X020037Y024884D02*
X020482Y024884D01*
X021037Y024884D02*
X021482Y024884D01*
X021383Y024785D02*
X021136Y024785D01*
X021234Y024687D02*
X021285Y024687D01*
X021260Y024588D02*
X021260Y024588D01*
X021260Y024490D02*
X021260Y024490D01*
X021260Y024391D02*
X021260Y024391D01*
X021260Y024293D02*
X021260Y024293D01*
X021312Y024194D02*
X021207Y024194D01*
X021108Y024096D02*
X021411Y024096D01*
X021509Y023997D02*
X021010Y023997D01*
X022010Y023997D02*
X022509Y023997D01*
X022411Y024096D02*
X022108Y024096D01*
X022207Y024194D02*
X022312Y024194D01*
X022260Y024293D02*
X022260Y024293D01*
X022260Y024391D02*
X022260Y024391D01*
X022260Y024490D02*
X022260Y024490D01*
X022260Y024588D02*
X022260Y024588D01*
X022234Y024687D02*
X022285Y024687D01*
X022383Y024785D02*
X022136Y024785D01*
X022037Y024884D02*
X022482Y024884D01*
X023037Y024884D02*
X023482Y024884D01*
X023383Y024785D02*
X023136Y024785D01*
X023234Y024687D02*
X023285Y024687D01*
X023260Y024588D02*
X023260Y024588D01*
X023260Y024490D02*
X023260Y024490D01*
X023260Y024391D02*
X023260Y024391D01*
X023260Y024293D02*
X023260Y024293D01*
X023312Y024194D02*
X023207Y024194D01*
X023108Y024096D02*
X023411Y024096D01*
X023509Y023997D02*
X023010Y023997D01*
X024010Y023997D02*
X024509Y023997D01*
X024411Y024096D02*
X024108Y024096D01*
X024207Y024194D02*
X024312Y024194D01*
X024260Y024293D02*
X024260Y024293D01*
X024260Y024391D02*
X024260Y024391D01*
X024260Y024490D02*
X024260Y024490D01*
X024260Y024588D02*
X024260Y024588D01*
X024234Y024687D02*
X024285Y024687D01*
X024383Y024785D02*
X024136Y024785D01*
X024037Y024884D02*
X024482Y024884D01*
X025037Y024884D02*
X026082Y024884D01*
X026152Y024954D02*
X025860Y024661D01*
X025860Y024247D01*
X026152Y023954D01*
X026567Y023954D01*
X026860Y024247D01*
X027152Y023954D01*
X027567Y023954D01*
X027860Y024247D01*
X028152Y023954D01*
X028567Y023954D01*
X028860Y024247D01*
X029152Y023954D01*
X029567Y023954D01*
X029860Y024247D01*
X030152Y023954D01*
X030567Y023954D01*
X030860Y024247D01*
X031152Y023954D01*
X031567Y023954D01*
X031860Y024247D01*
X032152Y023954D01*
X032567Y023954D01*
X032860Y024247D01*
X032860Y024661D01*
X032567Y024954D01*
X032152Y024954D01*
X031860Y024661D01*
X031860Y024247D01*
X031860Y024661D01*
X031567Y024954D01*
X031152Y024954D01*
X030860Y024661D01*
X030860Y024247D01*
X030860Y024661D01*
X030567Y024954D01*
X030152Y024954D01*
X029860Y024661D01*
X029860Y024247D01*
X029860Y024661D01*
X029567Y024954D01*
X029152Y024954D01*
X028860Y024661D01*
X028860Y024247D01*
X028860Y024661D01*
X028567Y024954D01*
X028152Y024954D01*
X027860Y024661D01*
X027860Y024247D01*
X027860Y024661D01*
X027567Y024954D01*
X027152Y024954D01*
X026860Y024661D01*
X026860Y024247D01*
X026860Y024661D01*
X026567Y024954D01*
X026152Y024954D01*
X025983Y024785D02*
X025136Y024785D01*
X025234Y024687D02*
X025885Y024687D01*
X025860Y024588D02*
X025260Y024588D01*
X025260Y024490D02*
X025860Y024490D01*
X025860Y024391D02*
X025260Y024391D01*
X025260Y024293D02*
X025860Y024293D01*
X025912Y024194D02*
X025207Y024194D01*
X025108Y024096D02*
X026011Y024096D01*
X026109Y023997D02*
X025010Y023997D01*
X026610Y023997D02*
X027109Y023997D01*
X027011Y024096D02*
X026708Y024096D01*
X026807Y024194D02*
X026912Y024194D01*
X026860Y024293D02*
X026860Y024293D01*
X026860Y024391D02*
X026860Y024391D01*
X026860Y024490D02*
X026860Y024490D01*
X026860Y024588D02*
X026860Y024588D01*
X026834Y024687D02*
X026885Y024687D01*
X026983Y024785D02*
X026736Y024785D01*
X026637Y024884D02*
X027082Y024884D01*
X027637Y024884D02*
X028082Y024884D01*
X027983Y024785D02*
X027736Y024785D01*
X027834Y024687D02*
X027885Y024687D01*
X027860Y024588D02*
X027860Y024588D01*
X027860Y024490D02*
X027860Y024490D01*
X027860Y024391D02*
X027860Y024391D01*
X027860Y024293D02*
X027860Y024293D01*
X027912Y024194D02*
X027807Y024194D01*
X027708Y024096D02*
X028011Y024096D01*
X028109Y023997D02*
X027610Y023997D01*
X028610Y023997D02*
X029109Y023997D01*
X029011Y024096D02*
X028708Y024096D01*
X028807Y024194D02*
X028912Y024194D01*
X028860Y024293D02*
X028860Y024293D01*
X028860Y024391D02*
X028860Y024391D01*
X028860Y024490D02*
X028860Y024490D01*
X028860Y024588D02*
X028860Y024588D01*
X028834Y024687D02*
X028885Y024687D01*
X028983Y024785D02*
X028736Y024785D01*
X028637Y024884D02*
X029082Y024884D01*
X029637Y024884D02*
X030082Y024884D01*
X029983Y024785D02*
X029736Y024785D01*
X029834Y024687D02*
X029885Y024687D01*
X029860Y024588D02*
X029860Y024588D01*
X029860Y024490D02*
X029860Y024490D01*
X029860Y024391D02*
X029860Y024391D01*
X029860Y024293D02*
X029860Y024293D01*
X029912Y024194D02*
X029807Y024194D01*
X029708Y024096D02*
X030011Y024096D01*
X030109Y023997D02*
X029610Y023997D01*
X030610Y023997D02*
X031109Y023997D01*
X031011Y024096D02*
X030708Y024096D01*
X030807Y024194D02*
X030912Y024194D01*
X030860Y024293D02*
X030860Y024293D01*
X030860Y024391D02*
X030860Y024391D01*
X030860Y024490D02*
X030860Y024490D01*
X030860Y024588D02*
X030860Y024588D01*
X030834Y024687D02*
X030885Y024687D01*
X030983Y024785D02*
X030736Y024785D01*
X030637Y024884D02*
X031082Y024884D01*
X031637Y024884D02*
X032082Y024884D01*
X031983Y024785D02*
X031736Y024785D01*
X031834Y024687D02*
X031885Y024687D01*
X031860Y024588D02*
X031860Y024588D01*
X031860Y024490D02*
X031860Y024490D01*
X031860Y024391D02*
X031860Y024391D01*
X031860Y024293D02*
X031860Y024293D01*
X031912Y024194D02*
X031807Y024194D01*
X031708Y024096D02*
X032011Y024096D01*
X032109Y023997D02*
X031610Y023997D01*
X032610Y023997D02*
X033109Y023997D01*
X033011Y024096D02*
X032708Y024096D01*
X032807Y024194D02*
X032912Y024194D01*
X032860Y024293D02*
X032860Y024293D01*
X032860Y024391D02*
X032860Y024391D01*
X032860Y024490D02*
X032860Y024490D01*
X032860Y024588D02*
X032860Y024588D01*
X032834Y024687D02*
X032885Y024687D01*
X032983Y024785D02*
X032736Y024785D01*
X032637Y024884D02*
X033082Y024884D01*
X033597Y025376D02*
X019992Y025376D01*
X020090Y025475D02*
X033560Y025475D01*
X033560Y025573D02*
X020189Y025573D01*
X020287Y025672D02*
X033560Y025672D01*
X033560Y025770D02*
X020386Y025770D01*
X020484Y025869D02*
X033560Y025869D01*
X033560Y025967D02*
X020583Y025967D01*
X020681Y026066D02*
X033560Y026066D01*
X033560Y026164D02*
X020781Y026164D01*
X020869Y026263D02*
X033560Y026263D01*
X033560Y026361D02*
X020956Y026361D01*
X021043Y026460D02*
X021050Y026460D01*
X021315Y026460D02*
X022904Y026460D01*
X022917Y026454D02*
X023156Y026454D01*
X023377Y026545D01*
X023545Y026714D01*
X023637Y026935D01*
X023637Y027173D01*
X023545Y027394D01*
X023377Y027563D01*
X023156Y027654D01*
X022917Y027654D01*
X022697Y027563D01*
X022528Y027394D01*
X022437Y027173D01*
X022437Y026935D01*
X022528Y026714D01*
X022697Y026545D01*
X022917Y026454D01*
X023169Y026460D02*
X024282Y026460D01*
X024062Y026558D02*
X023389Y026558D01*
X023488Y026657D02*
X023964Y026657D01*
X023889Y026755D02*
X023562Y026755D01*
X023603Y026854D02*
X023848Y026854D01*
X023815Y026952D02*
X023637Y026952D01*
X023637Y027051D02*
X023815Y027051D01*
X023815Y027149D02*
X023637Y027149D01*
X023606Y027248D02*
X023811Y027248D01*
X023712Y027346D02*
X023565Y027346D01*
X023614Y027445D02*
X023495Y027445D01*
X023515Y027543D02*
X023396Y027543D01*
X023417Y027642D02*
X023186Y027642D01*
X023318Y027740D02*
X020956Y027740D01*
X021033Y027642D02*
X020857Y027642D01*
X020823Y027543D02*
X020759Y027543D01*
X020724Y027445D02*
X020660Y027445D01*
X020654Y027346D02*
X020562Y027346D01*
X020613Y027248D02*
X020453Y027248D01*
X020404Y027149D02*
X020582Y027149D01*
X020582Y027051D02*
X020404Y027051D01*
X020404Y026952D02*
X020582Y026952D01*
X020616Y026854D02*
X020371Y026854D01*
X020330Y026755D02*
X020530Y026755D01*
X020443Y026657D02*
X020255Y026657D01*
X020157Y026558D02*
X020353Y026558D01*
X020255Y026460D02*
X019937Y026460D01*
X020058Y026263D02*
X019378Y026263D01*
X019477Y026361D02*
X020156Y026361D01*
X019959Y026164D02*
X019280Y026164D01*
X019181Y026066D02*
X019861Y026066D01*
X019762Y025967D02*
X019083Y025967D01*
X018984Y025869D02*
X019664Y025869D01*
X019672Y026460D02*
X019575Y026460D01*
X019850Y025278D02*
X033696Y025278D01*
X033794Y025179D02*
X017695Y025179D01*
X017596Y025081D02*
X033893Y025081D01*
X033560Y026460D02*
X032815Y026460D01*
X032802Y026454D02*
X033022Y026545D01*
X033191Y026714D01*
X033282Y026935D01*
X033282Y027173D01*
X033191Y027394D01*
X033022Y027563D01*
X032802Y027654D01*
X032563Y027654D01*
X032342Y027563D01*
X032174Y027394D01*
X032082Y027173D01*
X032082Y026935D01*
X032174Y026714D01*
X032342Y026545D01*
X032563Y026454D01*
X032802Y026454D01*
X032550Y026460D02*
X031437Y026460D01*
X031424Y026454D02*
X031644Y026545D01*
X031813Y026714D01*
X031904Y026935D01*
X031904Y027173D01*
X031813Y027394D01*
X031644Y027563D01*
X031424Y027654D01*
X031185Y027654D01*
X030965Y027563D01*
X030796Y027394D01*
X030704Y027173D01*
X030704Y026935D01*
X030796Y026714D01*
X030965Y026545D01*
X031185Y026454D01*
X031424Y026454D01*
X031172Y026460D02*
X030059Y026460D01*
X030279Y026558D02*
X030952Y026558D01*
X030853Y026657D02*
X030378Y026657D01*
X030452Y026755D02*
X030779Y026755D01*
X030738Y026854D02*
X030493Y026854D01*
X030526Y026952D02*
X030704Y026952D01*
X030704Y027051D02*
X030526Y027051D01*
X030526Y027149D02*
X030704Y027149D01*
X030735Y027248D02*
X030496Y027248D01*
X030455Y027346D02*
X030776Y027346D01*
X030846Y027445D02*
X030384Y027445D01*
X030286Y027543D02*
X030945Y027543D01*
X031155Y027642D02*
X030076Y027642D01*
X029777Y027642D02*
X029749Y027642D01*
X029650Y027740D02*
X033560Y027740D01*
X033560Y027642D02*
X032832Y027642D01*
X033042Y027543D02*
X033560Y027543D01*
X033560Y027445D02*
X033140Y027445D01*
X033211Y027346D02*
X033560Y027346D01*
X033560Y027248D02*
X033252Y027248D01*
X033282Y027149D02*
X033560Y027149D01*
X033560Y027051D02*
X033282Y027051D01*
X033282Y026952D02*
X033560Y026952D01*
X033560Y026854D02*
X033249Y026854D01*
X033208Y026755D02*
X033560Y026755D01*
X033560Y026657D02*
X033133Y026657D01*
X033035Y026558D02*
X033560Y026558D01*
X032330Y026558D02*
X031657Y026558D01*
X031755Y026657D02*
X032231Y026657D01*
X032157Y026755D02*
X031830Y026755D01*
X031871Y026854D02*
X032116Y026854D01*
X032082Y026952D02*
X031904Y026952D01*
X031904Y027051D02*
X032082Y027051D01*
X032082Y027149D02*
X031904Y027149D01*
X031874Y027248D02*
X032113Y027248D01*
X032154Y027346D02*
X031833Y027346D01*
X031762Y027445D02*
X032224Y027445D01*
X032323Y027543D02*
X031664Y027543D01*
X031454Y027642D02*
X032533Y027642D01*
X033560Y027839D02*
X029552Y027839D01*
X029453Y027937D02*
X033560Y027937D01*
X033560Y028036D02*
X029355Y028036D01*
X029256Y028134D02*
X033560Y028134D01*
X033560Y028233D02*
X029158Y028233D01*
X029059Y028331D02*
X033560Y028331D01*
X033560Y028430D02*
X028961Y028430D01*
X028862Y028528D02*
X033560Y028528D01*
X033560Y028627D02*
X028764Y028627D01*
X028665Y028725D02*
X033560Y028725D01*
X033560Y028824D02*
X028567Y028824D01*
X028468Y028922D02*
X033560Y028922D01*
X033560Y029021D02*
X028370Y029021D01*
X028271Y029119D02*
X033560Y029119D01*
X033560Y029218D02*
X028173Y029218D01*
X028052Y029316D02*
X033560Y029316D01*
X029794Y026460D02*
X028681Y026460D01*
X028668Y026454D02*
X028888Y026545D01*
X029057Y026714D01*
X029148Y026935D01*
X029148Y027173D01*
X029057Y027394D01*
X028888Y027563D01*
X028668Y027654D01*
X028429Y027654D01*
X028209Y027563D01*
X028040Y027394D01*
X027948Y027173D01*
X027948Y026935D01*
X028040Y026714D01*
X028209Y026545D01*
X028429Y026454D01*
X028668Y026454D01*
X028416Y026460D02*
X027303Y026460D01*
X027290Y026454D02*
X027510Y026545D01*
X027679Y026714D01*
X027771Y026935D01*
X027771Y027173D01*
X027679Y027394D01*
X027510Y027563D01*
X027290Y027654D01*
X027051Y027654D01*
X026831Y027563D01*
X026662Y027394D01*
X026571Y027173D01*
X026571Y026935D01*
X026662Y026714D01*
X026831Y026545D01*
X027051Y026454D01*
X027290Y026454D01*
X027038Y026460D02*
X025925Y026460D01*
X026145Y026558D02*
X026818Y026558D01*
X026719Y026657D02*
X026244Y026657D01*
X026318Y026755D02*
X026645Y026755D01*
X026604Y026854D02*
X026359Y026854D01*
X026393Y026952D02*
X026571Y026952D01*
X026571Y027051D02*
X026393Y027051D01*
X026393Y027149D02*
X026571Y027149D01*
X026601Y027248D02*
X026362Y027248D01*
X026321Y027346D02*
X026642Y027346D01*
X026713Y027445D02*
X026251Y027445D01*
X026152Y027543D02*
X026811Y027543D01*
X027021Y027642D02*
X025942Y027642D01*
X025643Y027642D02*
X025615Y027642D01*
X025517Y027740D02*
X028830Y027740D01*
X028732Y027839D02*
X025418Y027839D01*
X025320Y027937D02*
X028633Y027937D01*
X028535Y028036D02*
X025221Y028036D01*
X025123Y028134D02*
X028436Y028134D01*
X028338Y028233D02*
X025024Y028233D01*
X024926Y028331D02*
X028239Y028331D01*
X028141Y028430D02*
X024827Y028430D01*
X024729Y028528D02*
X028042Y028528D01*
X027944Y028627D02*
X024630Y028627D01*
X024532Y028725D02*
X027845Y028725D01*
X027320Y027642D02*
X028399Y027642D01*
X028189Y027543D02*
X027530Y027543D01*
X027628Y027445D02*
X028091Y027445D01*
X028020Y027346D02*
X027699Y027346D01*
X027740Y027248D02*
X027979Y027248D01*
X027948Y027149D02*
X027771Y027149D01*
X027771Y027051D02*
X027948Y027051D01*
X027948Y026952D02*
X027771Y026952D01*
X027737Y026854D02*
X027982Y026854D01*
X028023Y026755D02*
X027696Y026755D01*
X027622Y026657D02*
X028097Y026657D01*
X028196Y026558D02*
X027523Y026558D01*
X028901Y026558D02*
X029574Y026558D01*
X029475Y026657D02*
X029000Y026657D01*
X029074Y026755D02*
X029401Y026755D01*
X029360Y026854D02*
X029115Y026854D01*
X029148Y026952D02*
X029326Y026952D01*
X029326Y027051D02*
X029148Y027051D01*
X029148Y027149D02*
X029326Y027149D01*
X029323Y027248D02*
X029118Y027248D01*
X029077Y027346D02*
X029224Y027346D01*
X029126Y027445D02*
X029006Y027445D01*
X029027Y027543D02*
X028908Y027543D01*
X028929Y027642D02*
X028698Y027642D01*
X025660Y026460D02*
X024547Y026460D01*
X024767Y026558D02*
X025440Y026558D01*
X025341Y026657D02*
X024866Y026657D01*
X024940Y026755D02*
X025267Y026755D01*
X025226Y026854D02*
X024981Y026854D01*
X025015Y026952D02*
X025193Y026952D01*
X025193Y027051D02*
X025015Y027051D01*
X025015Y027149D02*
X025193Y027149D01*
X025189Y027248D02*
X024984Y027248D01*
X024943Y027346D02*
X025090Y027346D01*
X024992Y027445D02*
X024873Y027445D01*
X024893Y027543D02*
X024774Y027543D01*
X024795Y027642D02*
X024564Y027642D01*
X024696Y027740D02*
X024139Y027740D01*
X024237Y027642D02*
X024265Y027642D01*
X024040Y027839D02*
X024598Y027839D01*
X024499Y027937D02*
X023942Y027937D01*
X023843Y028036D02*
X024401Y028036D01*
X024302Y028134D02*
X023745Y028134D01*
X023646Y028233D02*
X024204Y028233D01*
X022887Y027642D02*
X021332Y027642D01*
X021542Y027543D02*
X022677Y027543D01*
X022579Y027445D02*
X021640Y027445D01*
X021711Y027346D02*
X022508Y027346D01*
X022467Y027248D02*
X021752Y027248D01*
X021782Y027149D02*
X022437Y027149D01*
X022437Y027051D02*
X021782Y027051D01*
X021782Y026952D02*
X022437Y026952D01*
X022470Y026854D02*
X021749Y026854D01*
X021708Y026755D02*
X022511Y026755D01*
X022586Y026657D02*
X021633Y026657D01*
X021535Y026558D02*
X022684Y026558D01*
X019482Y024884D02*
X019009Y024884D01*
X018958Y024934D02*
X018808Y024934D01*
X018808Y024503D01*
X018711Y024503D01*
X018711Y024934D01*
X018561Y024934D01*
X018280Y024653D01*
X018280Y024502D01*
X018711Y024502D01*
X018711Y024406D01*
X018280Y024406D01*
X018280Y024255D01*
X018561Y023974D01*
X018711Y023974D01*
X018711Y024406D01*
X018808Y024406D01*
X018808Y024502D01*
X019240Y024502D01*
X019240Y024653D01*
X018958Y024934D01*
X018808Y024884D02*
X018711Y024884D01*
X018711Y024785D02*
X018808Y024785D01*
X018808Y024687D02*
X018711Y024687D01*
X018711Y024588D02*
X018808Y024588D01*
X018808Y024490D02*
X019260Y024490D01*
X019240Y024406D02*
X018808Y024406D01*
X018808Y023974D01*
X018958Y023974D01*
X019240Y024255D01*
X019240Y024406D01*
X019240Y024391D02*
X019260Y024391D01*
X019260Y024293D02*
X019240Y024293D01*
X019178Y024194D02*
X019312Y024194D01*
X019411Y024096D02*
X019080Y024096D01*
X018981Y023997D02*
X019509Y023997D01*
X018808Y023997D02*
X018711Y023997D01*
X018711Y024096D02*
X018808Y024096D01*
X018808Y024194D02*
X018711Y024194D01*
X018711Y024293D02*
X018808Y024293D01*
X018808Y024391D02*
X018711Y024391D01*
X018711Y024490D02*
X018260Y024490D01*
X018260Y024588D02*
X018280Y024588D01*
X018313Y024687D02*
X018234Y024687D01*
X018136Y024785D02*
X018412Y024785D01*
X018510Y024884D02*
X018037Y024884D01*
X018260Y024391D02*
X018280Y024391D01*
X018280Y024293D02*
X018260Y024293D01*
X018207Y024194D02*
X018341Y024194D01*
X018439Y024096D02*
X018108Y024096D01*
X018010Y023997D02*
X018538Y023997D01*
X019240Y024588D02*
X019260Y024588D01*
X019285Y024687D02*
X019206Y024687D01*
X019107Y024785D02*
X019383Y024785D01*
X030699Y016708D02*
X033631Y016708D01*
X033467Y016807D02*
X030782Y016807D01*
X033074Y019762D02*
X034712Y019762D01*
X034613Y019860D02*
X033173Y019860D01*
X033271Y019959D02*
X034515Y019959D01*
X034416Y020057D02*
X033360Y020057D01*
X033360Y020156D02*
X034318Y020156D01*
X034219Y020254D02*
X033360Y020254D01*
X033360Y020353D02*
X034190Y020353D01*
X034190Y020451D02*
X033360Y020451D01*
X033271Y020550D02*
X034190Y020550D01*
X034190Y020648D02*
X033173Y020648D01*
X033074Y020747D02*
X034190Y020747D01*
X034190Y020845D02*
X033129Y020845D01*
X033228Y020944D02*
X034190Y020944D01*
X034190Y021042D02*
X033326Y021042D01*
X032890Y021042D02*
X032830Y021042D01*
X032830Y020944D02*
X032890Y020944D01*
X032890Y020845D02*
X032830Y020845D01*
X032830Y021141D02*
X032890Y021141D01*
X032890Y021338D02*
X032830Y021338D01*
X032830Y021436D02*
X032890Y021436D01*
X032890Y021535D02*
X032830Y021535D01*
X032830Y021633D02*
X032890Y021633D01*
X032890Y021732D02*
X032830Y021732D01*
X035190Y013359D02*
X028283Y013359D01*
X028382Y013261D02*
X035190Y013261D01*
X035190Y013162D02*
X028480Y013162D01*
X028540Y013064D02*
X035190Y013064D01*
X035190Y012965D02*
X028540Y012965D01*
X028540Y012874D02*
X028090Y012874D01*
X028090Y012424D01*
X028258Y012424D01*
X028540Y012705D01*
X028540Y012874D01*
X028540Y012867D02*
X035190Y012867D01*
X035190Y012768D02*
X028540Y012768D01*
X028504Y012670D02*
X035190Y012670D01*
X035190Y012571D02*
X028405Y012571D01*
X028307Y012473D02*
X035190Y012473D01*
X035190Y012374D02*
X028297Y012374D01*
X028395Y012276D02*
X035190Y012276D01*
X035190Y012177D02*
X028494Y012177D01*
X028560Y012079D02*
X035190Y012079D01*
X035190Y011980D02*
X028560Y011980D01*
X028560Y011882D02*
X035190Y011882D01*
X035190Y011783D02*
X028560Y011783D01*
X028547Y011685D02*
X035190Y011685D01*
X035190Y011586D02*
X028449Y011586D01*
X028350Y011488D02*
X035190Y011488D01*
X035190Y010601D02*
X031521Y010601D01*
X031619Y010503D02*
X035190Y010503D01*
X035190Y010404D02*
X034120Y010404D01*
X034265Y010306D02*
X035190Y010306D01*
X035190Y010207D02*
X034364Y010207D01*
X034407Y010109D02*
X035190Y010109D01*
X035190Y010010D02*
X034448Y010010D01*
X034460Y009912D02*
X035190Y009912D01*
X035190Y009813D02*
X034460Y009813D01*
X034448Y009715D02*
X035190Y009715D01*
X035190Y009616D02*
X034407Y009616D01*
X034363Y009518D02*
X035190Y009518D01*
X035190Y009419D02*
X034264Y009419D01*
X034119Y009321D02*
X035190Y009321D01*
X035190Y009025D02*
X034123Y009025D01*
X034266Y008927D02*
X035190Y008927D01*
X035190Y008828D02*
X034365Y008828D01*
X034408Y008730D02*
X035190Y008730D01*
X035190Y008631D02*
X034448Y008631D01*
X034460Y008533D02*
X035190Y008533D01*
X035190Y008434D02*
X034460Y008434D01*
X034447Y008336D02*
X035190Y008336D01*
X035190Y008237D02*
X034406Y008237D01*
X034362Y008139D02*
X035190Y008139D01*
X035190Y008040D02*
X034263Y008040D01*
X034116Y007942D02*
X035190Y007942D01*
X033260Y009912D02*
X031525Y009912D01*
X031624Y010010D02*
X033271Y010010D01*
X033312Y010109D02*
X031690Y010109D01*
X031690Y010207D02*
X033355Y010207D01*
X033454Y010306D02*
X031690Y010306D01*
X031690Y010404D02*
X033599Y010404D01*
X028090Y012473D02*
X028030Y012473D01*
X028030Y012571D02*
X028090Y012571D01*
X028090Y012670D02*
X028030Y012670D01*
X028030Y012768D02*
X028090Y012768D01*
X028090Y012867D02*
X028030Y012867D01*
X028030Y012965D02*
X028090Y012965D01*
X028090Y013064D02*
X028030Y013064D01*
X028030Y013162D02*
X028090Y013162D01*
X028090Y013261D02*
X028030Y013261D01*
X028030Y013359D02*
X028090Y013359D01*
D24*
X024260Y014254D02*
X022160Y014254D01*
X020260Y012354D01*
X020210Y006054D01*
X020210Y005354D01*
X020910Y004654D01*
X011860Y009044D02*
X011319Y008503D01*
X011319Y008495D01*
X011360Y006254D01*
X010260Y006954D01*
X011860Y009044D02*
X011860Y014554D01*
D25*
X012360Y016054D02*
X010860Y017054D01*
X010860Y026377D01*
X011537Y027054D01*
X012915Y027054D02*
X011415Y025554D01*
X011360Y025554D01*
X011360Y018054D01*
X012860Y016554D01*
X012860Y003609D01*
X013415Y003054D01*
X013415Y002499D01*
X014860Y001054D01*
X029860Y001054D01*
X031860Y003054D01*
X031804Y003054D01*
X026293Y003054D02*
X024793Y001554D01*
X020360Y001554D01*
X018926Y002987D01*
X018926Y003054D01*
X017926Y003987D01*
X017360Y004554D01*
X017360Y016554D01*
X015860Y016554D01*
X014860Y017654D01*
X014860Y019454D01*
X013360Y020954D01*
X013360Y022554D01*
X017460Y026454D01*
X017826Y026454D01*
X018426Y027054D01*
X018426Y027121D01*
X019860Y028554D01*
X024293Y028554D01*
X025793Y027054D01*
X024415Y027054D02*
X023415Y028054D01*
X020860Y028054D01*
X020360Y027554D01*
X019804Y027054D01*
X019804Y027099D01*
X018760Y026054D01*
X017660Y026054D01*
X014560Y022954D01*
X014560Y020754D01*
X017860Y017554D01*
X017860Y005554D01*
X020360Y003054D01*
X021360Y002054D01*
X023915Y002054D01*
X024915Y003054D01*
X021682Y003054D02*
X018582Y005854D01*
X018360Y006054D01*
X018360Y018554D01*
X015160Y021554D01*
X015160Y023054D01*
X017660Y025554D01*
X019760Y025554D01*
X020582Y026377D01*
X021182Y027054D01*
X017048Y027054D02*
X012860Y023054D01*
X012860Y020454D01*
X014360Y018954D01*
X014360Y017054D01*
X015360Y016054D01*
X016860Y016054D01*
X016860Y003554D01*
X017360Y003054D01*
X017548Y003054D01*
X016171Y003054D02*
X016171Y005743D01*
X013860Y008054D01*
X013860Y018554D01*
X012360Y020054D01*
X012360Y023743D01*
X015671Y027054D01*
X014393Y027087D02*
X014293Y027054D01*
X014293Y026987D01*
X011860Y024554D01*
X011860Y019054D01*
X013360Y017554D01*
X013360Y007554D01*
X014860Y006054D01*
X014860Y003054D01*
X014793Y003054D01*
X014793Y003621D01*
X012360Y003377D02*
X012037Y003054D01*
X012360Y003377D02*
X012360Y016054D01*
X009660Y011154D02*
X010260Y010554D01*
X010260Y006954D01*
X020304Y003054D02*
X020360Y003054D01*
X018340Y020054D02*
X018320Y020074D01*
X014393Y027087D02*
X016260Y029054D01*
X027926Y029054D01*
X029926Y027054D01*
D26*
X021060Y020054D02*
X024406Y017006D01*
X024360Y017054D01*
X021060Y020054D02*
X018340Y020054D01*
X018320Y020074D02*
X018320Y021814D01*
X018660Y022154D01*
X019060Y008454D02*
X019460Y008454D01*
D27*
X021460Y009854D02*
X024160Y009854D01*
X025160Y008854D01*
X019960Y013954D02*
X019960Y019054D01*
X020360Y015454D02*
X020360Y014054D01*
X019960Y013954D02*
X019060Y013054D01*
X015660Y012254D02*
X015660Y008654D01*
X010860Y010154D02*
X010860Y015554D01*
M02*
