G75*
G70*
%OFA0B0*%
%FSLAX24Y24*%
%IPPOS*%
%LPD*%
%AMOC8*
5,1,8,0,0,1.08239X$1,22.5*
%
%ADD10C,0.0000*%
%ADD11C,0.0051*%
%ADD12C,0.0060*%
%ADD13R,0.0800X0.0260*%
%ADD14C,0.0860*%
%ADD15OC8,0.0660*%
%ADD16OC8,0.0630*%
%ADD17C,0.0630*%
%ADD18R,0.0591X0.0512*%
%ADD19R,0.0512X0.0591*%
%ADD20OC8,0.0520*%
%ADD21R,0.0669X0.0256*%
%ADD22R,0.0256X0.0669*%
%ADD23OC8,0.0620*%
%ADD24C,0.0620*%
%ADD25R,0.0512X0.0630*%
%ADD26R,0.0630X0.0787*%
%ADD27R,0.0394X0.0433*%
%ADD28R,0.0630X0.0512*%
%ADD29R,0.0551X0.0394*%
%ADD30C,0.0560*%
%ADD31C,0.0240*%
%ADD32C,0.0160*%
%ADD33C,0.0120*%
%ADD34R,0.0356X0.0356*%
%ADD35C,0.0100*%
%ADD36C,0.0400*%
%ADD37C,0.0320*%
D10*
X007360Y000754D02*
X007360Y029550D01*
X033730Y029550D01*
X033730Y025484D01*
X034360Y024854D01*
X034360Y020354D01*
X035360Y019354D01*
X035360Y006454D01*
X034360Y005454D01*
X034360Y000754D01*
X007360Y000754D01*
D11*
X000492Y000754D01*
X001260Y000754D02*
X001362Y001778D01*
X001385Y001778D02*
X001260Y000754D01*
X001157Y001778D01*
X001134Y001778D02*
X001385Y001778D01*
X001311Y001778D02*
X001260Y000754D01*
X001208Y001778D01*
X001134Y001778D02*
X001260Y000754D01*
X001260Y029550D01*
X001362Y028527D01*
X001385Y028527D02*
X001260Y029550D01*
X001157Y028527D01*
X001134Y028527D02*
X001385Y028527D01*
X001311Y028527D02*
X001260Y029550D01*
X001208Y028527D01*
X001134Y028527D02*
X001260Y029550D01*
X000492Y029550D02*
X007360Y029550D01*
X007360Y031354D02*
X008383Y031252D01*
X008383Y031228D02*
X007360Y031354D01*
X008383Y031456D01*
X008383Y031480D02*
X008383Y031228D01*
X008383Y031303D02*
X007360Y031354D01*
X008383Y031405D01*
X008383Y031480D02*
X007360Y031354D01*
X035360Y031354D01*
X034336Y031252D01*
X034336Y031228D02*
X035360Y031354D01*
X034336Y031456D01*
X034336Y031480D02*
X034336Y031228D01*
X034336Y031303D02*
X035360Y031354D01*
X034336Y031405D01*
X034336Y031480D02*
X035360Y031354D01*
X035360Y032122D02*
X035360Y019354D01*
X039027Y019354D01*
X038260Y019354D02*
X038362Y018330D01*
X038385Y018330D02*
X038134Y018330D01*
X038260Y019354D01*
X038157Y018330D01*
X038208Y018330D02*
X038260Y019354D01*
X038311Y018330D01*
X038385Y018330D02*
X038260Y019354D01*
X038260Y006454D01*
X038362Y007478D01*
X038385Y007478D02*
X038134Y007478D01*
X038260Y006454D01*
X038157Y007478D01*
X038208Y007478D02*
X038260Y006454D01*
X038311Y007478D01*
X038385Y007478D02*
X038260Y006454D01*
X039027Y006454D02*
X035360Y006454D01*
X007360Y019354D02*
X007360Y032122D01*
D12*
X020137Y032251D02*
X020564Y032251D01*
X020564Y032144D01*
X020137Y031717D01*
X020137Y031610D01*
X020781Y031610D02*
X021208Y031610D01*
X020995Y031610D02*
X020995Y032251D01*
X020781Y032037D01*
X021426Y031717D02*
X021533Y031717D01*
X021533Y031610D01*
X021426Y031610D01*
X021426Y031717D01*
X021748Y031610D02*
X022175Y031610D01*
X021962Y031610D02*
X021962Y032251D01*
X021748Y032037D01*
X022393Y032144D02*
X022499Y032251D01*
X022713Y032251D01*
X022820Y032144D01*
X022820Y032037D01*
X022393Y031610D01*
X022820Y031610D01*
X037363Y014364D02*
X037470Y014364D01*
X037897Y013937D01*
X038003Y013937D01*
X037470Y013720D02*
X037897Y013293D01*
X038003Y013293D01*
X038003Y013077D02*
X038003Y012970D01*
X037897Y012970D01*
X037897Y013077D01*
X038003Y013077D01*
X038003Y012753D02*
X038003Y012326D01*
X037576Y012753D01*
X037470Y012753D01*
X037363Y012646D01*
X037363Y012433D01*
X037470Y012326D01*
X037470Y012108D02*
X037576Y012108D01*
X037683Y012002D01*
X037790Y012108D01*
X037897Y012108D01*
X038003Y012002D01*
X038003Y011788D01*
X037897Y011681D01*
X037683Y011895D02*
X037683Y012002D01*
X037470Y012108D02*
X037363Y012002D01*
X037363Y011788D01*
X037470Y011681D01*
X037363Y013293D02*
X037363Y013720D01*
X037470Y013720D01*
X037363Y013937D02*
X037363Y014364D01*
X001003Y014681D02*
X000897Y014574D01*
X001003Y014681D02*
X001003Y014894D01*
X000897Y015001D01*
X000790Y015001D01*
X000683Y014894D01*
X000683Y014787D01*
X000683Y014894D02*
X000576Y015001D01*
X000470Y015001D01*
X000363Y014894D01*
X000363Y014681D01*
X000470Y014574D01*
X000470Y014356D02*
X000897Y013929D01*
X001003Y013929D01*
X000363Y013929D02*
X000363Y014356D01*
X000470Y014356D01*
X000897Y015218D02*
X000897Y015325D01*
X001003Y015325D01*
X001003Y015218D01*
X000897Y015218D01*
X001003Y015541D02*
X001003Y015968D01*
X001003Y015754D02*
X000363Y015754D01*
X000576Y015541D01*
X000683Y016185D02*
X000683Y016612D01*
X000363Y016506D02*
X000683Y016185D01*
X001003Y016506D02*
X000363Y016506D01*
D13*
X022380Y012904D03*
X022380Y012404D03*
X022380Y011904D03*
X022380Y011404D03*
X022380Y010904D03*
X022380Y010404D03*
X022380Y009904D03*
X022380Y009404D03*
X022380Y008904D03*
X022380Y008404D03*
X026340Y008404D03*
X026340Y008904D03*
X026340Y009404D03*
X026340Y009904D03*
X026340Y010404D03*
X026340Y010904D03*
X026340Y011404D03*
X026340Y011904D03*
X026340Y012404D03*
X026340Y012904D03*
D14*
X033860Y015885D03*
X033860Y017263D03*
X033860Y009863D03*
X033860Y008485D03*
X033182Y003054D03*
X031804Y003054D03*
X030426Y003054D03*
X029048Y003054D03*
X027671Y003054D03*
X026293Y003054D03*
X024915Y003054D03*
X023537Y003054D03*
X021682Y003054D03*
X020304Y003054D03*
X018926Y003054D03*
X017548Y003054D03*
X016171Y003054D03*
X014793Y003054D03*
X013415Y003054D03*
X012037Y003054D03*
X009568Y003054D03*
X008190Y003054D03*
X008190Y027054D03*
X009568Y027054D03*
X011537Y027054D03*
X012915Y027054D03*
X014293Y027054D03*
X015671Y027054D03*
X017048Y027054D03*
X018426Y027054D03*
X019804Y027054D03*
X021182Y027054D03*
X023037Y027054D03*
X024415Y027054D03*
X025793Y027054D03*
X027171Y027054D03*
X028548Y027054D03*
X029926Y027054D03*
X031304Y027054D03*
X032682Y027054D03*
D15*
X032360Y024454D03*
X031360Y024454D03*
X030360Y024454D03*
X029360Y024454D03*
X028360Y024454D03*
X027360Y024454D03*
X026360Y024454D03*
X024760Y024454D03*
X023760Y024454D03*
X022760Y024454D03*
X021760Y024454D03*
X020760Y024454D03*
X019760Y024454D03*
X018760Y024454D03*
X017760Y024454D03*
X017060Y022054D03*
X016060Y022054D03*
X024260Y015254D03*
X024260Y014254D03*
X021060Y011904D03*
X021060Y010904D03*
X021360Y005454D03*
X022360Y005454D03*
X023360Y005454D03*
X024360Y005454D03*
X025360Y005454D03*
X026360Y005454D03*
X028360Y005454D03*
X029360Y005454D03*
X030360Y005454D03*
X031360Y005454D03*
X032360Y005454D03*
X033360Y005454D03*
X028060Y011904D03*
X028060Y012904D03*
X032860Y020254D03*
X032860Y021254D03*
X033360Y024454D03*
X009660Y011154D03*
X008660Y011154D03*
D16*
X026260Y015254D03*
X030360Y016054D03*
D17*
X030360Y017054D03*
X026260Y014254D03*
D18*
X029660Y010589D03*
X029660Y009919D03*
X029660Y008739D03*
X029660Y008069D03*
D19*
X028294Y008904D03*
X027625Y008904D03*
X027625Y009954D03*
X028294Y009954D03*
D20*
X031260Y010254D03*
X031260Y008254D03*
D21*
X019241Y014054D03*
X019241Y014554D03*
X019241Y015054D03*
X019241Y015554D03*
X019241Y016054D03*
X019241Y016554D03*
X019241Y017054D03*
X019241Y017554D03*
X019241Y018054D03*
X019241Y018554D03*
X019241Y019054D03*
X019241Y019554D03*
X019241Y020054D03*
X019241Y020554D03*
X015478Y020554D03*
X015478Y020054D03*
X015478Y019554D03*
X015478Y019054D03*
X015478Y018554D03*
X015478Y018054D03*
X015478Y017554D03*
X015478Y017054D03*
X015478Y016554D03*
X015478Y016054D03*
X015478Y015554D03*
X015478Y015054D03*
X015478Y014554D03*
X015478Y014054D03*
D22*
X015360Y010936D03*
X015860Y010936D03*
X016360Y010936D03*
X016860Y010936D03*
X017360Y010936D03*
X014860Y010936D03*
X014360Y010936D03*
X013860Y010936D03*
X013360Y010936D03*
X012860Y010936D03*
X012360Y010936D03*
X011860Y010936D03*
X011360Y010936D03*
X010860Y010936D03*
X010860Y007172D03*
X011360Y007172D03*
X011860Y007172D03*
X012360Y007172D03*
X012860Y007172D03*
X013360Y007172D03*
X013860Y007172D03*
X014360Y007172D03*
X014860Y007172D03*
X015360Y007172D03*
X015860Y007172D03*
X016360Y007172D03*
X016860Y007172D03*
X017360Y007172D03*
D23*
X008660Y009054D03*
X019660Y022154D03*
D24*
X018660Y022154D03*
X009660Y009054D03*
D25*
X015466Y013054D03*
X016253Y013054D03*
X032285Y019154D03*
X033034Y019154D03*
D26*
X021511Y008404D03*
X020408Y008404D03*
D27*
X025625Y007204D03*
X026294Y007204D03*
X026294Y006304D03*
X025625Y006304D03*
D28*
X027560Y006510D03*
X027560Y007298D03*
D29*
X024693Y007204D03*
X023826Y006830D03*
X023826Y007578D03*
D30*
X019640Y007454D02*
X019080Y007454D01*
X019080Y006454D02*
X019640Y006454D01*
D31*
X019060Y008454D02*
X018160Y009354D01*
X014860Y009354D01*
X014860Y007172D01*
X014860Y006654D01*
X014560Y006354D01*
X014160Y006354D01*
X013860Y006654D01*
X013860Y007172D01*
X014360Y007172D02*
X014360Y008054D01*
X013810Y008604D01*
X010410Y008604D01*
X008190Y006385D01*
X008190Y003054D01*
X009568Y003054D02*
X009568Y007163D01*
X010460Y008054D01*
X013160Y008054D01*
X013360Y007854D01*
X013360Y007172D01*
X014860Y009354D02*
X014860Y010936D01*
X014360Y010936D02*
X014360Y012054D01*
X013560Y012854D01*
X011160Y012854D01*
X009568Y014445D01*
X009568Y027054D01*
X008190Y027054D02*
X008190Y014123D01*
X010160Y012154D01*
X012960Y012154D01*
X013360Y011754D01*
X013360Y010936D01*
X013860Y010936D02*
X013860Y010354D01*
X011360Y010936D02*
X011360Y009354D01*
X010860Y009054D01*
X009660Y009054D01*
X012860Y004054D02*
X032182Y004054D01*
X033182Y003054D01*
X030426Y003054D02*
X028426Y001054D01*
X016360Y001054D01*
X014793Y002621D01*
X014793Y003054D01*
X016171Y003054D02*
X016171Y002743D01*
X017360Y001554D01*
X027548Y001554D01*
X029048Y003054D01*
X027671Y003054D02*
X026671Y002054D01*
X018360Y002054D01*
X017548Y002865D01*
X017548Y003054D01*
X021682Y003054D02*
X023537Y003054D01*
X025625Y006304D02*
X025625Y007204D01*
X024693Y007204D01*
X026294Y007204D02*
X027466Y007204D01*
X027560Y007298D01*
X027560Y006510D02*
X026500Y006510D01*
X026294Y006304D01*
X028279Y005535D02*
X028360Y005454D01*
X028279Y005535D02*
X028279Y008769D01*
X029629Y008769D01*
X029660Y008739D01*
X029660Y008069D02*
X031075Y008069D01*
X031260Y008254D01*
X029660Y009919D02*
X029625Y009954D01*
X028294Y009954D01*
X028294Y008904D01*
X028279Y008769D01*
X027625Y008904D02*
X027625Y009954D01*
X027275Y009939D01*
X026760Y009954D01*
X026171Y009954D01*
X026340Y012904D02*
X025510Y012904D01*
X025060Y013354D01*
X024260Y014254D01*
X026260Y014254D02*
X026260Y012993D01*
X026340Y012904D01*
X019241Y016054D02*
X016860Y016054D01*
X017360Y016554D02*
X019241Y016554D01*
X019241Y017554D02*
X017860Y017554D01*
X018360Y018554D02*
X019241Y018554D01*
X019241Y020054D02*
X018360Y020054D01*
X018320Y020074D01*
X019221Y020074D01*
X019241Y020054D01*
X016260Y020554D02*
X015478Y020554D01*
X015478Y018554D02*
X013860Y018554D01*
X013360Y017554D02*
X015478Y017554D01*
X015478Y016554D02*
X012860Y016554D01*
X012360Y016054D02*
X015478Y016054D01*
X013815Y026154D02*
X012915Y027054D01*
X013815Y026154D02*
X030304Y026154D01*
X028548Y027054D02*
X027248Y028554D01*
X017171Y028554D01*
X015671Y027054D01*
X017048Y027054D02*
X018148Y028054D01*
X026260Y028054D01*
X027171Y027143D01*
X030682Y029054D02*
X032682Y027054D01*
X030682Y029054D02*
X013537Y029054D01*
X011537Y027054D01*
X021182Y027054D02*
X023037Y027054D01*
X012860Y004054D02*
X012037Y003231D01*
X012037Y003054D01*
D32*
X011360Y005054D02*
X011360Y006254D01*
X011360Y007172D01*
X011360Y005054D02*
X015860Y005054D01*
X016860Y004654D01*
X016860Y007172D01*
X019360Y007454D02*
X019360Y008354D01*
X019460Y008454D01*
X019360Y006454D02*
X019660Y006154D01*
X024660Y006154D01*
X024860Y005954D01*
X024860Y005054D01*
X025060Y004854D01*
X025760Y004854D01*
X026360Y005454D01*
X027560Y004754D02*
X027560Y006510D01*
X028660Y004754D02*
X029360Y005454D01*
X028660Y004754D02*
X027560Y004754D01*
X023360Y005454D02*
X022560Y004654D01*
X020910Y004654D01*
X016860Y004654D01*
X026340Y010404D02*
X026340Y010904D01*
X026340Y011404D01*
X033860Y017263D02*
X033860Y018328D01*
X033034Y019154D01*
X032285Y019154D02*
X032285Y019680D01*
X032860Y020254D01*
X016060Y022054D02*
X015360Y022054D01*
X014360Y021054D01*
X014360Y020054D01*
X012860Y020054D01*
X011860Y019054D01*
X011860Y014554D01*
X015478Y014554D01*
X015478Y020054D02*
X014360Y020054D01*
D33*
X014620Y020314D02*
X014620Y020946D01*
X015467Y021794D01*
X015598Y021794D01*
X015848Y021544D01*
X016271Y021544D01*
X016570Y021843D01*
X016570Y022265D01*
X016271Y022564D01*
X015848Y022564D01*
X015598Y022314D01*
X015308Y022314D01*
X015212Y022274D01*
X015139Y022201D01*
X014139Y021201D01*
X014100Y021106D01*
X014100Y020314D01*
X012959Y020314D01*
X017250Y024605D01*
X017250Y024243D01*
X017548Y023944D01*
X017971Y023944D01*
X018270Y024243D01*
X018270Y024665D01*
X018021Y024914D01*
X018527Y024914D01*
X018270Y024657D01*
X018270Y024492D01*
X018721Y024492D01*
X018721Y024416D01*
X018270Y024416D01*
X018270Y024251D01*
X018557Y023964D01*
X018721Y023964D01*
X018721Y024416D01*
X018798Y024416D01*
X018798Y024492D01*
X019250Y024492D01*
X019250Y024657D01*
X018992Y024914D01*
X019049Y024914D01*
X019256Y024672D01*
X019250Y024665D01*
X019250Y024243D01*
X019548Y023944D01*
X019971Y023944D01*
X020260Y024233D01*
X020548Y023944D01*
X020971Y023944D01*
X021260Y024233D01*
X021520Y023973D01*
X021520Y021744D01*
X020200Y020236D01*
X020200Y020402D01*
X020163Y020490D01*
X019963Y020690D01*
X019895Y020758D01*
X019807Y020794D01*
X019719Y020794D01*
X019651Y020862D01*
X018832Y020862D01*
X018727Y020757D01*
X018727Y020374D01*
X018630Y020374D01*
X018572Y020432D01*
X018067Y020432D01*
X017961Y020327D01*
X017961Y019821D01*
X018067Y019716D01*
X018572Y019716D01*
X018610Y019754D01*
X018764Y019754D01*
X018758Y019744D01*
X018747Y019703D01*
X018747Y019558D01*
X019237Y019558D01*
X019237Y019550D01*
X018747Y019550D01*
X018747Y019405D01*
X018758Y019364D01*
X018779Y019328D01*
X018803Y019304D01*
X018779Y019280D01*
X018758Y019244D01*
X018747Y019203D01*
X018747Y019058D01*
X019237Y019058D01*
X019237Y019050D01*
X018747Y019050D01*
X018747Y018905D01*
X018758Y018864D01*
X018764Y018854D01*
X018670Y018854D01*
X018612Y018912D01*
X018107Y018912D01*
X018001Y018807D01*
X018001Y018301D01*
X018107Y018196D01*
X018612Y018196D01*
X018670Y018254D01*
X018764Y018254D01*
X018758Y018244D01*
X018747Y018203D01*
X018747Y018058D01*
X019237Y018058D01*
X019237Y018050D01*
X018747Y018050D01*
X018747Y017905D01*
X018758Y017864D01*
X018764Y017854D01*
X018170Y017854D01*
X018112Y017912D01*
X017607Y017912D01*
X017501Y017807D01*
X017501Y017301D01*
X017607Y017196D01*
X018112Y017196D01*
X018170Y017254D01*
X018764Y017254D01*
X018758Y017244D01*
X018747Y017203D01*
X018747Y017058D01*
X019237Y017058D01*
X019237Y017050D01*
X018747Y017050D01*
X018747Y016905D01*
X018758Y016864D01*
X018764Y016854D01*
X017670Y016854D01*
X017612Y016912D01*
X017107Y016912D01*
X017001Y016807D01*
X017001Y016412D01*
X016607Y016412D01*
X016501Y016307D01*
X016501Y015801D01*
X016607Y015696D01*
X017112Y015696D01*
X017170Y015754D01*
X018764Y015754D01*
X018758Y015744D01*
X018747Y015703D01*
X018747Y015558D01*
X019237Y015558D01*
X019237Y015550D01*
X018747Y015550D01*
X018747Y015405D01*
X018758Y015364D01*
X018779Y015328D01*
X018803Y015304D01*
X018779Y015280D01*
X018758Y015244D01*
X018747Y015203D01*
X018747Y015058D01*
X019237Y015058D01*
X019237Y015050D01*
X018747Y015050D01*
X018747Y014905D01*
X018758Y014864D01*
X018779Y014828D01*
X018788Y014818D01*
X018764Y014794D01*
X018212Y014794D01*
X018124Y014758D01*
X017724Y014358D01*
X017656Y014290D01*
X017620Y014202D01*
X017620Y012494D01*
X016812Y012494D01*
X016724Y012458D01*
X016656Y012390D01*
X016620Y012302D01*
X016620Y011413D01*
X016595Y011389D01*
X016586Y011399D01*
X016549Y011420D01*
X016509Y011431D01*
X016363Y011431D01*
X016363Y010940D01*
X016356Y010940D01*
X016356Y011431D01*
X016210Y011431D01*
X016170Y011420D01*
X016133Y011399D01*
X016124Y011389D01*
X016062Y011451D01*
X015657Y011451D01*
X015610Y011403D01*
X015562Y011451D01*
X015157Y011451D01*
X015110Y011403D01*
X015062Y011451D01*
X014660Y011451D01*
X014660Y012114D01*
X014614Y012224D01*
X014529Y012308D01*
X013729Y013108D01*
X013619Y013154D01*
X011284Y013154D01*
X009868Y014570D01*
X009868Y026518D01*
X009914Y026537D01*
X010085Y026709D01*
X010178Y026933D01*
X010178Y027175D01*
X010085Y027400D01*
X009914Y027571D01*
X009690Y027664D01*
X009447Y027664D01*
X009223Y027571D01*
X009051Y027400D01*
X008958Y027175D01*
X008958Y026933D01*
X009051Y026709D01*
X009223Y026537D01*
X009268Y026518D01*
X009268Y014386D01*
X009314Y014275D01*
X010905Y012684D01*
X010990Y012600D01*
X011100Y012554D01*
X013435Y012554D01*
X014060Y011930D01*
X014060Y011451D01*
X013660Y011451D01*
X013660Y011814D01*
X013614Y011924D01*
X013214Y012324D01*
X013129Y012408D01*
X013019Y012454D01*
X010284Y012454D01*
X008490Y014248D01*
X008490Y026518D01*
X008536Y026537D01*
X008707Y026709D01*
X008800Y026933D01*
X008800Y027175D01*
X008707Y027400D01*
X008536Y027571D01*
X008312Y027664D01*
X008069Y027664D01*
X007845Y027571D01*
X007673Y027400D01*
X007580Y027175D01*
X007580Y026933D01*
X007673Y026709D01*
X007845Y026537D01*
X007890Y026518D01*
X007890Y014064D01*
X007936Y013953D01*
X008020Y013869D01*
X009990Y011900D01*
X010100Y011854D01*
X012835Y011854D01*
X013060Y011630D01*
X013060Y011451D01*
X012657Y011451D01*
X012610Y011403D01*
X012562Y011451D01*
X012157Y011451D01*
X012110Y011403D01*
X012062Y011451D01*
X011657Y011451D01*
X011610Y011403D01*
X011562Y011451D01*
X011157Y011451D01*
X011110Y011403D01*
X011062Y011451D01*
X010657Y011451D01*
X010552Y011345D01*
X010552Y010527D01*
X010586Y010492D01*
X010501Y010407D01*
X010501Y009901D01*
X010607Y009796D01*
X011060Y009796D01*
X011060Y009524D01*
X010776Y009354D01*
X010052Y009354D01*
X009937Y009469D01*
X009757Y009544D01*
X009562Y009544D01*
X009382Y009469D01*
X009244Y009332D01*
X009170Y009152D01*
X009170Y008957D01*
X009244Y008777D01*
X009382Y008639D01*
X009562Y008564D01*
X009757Y008564D01*
X009937Y008639D01*
X010052Y008754D01*
X010135Y008754D01*
X008020Y006639D01*
X007936Y006555D01*
X007890Y006444D01*
X007890Y003590D01*
X007845Y003571D01*
X007673Y003400D01*
X007580Y003175D01*
X007580Y002933D01*
X007673Y002709D01*
X007845Y002537D01*
X008069Y002444D01*
X008312Y002444D01*
X008536Y002537D01*
X008707Y002709D01*
X008800Y002933D01*
X008800Y003175D01*
X008707Y003400D01*
X008536Y003571D01*
X008490Y003590D01*
X008490Y006261D01*
X009268Y007038D01*
X009268Y003590D01*
X009223Y003571D01*
X009051Y003400D01*
X008958Y003175D01*
X008958Y002933D01*
X009051Y002709D01*
X009223Y002537D01*
X009447Y002444D01*
X009690Y002444D01*
X009914Y002537D01*
X010085Y002709D01*
X010178Y002933D01*
X010178Y003175D01*
X010085Y003400D01*
X009914Y003571D01*
X009868Y003590D01*
X009868Y007038D01*
X010584Y007754D01*
X013035Y007754D01*
X013060Y007730D01*
X013060Y007687D01*
X012657Y007687D01*
X012610Y007639D01*
X012562Y007687D01*
X012157Y007687D01*
X012110Y007639D01*
X012062Y007687D01*
X011657Y007687D01*
X011610Y007639D01*
X011562Y007687D01*
X011157Y007687D01*
X011095Y007625D01*
X011086Y007635D01*
X011049Y007656D01*
X011009Y007667D01*
X010863Y007667D01*
X010863Y007176D01*
X010856Y007176D01*
X010856Y007667D01*
X010710Y007667D01*
X010670Y007656D01*
X010633Y007635D01*
X010604Y007605D01*
X010582Y007569D01*
X010572Y007528D01*
X010572Y007176D01*
X010856Y007176D01*
X010856Y007168D01*
X010863Y007168D01*
X010863Y006678D01*
X011009Y006678D01*
X011049Y006688D01*
X011086Y006710D01*
X011095Y006719D01*
X011100Y006715D01*
X011100Y006605D01*
X011001Y006507D01*
X011001Y006001D01*
X011100Y005903D01*
X011100Y005002D01*
X011139Y004907D01*
X011212Y004834D01*
X011308Y004794D01*
X015809Y004794D01*
X016762Y004413D01*
X016808Y004394D01*
X016809Y004394D01*
X016811Y004393D01*
X016861Y004394D01*
X020559Y004394D01*
X020599Y004354D01*
X012800Y004354D01*
X012690Y004308D01*
X012605Y004224D01*
X012045Y003664D01*
X011915Y003664D01*
X011691Y003571D01*
X011520Y003400D01*
X011427Y003175D01*
X011427Y002933D01*
X011520Y002709D01*
X011691Y002537D01*
X011915Y002444D01*
X012158Y002444D01*
X012382Y002537D01*
X012554Y002709D01*
X012647Y002933D01*
X012647Y003175D01*
X012576Y003346D01*
X012984Y003754D01*
X032058Y003754D01*
X032591Y003221D01*
X032572Y003175D01*
X032572Y002933D01*
X032665Y002709D01*
X032837Y002537D01*
X033061Y002444D01*
X033304Y002444D01*
X033528Y002537D01*
X033699Y002709D01*
X033792Y002933D01*
X033792Y003175D01*
X033699Y003400D01*
X033528Y003571D01*
X033304Y003664D01*
X033061Y003664D01*
X033015Y003645D01*
X032352Y004308D01*
X032242Y004354D01*
X021220Y004354D01*
X021260Y004394D01*
X022611Y004394D01*
X022707Y004434D01*
X023217Y004944D01*
X023571Y004944D01*
X023870Y005243D01*
X023870Y005665D01*
X023641Y005894D01*
X024107Y005894D01*
X023870Y005657D01*
X023870Y005492D01*
X024321Y005492D01*
X024321Y005416D01*
X023870Y005416D01*
X023870Y005251D01*
X024157Y004964D01*
X024321Y004964D01*
X024321Y005416D01*
X024398Y005416D01*
X024398Y004964D01*
X024562Y004964D01*
X024600Y005001D01*
X024639Y004907D01*
X024839Y004707D01*
X024912Y004634D01*
X025008Y004594D01*
X025811Y004594D01*
X025907Y004634D01*
X026217Y004944D01*
X026571Y004944D01*
X026870Y005243D01*
X026870Y005665D01*
X026596Y005938D01*
X026671Y006013D01*
X026671Y006210D01*
X027065Y006210D01*
X027065Y006180D01*
X027170Y006074D01*
X027300Y006074D01*
X027300Y004702D01*
X025975Y004702D01*
X026093Y004820D02*
X027300Y004820D01*
X027300Y004702D02*
X027339Y004607D01*
X027412Y004534D01*
X027508Y004494D01*
X028711Y004494D01*
X028807Y004534D01*
X028880Y004607D01*
X029217Y004944D01*
X029571Y004944D01*
X029860Y005233D01*
X030148Y004944D01*
X030571Y004944D01*
X030860Y005233D01*
X031148Y004944D01*
X031571Y004944D01*
X031860Y005233D01*
X032148Y004944D01*
X032571Y004944D01*
X032860Y005233D01*
X033148Y004944D01*
X033571Y004944D01*
X033870Y005243D01*
X033870Y005665D01*
X033571Y005964D01*
X033148Y005964D01*
X032860Y005675D01*
X032571Y005964D01*
X032148Y005964D01*
X031860Y005675D01*
X031571Y005964D01*
X031148Y005964D01*
X030860Y005675D01*
X030571Y005964D01*
X030148Y005964D01*
X029860Y005675D01*
X029571Y005964D01*
X029148Y005964D01*
X028860Y005675D01*
X028579Y005956D01*
X028579Y008429D01*
X028625Y008429D01*
X028665Y008469D01*
X029184Y008469D01*
X029184Y008408D01*
X029188Y008404D01*
X029184Y008400D01*
X029184Y007739D01*
X029290Y007634D01*
X030029Y007634D01*
X030135Y007739D01*
X030135Y007769D01*
X031135Y007769D01*
X031242Y007814D01*
X031442Y007814D01*
X031700Y008072D01*
X031700Y008436D01*
X031442Y008694D01*
X031077Y008694D01*
X030820Y008436D01*
X030820Y008369D01*
X030135Y008369D01*
X030135Y008400D01*
X030131Y008404D01*
X030135Y008408D01*
X030135Y009069D01*
X030029Y009175D01*
X029290Y009175D01*
X029184Y009069D01*
X028730Y009069D01*
X028730Y009274D01*
X028625Y009379D01*
X028594Y009379D01*
X028594Y009479D01*
X028625Y009479D01*
X028730Y009584D01*
X028730Y009654D01*
X029184Y009654D01*
X029184Y009589D01*
X029290Y009484D01*
X030029Y009484D01*
X030135Y009589D01*
X030135Y010209D01*
X030767Y010209D01*
X030820Y010157D01*
X030820Y010072D01*
X031077Y009814D01*
X031162Y009814D01*
X031436Y009541D01*
X031575Y009483D01*
X033377Y009483D01*
X033514Y009346D01*
X033738Y009253D01*
X033981Y009253D01*
X034205Y009346D01*
X034377Y009517D01*
X034470Y009741D01*
X034470Y009984D01*
X034377Y010208D01*
X034205Y010380D01*
X033981Y010473D01*
X033738Y010473D01*
X033514Y010380D01*
X033377Y010243D01*
X031808Y010243D01*
X031700Y010351D01*
X031700Y010436D01*
X031442Y010694D01*
X031357Y010694D01*
X031140Y010911D01*
X031000Y010969D01*
X030085Y010969D01*
X030029Y011025D01*
X029761Y011025D01*
X028559Y012226D01*
X028420Y012284D01*
X028401Y012284D01*
X028271Y012414D01*
X027848Y012414D01*
X027718Y012284D01*
X027020Y012284D01*
X027020Y012285D01*
X027570Y013029D01*
X027570Y012924D01*
X028040Y012924D01*
X028040Y013394D01*
X027857Y013394D01*
X027792Y013329D01*
X027842Y013397D01*
X027863Y013418D01*
X027870Y013435D01*
X027881Y013450D01*
X027888Y013479D01*
X027900Y013506D01*
X027900Y013525D01*
X027904Y013542D01*
X027900Y013572D01*
X027900Y017786D01*
X030149Y021404D01*
X030163Y021418D01*
X030174Y021444D01*
X030189Y021468D01*
X030192Y021488D01*
X030200Y021506D01*
X030200Y021534D01*
X030204Y021562D01*
X030200Y021582D01*
X030200Y022955D01*
X031189Y023944D01*
X031571Y023944D01*
X031860Y024233D01*
X032148Y023944D01*
X032571Y023944D01*
X032860Y024233D01*
X033148Y023944D01*
X033571Y023944D01*
X033870Y024243D01*
X033870Y024665D01*
X033571Y024964D01*
X033148Y024964D01*
X032860Y024675D01*
X032571Y024964D01*
X032148Y024964D01*
X031860Y024675D01*
X031571Y024964D01*
X031148Y024964D01*
X030860Y024675D01*
X030571Y024964D01*
X030148Y024964D01*
X029860Y024675D01*
X029571Y024964D01*
X029148Y024964D01*
X028860Y024675D01*
X028571Y024964D01*
X028148Y024964D01*
X027860Y024675D01*
X027600Y024935D01*
X027600Y025002D01*
X027563Y025090D01*
X027063Y025590D01*
X026995Y025658D01*
X026907Y025694D01*
X022870Y025694D01*
X022834Y025697D01*
X022823Y025694D01*
X022812Y025694D01*
X022778Y025680D01*
X022743Y025669D01*
X022734Y025662D01*
X022724Y025658D01*
X022698Y025631D01*
X022134Y025162D01*
X022124Y025158D01*
X022098Y025131D01*
X022069Y025108D01*
X022064Y025098D01*
X022056Y025090D01*
X022042Y025056D01*
X022025Y025023D01*
X022024Y025012D01*
X022020Y025002D01*
X022020Y024965D01*
X022016Y024928D01*
X022020Y024918D01*
X022020Y024915D01*
X021971Y024964D01*
X021548Y024964D01*
X021260Y024675D01*
X020971Y024964D01*
X020620Y024964D01*
X019965Y025685D01*
X019963Y025690D01*
X019933Y025720D01*
X019905Y025751D01*
X019900Y025753D01*
X019895Y025758D01*
X019857Y025774D01*
X019819Y025792D01*
X019813Y025792D01*
X019807Y025794D01*
X019765Y025794D01*
X019723Y025796D01*
X019718Y025794D01*
X017312Y025794D01*
X017224Y025758D01*
X017156Y025690D01*
X010724Y019258D01*
X010656Y019190D01*
X010620Y019102D01*
X010620Y015912D01*
X010607Y015912D01*
X010501Y015807D01*
X010501Y015301D01*
X010607Y015196D01*
X011112Y015196D01*
X011120Y015203D01*
X011120Y014306D01*
X011156Y014218D01*
X011456Y013918D01*
X011524Y013851D01*
X011612Y013814D01*
X015000Y013814D01*
X015068Y013746D01*
X015221Y013746D01*
X015223Y013549D01*
X015135Y013549D01*
X015030Y013444D01*
X015030Y012665D01*
X015135Y012559D01*
X015354Y012559D01*
X015301Y012507D01*
X015301Y012001D01*
X015407Y011896D01*
X015912Y011896D01*
X016018Y012001D01*
X016018Y012507D01*
X015933Y012592D01*
X015936Y012590D01*
X015976Y012579D01*
X016193Y012579D01*
X016193Y012994D01*
X016313Y012994D01*
X016313Y012579D01*
X016530Y012579D01*
X016571Y012590D01*
X016607Y012611D01*
X016637Y012641D01*
X016658Y012677D01*
X016669Y012718D01*
X016669Y012994D01*
X016313Y012994D01*
X016313Y013114D01*
X016193Y013114D01*
X016193Y013529D01*
X015976Y013529D01*
X015936Y013518D01*
X015899Y013497D01*
X015874Y013472D01*
X015796Y013549D01*
X015703Y013549D01*
X015701Y013746D01*
X015887Y013746D01*
X015992Y013852D01*
X015992Y014257D01*
X015945Y014304D01*
X015992Y014352D01*
X015992Y014757D01*
X015931Y014818D01*
X015940Y014828D01*
X015961Y014864D01*
X015972Y014905D01*
X015972Y015050D01*
X015482Y015050D01*
X015482Y015058D01*
X015972Y015058D01*
X015972Y015203D01*
X015961Y015244D01*
X015940Y015280D01*
X015916Y015304D01*
X015940Y015328D01*
X015961Y015364D01*
X015972Y015405D01*
X015972Y015550D01*
X015482Y015550D01*
X015482Y015558D01*
X015972Y015558D01*
X015972Y015703D01*
X015961Y015744D01*
X015940Y015780D01*
X015931Y015790D01*
X015992Y015852D01*
X015992Y016257D01*
X015945Y016304D01*
X015992Y016352D01*
X015992Y016757D01*
X015931Y016818D01*
X015940Y016828D01*
X015961Y016864D01*
X015972Y016905D01*
X015972Y017050D01*
X015482Y017050D01*
X015482Y017058D01*
X015972Y017058D01*
X015972Y017203D01*
X015961Y017244D01*
X015940Y017280D01*
X015931Y017290D01*
X015992Y017352D01*
X015992Y017757D01*
X015931Y017818D01*
X015940Y017828D01*
X015961Y017864D01*
X015972Y017905D01*
X015972Y018050D01*
X015482Y018050D01*
X015482Y018058D01*
X015972Y018058D01*
X015972Y018203D01*
X015961Y018244D01*
X015940Y018280D01*
X015931Y018290D01*
X015992Y018352D01*
X015992Y018757D01*
X015931Y018818D01*
X015940Y018828D01*
X015961Y018864D01*
X015972Y018905D01*
X015972Y019050D01*
X015482Y019050D01*
X015482Y019058D01*
X015972Y019058D01*
X015972Y019203D01*
X015961Y019244D01*
X015940Y019280D01*
X015916Y019304D01*
X015940Y019328D01*
X015961Y019364D01*
X015972Y019405D01*
X015972Y019550D01*
X015482Y019550D01*
X015482Y019558D01*
X015972Y019558D01*
X015972Y019703D01*
X015961Y019744D01*
X015940Y019780D01*
X015931Y019790D01*
X015992Y019852D01*
X015992Y020257D01*
X015931Y020318D01*
X015940Y020328D01*
X015961Y020364D01*
X015972Y020405D01*
X015972Y020550D01*
X015482Y020550D01*
X015482Y020558D01*
X015972Y020558D01*
X015972Y020703D01*
X015961Y020744D01*
X015940Y020780D01*
X015911Y020810D01*
X015874Y020831D01*
X015833Y020842D01*
X015482Y020842D01*
X015482Y020558D01*
X015474Y020558D01*
X015474Y020842D01*
X015122Y020842D01*
X015081Y020831D01*
X015045Y020810D01*
X015015Y020780D01*
X014994Y020744D01*
X014983Y020703D01*
X014983Y020558D01*
X015474Y020558D01*
X015474Y020550D01*
X014983Y020550D01*
X014983Y020405D01*
X014994Y020364D01*
X015015Y020328D01*
X015025Y020318D01*
X015020Y020314D01*
X014620Y020314D01*
X014620Y020344D02*
X015006Y020344D01*
X014983Y020462D02*
X014620Y020462D01*
X014620Y020581D02*
X014983Y020581D01*
X014983Y020699D02*
X014620Y020699D01*
X014620Y020818D02*
X015058Y020818D01*
X014728Y021055D02*
X020916Y021055D01*
X021020Y021173D02*
X014846Y021173D01*
X014965Y021292D02*
X021123Y021292D01*
X021227Y021410D02*
X015083Y021410D01*
X015202Y021529D02*
X021331Y021529D01*
X021435Y021647D02*
X017346Y021647D01*
X017262Y021564D02*
X017550Y021851D01*
X017550Y022034D01*
X017080Y022034D01*
X017080Y022074D01*
X017550Y022074D01*
X017550Y022257D01*
X017262Y022544D01*
X017080Y022544D01*
X017080Y022074D01*
X017040Y022074D01*
X017040Y022544D01*
X016857Y022544D01*
X016570Y022257D01*
X016570Y022074D01*
X017040Y022074D01*
X017040Y022034D01*
X017080Y022034D01*
X017080Y021564D01*
X017262Y021564D01*
X017080Y021647D02*
X017040Y021647D01*
X017040Y021564D02*
X017040Y022034D01*
X016570Y022034D01*
X016570Y021851D01*
X016857Y021564D01*
X017040Y021564D01*
X017040Y021766D02*
X017080Y021766D01*
X017080Y021884D02*
X017040Y021884D01*
X017040Y022003D02*
X017080Y022003D01*
X017080Y022121D02*
X017040Y022121D01*
X017040Y022240D02*
X017080Y022240D01*
X017080Y022358D02*
X017040Y022358D01*
X017040Y022477D02*
X017080Y022477D01*
X017330Y022477D02*
X018289Y022477D01*
X018244Y022432D02*
X018170Y022252D01*
X018170Y022057D01*
X018244Y021877D01*
X018382Y021739D01*
X018562Y021664D01*
X018757Y021664D01*
X018937Y021739D01*
X019075Y021877D01*
X019150Y022057D01*
X019150Y022252D01*
X019075Y022432D01*
X018937Y022569D01*
X018757Y022644D01*
X018562Y022644D01*
X018382Y022569D01*
X018244Y022432D01*
X018214Y022358D02*
X017448Y022358D01*
X017550Y022240D02*
X018170Y022240D01*
X018170Y022121D02*
X017550Y022121D01*
X017550Y022003D02*
X018192Y022003D01*
X018241Y021884D02*
X017550Y021884D01*
X017464Y021766D02*
X018355Y021766D01*
X018964Y021766D02*
X019383Y021766D01*
X019465Y021684D02*
X019640Y021684D01*
X019640Y022134D01*
X019680Y022134D01*
X019680Y022174D01*
X020130Y022174D01*
X020130Y022349D01*
X019854Y022624D01*
X019680Y022624D01*
X019680Y022174D01*
X019640Y022174D01*
X019640Y022624D01*
X019465Y022624D01*
X019190Y022349D01*
X019190Y022174D01*
X019640Y022174D01*
X019640Y022134D01*
X019190Y022134D01*
X019190Y021959D01*
X019465Y021684D01*
X019640Y021766D02*
X019680Y021766D01*
X019680Y021684D02*
X019854Y021684D01*
X020130Y021959D01*
X020130Y022134D01*
X019680Y022134D01*
X019680Y021684D01*
X019680Y021884D02*
X019640Y021884D01*
X019640Y022003D02*
X019680Y022003D01*
X019680Y022121D02*
X019640Y022121D01*
X019640Y022240D02*
X019680Y022240D01*
X019680Y022358D02*
X019640Y022358D01*
X019640Y022477D02*
X019680Y022477D01*
X019680Y022595D02*
X019640Y022595D01*
X019436Y022595D02*
X018875Y022595D01*
X019030Y022477D02*
X019317Y022477D01*
X019199Y022358D02*
X019105Y022358D01*
X019150Y022240D02*
X019190Y022240D01*
X019190Y022121D02*
X019150Y022121D01*
X019127Y022003D02*
X019190Y022003D01*
X019265Y021884D02*
X019078Y021884D01*
X019936Y021766D02*
X021520Y021766D01*
X021520Y021884D02*
X020054Y021884D01*
X020130Y022003D02*
X021520Y022003D01*
X021520Y022121D02*
X020130Y022121D01*
X020130Y022240D02*
X021520Y022240D01*
X021520Y022358D02*
X020120Y022358D01*
X020002Y022477D02*
X021520Y022477D01*
X021520Y022595D02*
X019883Y022595D01*
X018444Y022595D02*
X015240Y022595D01*
X015121Y022477D02*
X015761Y022477D01*
X015642Y022358D02*
X015003Y022358D01*
X014884Y022240D02*
X015177Y022240D01*
X015059Y022121D02*
X014766Y022121D01*
X014647Y022003D02*
X014940Y022003D01*
X014822Y021884D02*
X014529Y021884D01*
X014410Y021766D02*
X014703Y021766D01*
X014585Y021647D02*
X014292Y021647D01*
X014173Y021529D02*
X014466Y021529D01*
X014348Y021410D02*
X014055Y021410D01*
X013936Y021292D02*
X014229Y021292D01*
X014127Y021173D02*
X013818Y021173D01*
X013699Y021055D02*
X014100Y021055D01*
X014100Y020936D02*
X013581Y020936D01*
X013462Y020818D02*
X014100Y020818D01*
X014100Y020699D02*
X013344Y020699D01*
X013225Y020581D02*
X014100Y020581D01*
X014100Y020462D02*
X013107Y020462D01*
X012988Y020344D02*
X014100Y020344D01*
X014620Y020936D02*
X020812Y020936D01*
X020709Y020818D02*
X019695Y020818D01*
X019760Y020554D02*
X019241Y020554D01*
X019760Y020554D02*
X019960Y020354D01*
X019960Y019054D01*
X020120Y018696D02*
X019756Y018696D01*
X019756Y018352D01*
X019694Y018290D01*
X019704Y018280D01*
X019725Y018244D01*
X019736Y018203D01*
X019736Y018058D01*
X019245Y018058D01*
X019245Y018050D01*
X019736Y018050D01*
X019736Y017905D01*
X019725Y017864D01*
X019704Y017828D01*
X019694Y017818D01*
X019756Y017757D01*
X019756Y017352D01*
X019694Y017290D01*
X019704Y017280D01*
X019725Y017244D01*
X019736Y017203D01*
X019736Y017058D01*
X019245Y017058D01*
X019245Y017050D01*
X019736Y017050D01*
X019736Y016905D01*
X019725Y016864D01*
X019704Y016828D01*
X019694Y016818D01*
X019756Y016757D01*
X019756Y016352D01*
X019709Y016304D01*
X019756Y016257D01*
X019756Y015852D01*
X019694Y015790D01*
X019704Y015780D01*
X019725Y015744D01*
X019736Y015703D01*
X019736Y015558D01*
X019245Y015558D01*
X019245Y015550D01*
X019245Y015058D01*
X019237Y015058D01*
X019237Y015342D01*
X019237Y015550D01*
X019245Y015550D01*
X019736Y015550D01*
X019736Y015405D01*
X019725Y015364D01*
X019704Y015328D01*
X019680Y015304D01*
X019704Y015280D01*
X019725Y015244D01*
X019736Y015203D01*
X019736Y015058D01*
X019245Y015058D01*
X019245Y015050D01*
X019736Y015050D01*
X019736Y014905D01*
X019725Y014864D01*
X019704Y014828D01*
X019694Y014818D01*
X019719Y014794D01*
X019787Y014794D01*
X020240Y015096D01*
X020107Y015096D01*
X020001Y015201D01*
X020001Y015707D01*
X020107Y015812D01*
X020120Y015812D01*
X020120Y018696D01*
X020120Y018685D02*
X019756Y018685D01*
X019756Y018566D02*
X020120Y018566D01*
X020120Y018448D02*
X019756Y018448D01*
X019734Y018329D02*
X020120Y018329D01*
X020120Y018211D02*
X019734Y018211D01*
X019736Y018092D02*
X020120Y018092D01*
X020120Y017974D02*
X019736Y017974D01*
X019720Y017855D02*
X020120Y017855D01*
X020120Y017737D02*
X019756Y017737D01*
X019756Y017618D02*
X020120Y017618D01*
X020120Y017500D02*
X019756Y017500D01*
X019756Y017381D02*
X020120Y017381D01*
X020120Y017263D02*
X019714Y017263D01*
X019736Y017144D02*
X020120Y017144D01*
X020120Y017026D02*
X019736Y017026D01*
X019736Y016907D02*
X020120Y016907D01*
X020120Y016789D02*
X019724Y016789D01*
X019756Y016670D02*
X020120Y016670D01*
X020120Y016552D02*
X019756Y016552D01*
X019756Y016433D02*
X020120Y016433D01*
X020120Y016315D02*
X019719Y016315D01*
X019756Y016196D02*
X020120Y016196D01*
X020120Y016078D02*
X019756Y016078D01*
X019756Y015959D02*
X020120Y015959D01*
X020120Y015841D02*
X019745Y015841D01*
X019731Y015722D02*
X020017Y015722D01*
X020001Y015604D02*
X019736Y015604D01*
X019736Y015485D02*
X020001Y015485D01*
X020001Y015367D02*
X019726Y015367D01*
X019723Y015248D02*
X020001Y015248D01*
X020073Y015130D02*
X019736Y015130D01*
X019736Y015011D02*
X020112Y015011D01*
X019935Y014893D02*
X019733Y014893D01*
X019860Y014554D02*
X019241Y014554D01*
X018260Y014554D01*
X017860Y014154D01*
X017860Y012254D01*
X016860Y012254D01*
X016860Y010936D01*
X017360Y010936D02*
X019060Y012636D01*
X019060Y013054D01*
X019418Y012997D02*
X020363Y012997D01*
X020481Y013115D02*
X019418Y013115D01*
X019418Y013234D02*
X020600Y013234D01*
X020718Y013352D02*
X019372Y013352D01*
X019418Y013307D02*
X019312Y013412D01*
X018807Y013412D01*
X018701Y013307D01*
X018701Y012801D01*
X018793Y012709D01*
X017535Y011451D01*
X017157Y011451D01*
X017110Y011403D01*
X017100Y011413D01*
X017100Y012014D01*
X017907Y012014D01*
X017995Y012051D01*
X018063Y012118D01*
X018100Y012206D01*
X018100Y014055D01*
X018359Y014314D01*
X018764Y014314D01*
X018774Y014304D01*
X018727Y014257D01*
X018727Y013852D01*
X018832Y013746D01*
X019651Y013746D01*
X019719Y013814D01*
X020001Y013814D01*
X020001Y013801D01*
X020107Y013696D01*
X020612Y013696D01*
X020718Y013801D01*
X020718Y014307D01*
X020612Y014412D01*
X020107Y014412D01*
X020001Y014307D01*
X020001Y014294D01*
X019719Y014294D01*
X019709Y014304D01*
X019719Y014314D01*
X019836Y014314D01*
X019859Y014309D01*
X019883Y014314D01*
X019907Y014314D01*
X019929Y014323D01*
X019953Y014328D01*
X019973Y014341D01*
X019995Y014351D01*
X020012Y014368D01*
X020873Y014941D01*
X020895Y014951D01*
X020912Y014968D01*
X020920Y014972D01*
X020920Y013553D01*
X020024Y012658D01*
X019956Y012590D01*
X019920Y012502D01*
X019920Y010178D01*
X019915Y010154D01*
X019920Y010131D01*
X019920Y010106D01*
X019929Y010084D01*
X019933Y010061D01*
X019947Y010041D01*
X019956Y010018D01*
X019973Y010001D01*
X020147Y009741D01*
X020156Y009718D01*
X020173Y009701D01*
X020186Y009681D01*
X020206Y009668D01*
X020224Y009651D01*
X020246Y009641D01*
X020266Y009628D01*
X020289Y009623D01*
X020312Y009614D01*
X020336Y009614D01*
X020359Y009609D01*
X020383Y009614D01*
X021101Y009614D01*
X021101Y009601D01*
X021207Y009496D01*
X021712Y009496D01*
X021800Y009583D01*
X021800Y009200D01*
X021859Y009140D01*
X021851Y009132D01*
X021830Y009096D01*
X021820Y009055D01*
X021820Y008978D01*
X021121Y008978D01*
X021016Y008872D01*
X021016Y007936D01*
X021121Y007830D01*
X021900Y007830D01*
X022006Y007936D01*
X022006Y008024D01*
X022843Y008024D01*
X023371Y007496D01*
X023371Y007307D01*
X023467Y007210D01*
X021391Y007210D01*
X020790Y007811D01*
X020790Y007830D01*
X020798Y007830D01*
X020903Y007936D01*
X020903Y008872D01*
X020798Y008978D01*
X020019Y008978D01*
X019913Y008872D01*
X019913Y008834D01*
X019104Y008834D01*
X018414Y009524D01*
X018329Y009608D01*
X018219Y009654D01*
X015160Y009654D01*
X015160Y010421D01*
X015562Y010421D01*
X015610Y010469D01*
X015657Y010421D01*
X016062Y010421D01*
X016124Y010483D01*
X016133Y010473D01*
X016170Y010452D01*
X016210Y010441D01*
X016356Y010441D01*
X016356Y010932D01*
X016363Y010932D01*
X016363Y010441D01*
X016509Y010441D01*
X016549Y010452D01*
X016586Y010473D01*
X016595Y010483D01*
X016657Y010421D01*
X017062Y010421D01*
X017110Y010469D01*
X017157Y010421D01*
X017562Y010421D01*
X017667Y010527D01*
X017667Y010904D01*
X019195Y012432D01*
X019263Y012500D01*
X019300Y012588D01*
X019300Y012696D01*
X019312Y012696D01*
X019418Y012801D01*
X019418Y013307D01*
X019418Y012878D02*
X020244Y012878D01*
X020126Y012760D02*
X019376Y012760D01*
X019300Y012641D02*
X020007Y012641D01*
X019928Y012523D02*
X019272Y012523D01*
X019167Y012404D02*
X019920Y012404D01*
X019920Y012286D02*
X019049Y012286D01*
X018930Y012167D02*
X019920Y012167D01*
X019920Y012049D02*
X018812Y012049D01*
X018693Y011930D02*
X019920Y011930D01*
X019920Y011812D02*
X018575Y011812D01*
X018456Y011693D02*
X019920Y011693D01*
X019920Y011575D02*
X018338Y011575D01*
X018219Y011456D02*
X019920Y011456D01*
X019920Y011338D02*
X018101Y011338D01*
X017982Y011219D02*
X019920Y011219D01*
X019920Y011101D02*
X017864Y011101D01*
X017745Y010982D02*
X019920Y010982D01*
X019920Y010864D02*
X017667Y010864D01*
X017667Y010745D02*
X019920Y010745D01*
X019920Y010627D02*
X017667Y010627D01*
X017649Y010508D02*
X019920Y010508D01*
X019920Y010390D02*
X015160Y010390D01*
X015160Y010271D02*
X019920Y010271D01*
X019915Y010153D02*
X015160Y010153D01*
X015160Y010034D02*
X019949Y010034D01*
X020030Y009916D02*
X015160Y009916D01*
X015160Y009797D02*
X020109Y009797D01*
X020190Y009679D02*
X015160Y009679D01*
X015160Y009054D02*
X018035Y009054D01*
X018680Y008410D01*
X018680Y008378D01*
X018701Y008326D01*
X018701Y008201D01*
X018807Y008096D01*
X018931Y008096D01*
X018984Y008074D01*
X019100Y008074D01*
X019100Y007914D01*
X018988Y007914D01*
X018819Y007844D01*
X018690Y007715D01*
X018620Y007546D01*
X017667Y007546D01*
X017667Y007581D02*
X017600Y007649D01*
X017600Y008702D01*
X017563Y008790D01*
X017495Y008858D01*
X017407Y008894D01*
X016018Y008894D01*
X016018Y008907D01*
X015912Y009012D01*
X015407Y009012D01*
X015301Y008907D01*
X015301Y008401D01*
X015407Y008296D01*
X015912Y008296D01*
X016018Y008401D01*
X016018Y008414D01*
X017120Y008414D01*
X017120Y007649D01*
X017110Y007639D01*
X017062Y007687D01*
X016657Y007687D01*
X016595Y007625D01*
X016586Y007635D01*
X016549Y007656D01*
X016509Y007667D01*
X016363Y007667D01*
X016363Y007176D01*
X016356Y007176D01*
X016356Y007667D01*
X016210Y007667D01*
X016170Y007656D01*
X016133Y007635D01*
X016124Y007625D01*
X016062Y007687D01*
X015657Y007687D01*
X015610Y007639D01*
X015562Y007687D01*
X015160Y007687D01*
X015160Y009054D01*
X015160Y008968D02*
X015362Y008968D01*
X015301Y008849D02*
X015160Y008849D01*
X015160Y008731D02*
X015301Y008731D01*
X015301Y008612D02*
X015160Y008612D01*
X015160Y008494D02*
X015301Y008494D01*
X015328Y008375D02*
X015160Y008375D01*
X015160Y008257D02*
X017120Y008257D01*
X017120Y008375D02*
X015991Y008375D01*
X015660Y008654D02*
X017360Y008654D01*
X017360Y007172D01*
X017667Y007190D02*
X018693Y007190D01*
X018690Y007193D02*
X018819Y007064D01*
X018988Y006994D01*
X019731Y006994D01*
X019900Y007064D01*
X020029Y007193D01*
X020100Y007363D01*
X020100Y007427D01*
X020194Y007332D01*
X021018Y006508D01*
X021158Y006450D01*
X023902Y006450D01*
X023910Y006453D01*
X024177Y006453D01*
X024282Y006559D01*
X024282Y006888D01*
X024342Y006827D01*
X025043Y006827D01*
X025120Y006904D01*
X025257Y006904D01*
X025325Y006836D01*
X025325Y006672D01*
X025248Y006595D01*
X025248Y006013D01*
X025317Y005944D01*
X025157Y005944D01*
X025120Y005907D01*
X025120Y006006D01*
X025080Y006101D01*
X025007Y006174D01*
X024807Y006374D01*
X024711Y006414D01*
X024608Y006414D01*
X020100Y006414D01*
X020100Y006546D01*
X020029Y006715D01*
X019900Y006844D01*
X019731Y006914D01*
X018988Y006914D01*
X018819Y006844D01*
X018690Y006715D01*
X018620Y006546D01*
X018620Y006363D01*
X018690Y006193D01*
X018819Y006064D01*
X018988Y005994D01*
X019452Y005994D01*
X019512Y005934D01*
X019608Y005894D01*
X021078Y005894D01*
X020850Y005665D01*
X020850Y005243D01*
X021080Y005012D01*
X020657Y005012D01*
X020559Y004914D01*
X017120Y004914D01*
X017120Y006695D01*
X017157Y006658D01*
X017562Y006658D01*
X017667Y006763D01*
X017667Y007581D01*
X017600Y007664D02*
X018669Y007664D01*
X018620Y007546D02*
X018620Y007363D01*
X018690Y007193D01*
X018642Y007309D02*
X017667Y007309D01*
X017667Y007427D02*
X018620Y007427D01*
X018757Y007783D02*
X017600Y007783D01*
X017600Y007901D02*
X018957Y007901D01*
X019100Y008020D02*
X017600Y008020D01*
X017600Y008138D02*
X018765Y008138D01*
X018701Y008257D02*
X017600Y008257D01*
X017600Y008375D02*
X018681Y008375D01*
X018596Y008494D02*
X017600Y008494D01*
X017600Y008612D02*
X018477Y008612D01*
X018359Y008731D02*
X017588Y008731D01*
X017504Y008849D02*
X018240Y008849D01*
X018122Y008968D02*
X015957Y008968D01*
X016360Y008054D02*
X016360Y007172D01*
X016363Y007168D02*
X016363Y006678D01*
X016509Y006678D01*
X016549Y006688D01*
X016586Y006710D01*
X016595Y006719D01*
X016600Y006715D01*
X016600Y005038D01*
X015958Y005295D01*
X015911Y005314D01*
X015910Y005314D01*
X015908Y005315D01*
X015858Y005314D01*
X011620Y005314D01*
X011620Y005903D01*
X011718Y006001D01*
X011718Y006507D01*
X011620Y006605D01*
X011620Y006695D01*
X011657Y006658D01*
X012062Y006658D01*
X012110Y006705D01*
X012157Y006658D01*
X012562Y006658D01*
X012610Y006705D01*
X012657Y006658D01*
X013062Y006658D01*
X013110Y006705D01*
X013157Y006658D01*
X013560Y006658D01*
X013560Y006594D01*
X013605Y006484D01*
X013905Y006184D01*
X013990Y006100D01*
X014100Y006054D01*
X014619Y006054D01*
X014729Y006100D01*
X015029Y006400D01*
X015114Y006484D01*
X015160Y006594D01*
X015160Y006658D01*
X015562Y006658D01*
X015610Y006705D01*
X015657Y006658D01*
X016062Y006658D01*
X016124Y006719D01*
X016133Y006710D01*
X016170Y006688D01*
X016210Y006678D01*
X016356Y006678D01*
X016356Y007168D01*
X016363Y007168D01*
X016363Y007190D02*
X016356Y007190D01*
X016356Y007072D02*
X016363Y007072D01*
X016356Y006953D02*
X016363Y006953D01*
X016356Y006835D02*
X016363Y006835D01*
X016356Y006716D02*
X016363Y006716D01*
X016592Y006716D02*
X016598Y006716D01*
X016600Y006598D02*
X015160Y006598D01*
X015109Y006479D02*
X016600Y006479D01*
X016600Y006361D02*
X014990Y006361D01*
X014872Y006242D02*
X016600Y006242D01*
X016600Y006124D02*
X014753Y006124D01*
X013966Y006124D02*
X011718Y006124D01*
X011718Y006242D02*
X013847Y006242D01*
X013729Y006361D02*
X011718Y006361D01*
X011718Y006479D02*
X013610Y006479D01*
X013560Y006598D02*
X011627Y006598D01*
X011092Y006598D02*
X009868Y006598D01*
X009868Y006716D02*
X010627Y006716D01*
X010633Y006710D02*
X010670Y006688D01*
X010710Y006678D01*
X010856Y006678D01*
X010856Y007168D01*
X010572Y007168D01*
X010572Y006816D01*
X010582Y006776D01*
X010604Y006739D01*
X010633Y006710D01*
X010572Y006835D02*
X009868Y006835D01*
X009868Y006953D02*
X010572Y006953D01*
X010572Y007072D02*
X009901Y007072D01*
X010020Y007190D02*
X010572Y007190D01*
X010572Y007309D02*
X010138Y007309D01*
X010257Y007427D02*
X010572Y007427D01*
X010576Y007546D02*
X010375Y007546D01*
X010494Y007664D02*
X010700Y007664D01*
X010856Y007664D02*
X010863Y007664D01*
X010856Y007546D02*
X010863Y007546D01*
X010856Y007427D02*
X010863Y007427D01*
X010856Y007309D02*
X010863Y007309D01*
X010856Y007190D02*
X010863Y007190D01*
X010856Y007072D02*
X010863Y007072D01*
X010856Y006953D02*
X010863Y006953D01*
X010856Y006835D02*
X010863Y006835D01*
X010856Y006716D02*
X010863Y006716D01*
X011092Y006716D02*
X011098Y006716D01*
X011001Y006479D02*
X009868Y006479D01*
X009868Y006361D02*
X011001Y006361D01*
X011001Y006242D02*
X009868Y006242D01*
X009868Y006124D02*
X011001Y006124D01*
X011001Y006005D02*
X009868Y006005D01*
X009868Y005887D02*
X011100Y005887D01*
X011100Y005768D02*
X009868Y005768D01*
X009868Y005650D02*
X011100Y005650D01*
X011100Y005531D02*
X009868Y005531D01*
X009868Y005413D02*
X011100Y005413D01*
X011100Y005294D02*
X009868Y005294D01*
X009868Y005176D02*
X011100Y005176D01*
X011100Y005057D02*
X009868Y005057D01*
X009868Y004939D02*
X011126Y004939D01*
X011245Y004820D02*
X009868Y004820D01*
X009868Y004702D02*
X016041Y004702D01*
X016337Y004583D02*
X009868Y004583D01*
X009868Y004465D02*
X016633Y004465D01*
X016600Y005057D02*
X016552Y005057D01*
X016600Y005176D02*
X016256Y005176D01*
X015960Y005294D02*
X016600Y005294D01*
X016600Y005413D02*
X011620Y005413D01*
X011620Y005531D02*
X016600Y005531D01*
X016600Y005650D02*
X011620Y005650D01*
X011620Y005768D02*
X016600Y005768D01*
X016600Y005887D02*
X011620Y005887D01*
X011718Y006005D02*
X016600Y006005D01*
X017120Y006005D02*
X018961Y006005D01*
X018759Y006124D02*
X017120Y006124D01*
X017120Y006242D02*
X018669Y006242D01*
X018620Y006361D02*
X017120Y006361D01*
X017120Y006479D02*
X018620Y006479D01*
X018641Y006598D02*
X017120Y006598D01*
X017621Y006716D02*
X018691Y006716D01*
X018809Y006835D02*
X017667Y006835D01*
X017667Y006953D02*
X020573Y006953D01*
X020455Y007072D02*
X019908Y007072D01*
X020026Y007190D02*
X020336Y007190D01*
X020218Y007309D02*
X020077Y007309D01*
X019910Y006835D02*
X020692Y006835D01*
X020810Y006716D02*
X020028Y006716D01*
X020078Y006598D02*
X020929Y006598D01*
X021088Y006479D02*
X020100Y006479D01*
X020952Y005768D02*
X017120Y005768D01*
X017120Y005650D02*
X020850Y005650D01*
X020850Y005531D02*
X017120Y005531D01*
X017120Y005413D02*
X020850Y005413D01*
X020850Y005294D02*
X017120Y005294D01*
X017120Y005176D02*
X020917Y005176D01*
X021035Y005057D02*
X017120Y005057D01*
X017120Y004939D02*
X020583Y004939D01*
X021071Y005887D02*
X017120Y005887D01*
X016127Y006716D02*
X016121Y006716D01*
X016356Y007309D02*
X016363Y007309D01*
X016356Y007427D02*
X016363Y007427D01*
X016356Y007546D02*
X016363Y007546D01*
X016356Y007664D02*
X016363Y007664D01*
X016519Y007664D02*
X016634Y007664D01*
X016200Y007664D02*
X016085Y007664D01*
X015634Y007664D02*
X015585Y007664D01*
X015160Y007783D02*
X017120Y007783D01*
X017120Y007901D02*
X015160Y007901D01*
X015160Y008020D02*
X017120Y008020D01*
X017120Y008138D02*
X015160Y008138D01*
X017085Y007664D02*
X017120Y007664D01*
X017667Y007072D02*
X018811Y007072D01*
X020818Y007783D02*
X023085Y007783D01*
X023203Y007664D02*
X020937Y007664D01*
X021055Y007546D02*
X023322Y007546D01*
X023371Y007427D02*
X021174Y007427D01*
X021292Y007309D02*
X023371Y007309D01*
X022966Y007901D02*
X021971Y007901D01*
X022006Y008020D02*
X022848Y008020D01*
X023330Y008612D02*
X024801Y008612D01*
X024801Y008601D02*
X024907Y008496D01*
X025178Y008496D01*
X025406Y008268D01*
X025474Y008201D01*
X025562Y008164D01*
X025795Y008164D01*
X025865Y008094D01*
X026814Y008094D01*
X026920Y008200D01*
X026920Y008609D01*
X026860Y008668D01*
X026868Y008676D01*
X026889Y008712D01*
X026900Y008753D01*
X026900Y008899D01*
X026345Y008899D01*
X026345Y008909D01*
X026900Y008909D01*
X026900Y009055D01*
X026889Y009096D01*
X026868Y009132D01*
X026860Y009140D01*
X026920Y009200D01*
X026920Y009609D01*
X026860Y009668D01*
X026868Y009676D01*
X026889Y009712D01*
X026900Y009753D01*
X026900Y009899D01*
X026345Y009899D01*
X026345Y009909D01*
X026900Y009909D01*
X026900Y010055D01*
X026889Y010096D01*
X026868Y010132D01*
X026846Y010154D01*
X026868Y010176D01*
X026889Y010212D01*
X026900Y010253D01*
X026900Y010399D01*
X026345Y010399D01*
X026345Y010409D01*
X026900Y010409D01*
X026900Y010555D01*
X026889Y010596D01*
X026868Y010632D01*
X026846Y010654D01*
X026868Y010676D01*
X026889Y010712D01*
X026900Y010753D01*
X026900Y010899D01*
X026345Y010899D01*
X026345Y010909D01*
X026900Y010909D01*
X026900Y011055D01*
X026889Y011096D01*
X026868Y011132D01*
X026846Y011154D01*
X026868Y011176D01*
X026889Y011212D01*
X026900Y011253D01*
X026900Y011399D01*
X026345Y011399D01*
X026345Y011409D01*
X026900Y011409D01*
X026900Y011524D01*
X027718Y011524D01*
X027848Y011394D01*
X028271Y011394D01*
X028294Y011417D01*
X029184Y010527D01*
X029184Y010258D01*
X029188Y010254D01*
X028730Y010254D01*
X028730Y010324D01*
X028625Y010429D01*
X027964Y010429D01*
X027935Y010400D01*
X027902Y010409D01*
X027685Y010409D01*
X027685Y010014D01*
X027565Y010014D01*
X027565Y010409D01*
X027348Y010409D01*
X027307Y010398D01*
X027271Y010377D01*
X027241Y010348D01*
X027220Y010311D01*
X027209Y010270D01*
X027209Y010014D01*
X027565Y010014D01*
X027565Y009894D01*
X027685Y009894D01*
X027685Y009499D01*
X027902Y009499D01*
X027935Y009508D01*
X027964Y009479D01*
X027994Y009479D01*
X027994Y009379D01*
X027964Y009379D01*
X027935Y009350D01*
X027902Y009359D01*
X027685Y009359D01*
X027685Y008964D01*
X027565Y008964D01*
X027565Y009359D01*
X027348Y009359D01*
X027307Y009348D01*
X027271Y009327D01*
X027241Y009298D01*
X027220Y009261D01*
X027209Y009220D01*
X027209Y008964D01*
X027565Y008964D01*
X027565Y008844D01*
X027685Y008844D01*
X027685Y008449D01*
X027902Y008449D01*
X027935Y008458D01*
X027964Y008429D01*
X027979Y008429D01*
X027979Y007676D01*
X027973Y007682D01*
X027936Y007703D01*
X027896Y007714D01*
X027620Y007714D01*
X027620Y007358D01*
X027500Y007358D01*
X027500Y007714D01*
X027223Y007714D01*
X027183Y007703D01*
X027146Y007682D01*
X027117Y007652D01*
X027095Y007615D01*
X027085Y007575D01*
X027085Y007358D01*
X027500Y007358D01*
X027500Y007238D01*
X027085Y007238D01*
X027085Y007021D01*
X027095Y006980D01*
X027117Y006944D01*
X027142Y006918D01*
X027065Y006841D01*
X027065Y006810D01*
X026441Y006810D01*
X026331Y006765D01*
X026266Y006701D01*
X026023Y006701D01*
X025960Y006637D01*
X025925Y006672D01*
X025925Y006836D01*
X025974Y006885D01*
X025999Y006860D01*
X026036Y006838D01*
X026076Y006828D01*
X026256Y006828D01*
X026256Y007166D01*
X026333Y007166D01*
X026333Y007242D01*
X026651Y007242D01*
X026651Y007442D01*
X026640Y007482D01*
X026619Y007519D01*
X026589Y007549D01*
X026553Y007570D01*
X026512Y007581D01*
X026333Y007581D01*
X026333Y007243D01*
X026256Y007243D01*
X026256Y007581D01*
X026076Y007581D01*
X026036Y007570D01*
X025999Y007549D01*
X025974Y007523D01*
X025896Y007601D01*
X025353Y007601D01*
X025257Y007504D01*
X025120Y007504D01*
X025043Y007581D01*
X024342Y007581D01*
X024282Y007521D01*
X024282Y007849D01*
X024177Y007955D01*
X023987Y007955D01*
X023216Y008726D01*
X023076Y008784D01*
X022940Y008784D01*
X022940Y008899D01*
X022385Y008899D01*
X022385Y008909D01*
X022940Y008909D01*
X022940Y009055D01*
X022929Y009096D01*
X022908Y009132D01*
X022900Y009140D01*
X022960Y009200D01*
X022960Y009609D01*
X022900Y009668D01*
X022908Y009676D01*
X022929Y009712D01*
X022940Y009753D01*
X022940Y009899D01*
X022385Y009899D01*
X022385Y009909D01*
X022940Y009909D01*
X022940Y010055D01*
X022929Y010096D01*
X022908Y010132D01*
X022886Y010154D01*
X022908Y010176D01*
X022929Y010212D01*
X022940Y010253D01*
X022940Y010399D01*
X022385Y010399D01*
X022385Y010409D01*
X022940Y010409D01*
X022940Y010555D01*
X022929Y010596D01*
X022908Y010632D01*
X022886Y010654D01*
X022908Y010676D01*
X022929Y010712D01*
X022940Y010753D01*
X022940Y010899D01*
X022385Y010899D01*
X022385Y010909D01*
X022940Y010909D01*
X022940Y011055D01*
X022929Y011096D01*
X022908Y011132D01*
X022886Y011154D01*
X022908Y011176D01*
X022929Y011212D01*
X022940Y011253D01*
X022940Y011399D01*
X022385Y011399D01*
X022385Y011409D01*
X022940Y011409D01*
X022940Y011555D01*
X022929Y011596D01*
X022908Y011632D01*
X022900Y011640D01*
X022960Y011700D01*
X022960Y012109D01*
X022914Y012154D01*
X022924Y012164D01*
X023057Y012164D01*
X023145Y012201D01*
X023295Y012351D01*
X023363Y012418D01*
X023400Y012506D01*
X023400Y012937D01*
X023404Y012967D01*
X023400Y012984D01*
X023400Y013002D01*
X023388Y013030D01*
X023380Y013060D01*
X023370Y013074D01*
X023363Y013090D01*
X023341Y013112D01*
X022200Y014634D01*
X022200Y019763D01*
X023635Y021390D01*
X023663Y021418D01*
X023666Y021425D01*
X023671Y021431D01*
X023684Y021469D01*
X023700Y021506D01*
X023700Y021514D01*
X023702Y021521D01*
X023700Y021562D01*
X023700Y022955D01*
X024059Y023314D01*
X029707Y023314D01*
X029795Y023351D01*
X030389Y023944D01*
X030510Y023944D01*
X029824Y023258D01*
X029756Y023190D01*
X029720Y023102D01*
X029720Y021623D01*
X027470Y018004D01*
X027456Y017990D01*
X027445Y017964D01*
X027430Y017940D01*
X027427Y017920D01*
X027420Y017902D01*
X027420Y017874D01*
X027415Y017846D01*
X027420Y017826D01*
X027420Y013633D01*
X026920Y012957D01*
X026920Y013109D01*
X026814Y013214D01*
X026560Y013214D01*
X026560Y013854D01*
X026679Y013974D01*
X026755Y014156D01*
X026755Y014353D01*
X026679Y014534D01*
X026540Y014674D01*
X026358Y014749D01*
X026161Y014749D01*
X025979Y014674D01*
X025840Y014534D01*
X025765Y014353D01*
X025765Y014156D01*
X025840Y013974D01*
X025960Y013854D01*
X025960Y013214D01*
X025865Y013214D01*
X025855Y013204D01*
X025634Y013204D01*
X025278Y013560D01*
X024770Y014132D01*
X024770Y014465D01*
X024471Y014764D01*
X024048Y014764D01*
X023750Y014465D01*
X023750Y014043D01*
X024048Y013744D01*
X024311Y013744D01*
X024802Y013193D01*
X024805Y013184D01*
X024841Y013148D01*
X024875Y013110D01*
X024883Y013106D01*
X025340Y012650D01*
X025450Y012604D01*
X025760Y012604D01*
X025760Y012200D01*
X025805Y012154D01*
X025760Y012109D01*
X025760Y011700D01*
X025819Y011640D01*
X025811Y011632D01*
X025790Y011596D01*
X025780Y011555D01*
X025780Y011409D01*
X026335Y011409D01*
X026335Y011399D01*
X026345Y011399D01*
X026345Y011114D01*
X026345Y010909D01*
X026335Y010909D01*
X026335Y011399D01*
X025780Y011399D01*
X025780Y011253D01*
X025790Y011212D01*
X025811Y011176D01*
X025833Y011154D01*
X025811Y011132D01*
X025790Y011096D01*
X025780Y011055D01*
X025780Y010909D01*
X026335Y010909D01*
X026335Y010899D01*
X026345Y010899D01*
X026345Y010614D01*
X026345Y010409D01*
X026335Y010409D01*
X026335Y010899D01*
X025780Y010899D01*
X025780Y010753D01*
X025790Y010712D01*
X025811Y010676D01*
X025833Y010654D01*
X025811Y010632D01*
X025790Y010596D01*
X025780Y010555D01*
X025780Y010409D01*
X026335Y010409D01*
X026335Y010399D01*
X026345Y010399D01*
X026345Y010114D01*
X026345Y009909D01*
X026335Y009909D01*
X026335Y010399D01*
X025780Y010399D01*
X025780Y010253D01*
X025790Y010212D01*
X025811Y010176D01*
X025833Y010154D01*
X025811Y010132D01*
X025790Y010096D01*
X025780Y010055D01*
X025780Y009909D01*
X026335Y009909D01*
X026335Y009899D01*
X025780Y009899D01*
X025780Y009753D01*
X025790Y009712D01*
X025811Y009676D01*
X025819Y009668D01*
X025760Y009609D01*
X025760Y009200D01*
X025819Y009140D01*
X025811Y009132D01*
X025790Y009096D01*
X025780Y009055D01*
X025780Y008909D01*
X026335Y008909D01*
X026335Y008899D01*
X025780Y008899D01*
X025780Y008753D01*
X025790Y008712D01*
X025811Y008676D01*
X025819Y008668D01*
X025795Y008644D01*
X025709Y008644D01*
X025518Y008835D01*
X025518Y009107D01*
X025412Y009212D01*
X024907Y009212D01*
X024801Y009107D01*
X024801Y008601D01*
X024801Y008731D02*
X023205Y008731D01*
X022940Y008849D02*
X024801Y008849D01*
X024801Y008968D02*
X022940Y008968D01*
X022931Y009086D02*
X024801Y009086D01*
X024899Y009205D02*
X022960Y009205D01*
X022960Y009323D02*
X025760Y009323D01*
X025760Y009205D02*
X025420Y009205D01*
X025518Y009086D02*
X025788Y009086D01*
X025780Y008968D02*
X025518Y008968D01*
X025518Y008849D02*
X025780Y008849D01*
X025786Y008731D02*
X025622Y008731D01*
X025610Y008404D02*
X025160Y008854D01*
X025181Y008494D02*
X023448Y008494D01*
X023567Y008375D02*
X025299Y008375D01*
X025418Y008257D02*
X023685Y008257D01*
X023804Y008138D02*
X025821Y008138D01*
X025610Y008404D02*
X026340Y008404D01*
X026920Y008375D02*
X027979Y008375D01*
X027979Y008257D02*
X026920Y008257D01*
X026858Y008138D02*
X027979Y008138D01*
X027979Y008020D02*
X023922Y008020D01*
X024230Y007901D02*
X027979Y007901D01*
X027979Y007783D02*
X024282Y007783D01*
X024282Y007664D02*
X027129Y007664D01*
X027085Y007546D02*
X026592Y007546D01*
X026651Y007427D02*
X027085Y007427D01*
X027085Y007190D02*
X026333Y007190D01*
X026333Y007166D02*
X026651Y007166D01*
X026651Y006966D01*
X026640Y006926D01*
X026619Y006889D01*
X026589Y006860D01*
X026553Y006838D01*
X026512Y006828D01*
X026333Y006828D01*
X026333Y007166D01*
X026333Y007072D02*
X026256Y007072D01*
X026256Y006953D02*
X026333Y006953D01*
X026333Y006835D02*
X026256Y006835D01*
X026282Y006716D02*
X025925Y006716D01*
X025925Y006835D02*
X026050Y006835D01*
X026538Y006835D02*
X027065Y006835D01*
X027111Y006953D02*
X026647Y006953D01*
X026651Y007072D02*
X027085Y007072D01*
X027500Y007309D02*
X026651Y007309D01*
X026333Y007309D02*
X026256Y007309D01*
X026256Y007427D02*
X026333Y007427D01*
X026333Y007546D02*
X026256Y007546D01*
X025996Y007546D02*
X025951Y007546D01*
X025298Y007546D02*
X025078Y007546D01*
X024307Y007546D02*
X024282Y007546D01*
X024282Y006835D02*
X024335Y006835D01*
X024282Y006716D02*
X025325Y006716D01*
X025325Y006835D02*
X025050Y006835D01*
X025250Y006598D02*
X024282Y006598D01*
X024202Y006479D02*
X025248Y006479D01*
X025248Y006361D02*
X024821Y006361D01*
X024939Y006242D02*
X025248Y006242D01*
X025248Y006124D02*
X025058Y006124D01*
X025120Y006005D02*
X025256Y006005D01*
X025599Y005908D02*
X025896Y005908D01*
X025960Y005971D01*
X026023Y005908D01*
X026092Y005908D01*
X025850Y005665D01*
X025850Y005312D01*
X025850Y005312D01*
X025850Y005416D01*
X025398Y005416D01*
X025398Y005492D01*
X025850Y005492D01*
X025850Y005657D01*
X025599Y005908D01*
X025620Y005887D02*
X026071Y005887D01*
X025952Y005768D02*
X025738Y005768D01*
X025850Y005650D02*
X025850Y005650D01*
X025850Y005531D02*
X025850Y005531D01*
X025850Y005413D02*
X025850Y005413D01*
X026212Y004939D02*
X027300Y004939D01*
X027300Y005057D02*
X026684Y005057D01*
X026802Y005176D02*
X027300Y005176D01*
X027300Y005294D02*
X026870Y005294D01*
X026870Y005413D02*
X027300Y005413D01*
X027300Y005531D02*
X026870Y005531D01*
X026870Y005650D02*
X027300Y005650D01*
X027300Y005768D02*
X026767Y005768D01*
X026648Y005887D02*
X027300Y005887D01*
X027300Y006005D02*
X026663Y006005D01*
X026671Y006124D02*
X027121Y006124D01*
X028579Y006124D02*
X034774Y006124D01*
X034656Y006005D02*
X028579Y006005D01*
X028648Y005887D02*
X029071Y005887D01*
X028952Y005768D02*
X028767Y005768D01*
X028579Y006242D02*
X034893Y006242D01*
X035011Y006361D02*
X028579Y006361D01*
X028579Y006479D02*
X035130Y006479D01*
X035154Y006503D02*
X034180Y005529D01*
X034180Y000934D01*
X028731Y000934D01*
X030260Y002463D01*
X030305Y002444D01*
X030548Y002444D01*
X030772Y002537D01*
X030944Y002709D01*
X031036Y002933D01*
X031036Y003175D01*
X030944Y003400D01*
X030772Y003571D01*
X030548Y003664D01*
X030305Y003664D01*
X030081Y003571D01*
X029909Y003400D01*
X029816Y003175D01*
X029816Y002933D01*
X029835Y002887D01*
X028302Y001354D01*
X027773Y001354D01*
X028882Y002463D01*
X028927Y002444D01*
X029170Y002444D01*
X029394Y002537D01*
X029566Y002709D01*
X029658Y002933D01*
X029658Y003175D01*
X029566Y003400D01*
X029394Y003571D01*
X029170Y003664D01*
X028927Y003664D01*
X028703Y003571D01*
X028531Y003400D01*
X028438Y003175D01*
X028438Y002933D01*
X028457Y002887D01*
X027424Y001854D01*
X026895Y001854D01*
X027504Y002463D01*
X027549Y002444D01*
X027792Y002444D01*
X028016Y002537D01*
X028188Y002709D01*
X028281Y002933D01*
X028281Y003175D01*
X028188Y003400D01*
X028016Y003571D01*
X027792Y003664D01*
X027549Y003664D01*
X027325Y003571D01*
X027153Y003400D01*
X027061Y003175D01*
X027061Y002933D01*
X027079Y002887D01*
X026546Y002354D01*
X018484Y002354D01*
X018084Y002754D01*
X018158Y002933D01*
X018158Y003175D01*
X018066Y003400D01*
X017894Y003571D01*
X017670Y003664D01*
X017427Y003664D01*
X017203Y003571D01*
X017031Y003400D01*
X016938Y003175D01*
X016938Y002933D01*
X017031Y002709D01*
X017203Y002537D01*
X017427Y002444D01*
X017545Y002444D01*
X018105Y001884D01*
X018135Y001854D01*
X017484Y001854D01*
X016658Y002679D01*
X016688Y002709D01*
X016781Y002933D01*
X016781Y003175D01*
X016688Y003400D01*
X016516Y003571D01*
X016292Y003664D01*
X016049Y003664D01*
X015825Y003571D01*
X015653Y003400D01*
X015561Y003175D01*
X015561Y002933D01*
X015653Y002709D01*
X015825Y002537D01*
X016042Y002447D01*
X017105Y001384D01*
X017135Y001354D01*
X016484Y001354D01*
X015220Y002618D01*
X015310Y002709D01*
X015403Y002933D01*
X015403Y003175D01*
X015310Y003400D01*
X015138Y003571D01*
X014914Y003664D01*
X014671Y003664D01*
X014447Y003571D01*
X014275Y003400D01*
X014183Y003175D01*
X014183Y002933D01*
X014275Y002709D01*
X014447Y002537D01*
X014514Y002509D01*
X014538Y002451D01*
X016055Y000934D01*
X007540Y000934D01*
X007540Y019243D01*
X007565Y019269D01*
X007565Y029370D01*
X033550Y029370D01*
X033550Y025409D01*
X033655Y025304D01*
X034180Y024780D01*
X034180Y020280D01*
X034285Y020174D01*
X035154Y019305D01*
X035154Y019269D01*
X035180Y019243D01*
X035180Y006565D01*
X035154Y006539D01*
X035154Y006503D01*
X035180Y006598D02*
X028579Y006598D01*
X028579Y006716D02*
X035180Y006716D01*
X035180Y006835D02*
X028579Y006835D01*
X028579Y006953D02*
X035180Y006953D01*
X035180Y007072D02*
X028579Y007072D01*
X028579Y007190D02*
X035180Y007190D01*
X035180Y007309D02*
X028579Y007309D01*
X028579Y007427D02*
X035180Y007427D01*
X035180Y007546D02*
X028579Y007546D01*
X028579Y007664D02*
X029259Y007664D01*
X029184Y007783D02*
X028579Y007783D01*
X028579Y007901D02*
X029184Y007901D01*
X029184Y008020D02*
X028579Y008020D01*
X028579Y008138D02*
X029184Y008138D01*
X029184Y008257D02*
X028579Y008257D01*
X028579Y008375D02*
X029184Y008375D01*
X029201Y009086D02*
X028730Y009086D01*
X028730Y009205D02*
X035180Y009205D01*
X035180Y009323D02*
X034151Y009323D01*
X034301Y009442D02*
X035180Y009442D01*
X035180Y009560D02*
X034394Y009560D01*
X034443Y009679D02*
X035180Y009679D01*
X035180Y009797D02*
X034470Y009797D01*
X034470Y009916D02*
X035180Y009916D01*
X035180Y010034D02*
X034449Y010034D01*
X034400Y010153D02*
X035180Y010153D01*
X035180Y010271D02*
X034314Y010271D01*
X034182Y010390D02*
X035180Y010390D01*
X035180Y010508D02*
X031628Y010508D01*
X031700Y010390D02*
X033537Y010390D01*
X033405Y010271D02*
X031780Y010271D01*
X031509Y010627D02*
X035180Y010627D01*
X035180Y010745D02*
X031306Y010745D01*
X031187Y010864D02*
X035180Y010864D01*
X035180Y010982D02*
X030072Y010982D01*
X029685Y011101D02*
X035180Y011101D01*
X035180Y011219D02*
X029567Y011219D01*
X029448Y011338D02*
X035180Y011338D01*
X035180Y011456D02*
X029330Y011456D01*
X029211Y011575D02*
X035180Y011575D01*
X035180Y011693D02*
X029093Y011693D01*
X028974Y011812D02*
X035180Y011812D01*
X035180Y011930D02*
X028856Y011930D01*
X028737Y012049D02*
X035180Y012049D01*
X035180Y012167D02*
X028619Y012167D01*
X028399Y012286D02*
X035180Y012286D01*
X035180Y012404D02*
X028281Y012404D01*
X028262Y012414D02*
X028550Y012701D01*
X028550Y012884D01*
X028080Y012884D01*
X028080Y012924D01*
X028550Y012924D01*
X028550Y013107D01*
X028262Y013394D01*
X028080Y013394D01*
X028080Y012924D01*
X028040Y012924D01*
X028040Y012884D01*
X028080Y012884D01*
X028080Y012414D01*
X028262Y012414D01*
X028371Y012523D02*
X035180Y012523D01*
X035180Y012641D02*
X028490Y012641D01*
X028550Y012760D02*
X035180Y012760D01*
X035180Y012878D02*
X028550Y012878D01*
X028550Y012997D02*
X035180Y012997D01*
X035180Y013115D02*
X028541Y013115D01*
X028423Y013234D02*
X035180Y013234D01*
X035180Y013352D02*
X028304Y013352D01*
X028080Y013352D02*
X028040Y013352D01*
X028040Y013234D02*
X028080Y013234D01*
X028080Y013115D02*
X028040Y013115D01*
X028040Y012997D02*
X028080Y012997D01*
X028080Y012878D02*
X028040Y012878D01*
X028040Y012884D02*
X028040Y012414D01*
X027857Y012414D01*
X027570Y012701D01*
X027570Y012884D01*
X028040Y012884D01*
X028040Y012760D02*
X028080Y012760D01*
X028080Y012641D02*
X028040Y012641D01*
X028040Y012523D02*
X028080Y012523D01*
X027838Y012404D02*
X027108Y012404D01*
X027020Y012286D02*
X027720Y012286D01*
X027748Y012523D02*
X027196Y012523D01*
X027283Y012641D02*
X027630Y012641D01*
X027570Y012760D02*
X027371Y012760D01*
X027458Y012878D02*
X027570Y012878D01*
X027570Y012997D02*
X027546Y012997D01*
X027809Y013352D02*
X027815Y013352D01*
X027886Y013471D02*
X035180Y013471D01*
X035180Y013589D02*
X027900Y013589D01*
X027900Y013708D02*
X035180Y013708D01*
X035180Y013826D02*
X027900Y013826D01*
X027900Y013945D02*
X035180Y013945D01*
X035180Y014063D02*
X027900Y014063D01*
X027900Y014182D02*
X035180Y014182D01*
X035180Y014300D02*
X027900Y014300D01*
X027900Y014419D02*
X035180Y014419D01*
X035180Y014537D02*
X027900Y014537D01*
X027900Y014656D02*
X035180Y014656D01*
X035180Y014774D02*
X027900Y014774D01*
X027900Y014893D02*
X035180Y014893D01*
X035180Y015011D02*
X027900Y015011D01*
X027900Y015130D02*
X035180Y015130D01*
X035180Y015248D02*
X027900Y015248D01*
X027900Y015367D02*
X033577Y015367D01*
X033550Y015380D02*
X033633Y015338D01*
X033721Y015309D01*
X033813Y015295D01*
X033821Y015295D01*
X033821Y015846D01*
X033898Y015846D01*
X033898Y015295D01*
X033906Y015295D01*
X033998Y015309D01*
X034086Y015338D01*
X034169Y015380D01*
X034244Y015435D01*
X034310Y015500D01*
X034364Y015576D01*
X034406Y015658D01*
X034435Y015747D01*
X034450Y015838D01*
X034450Y015846D01*
X033898Y015846D01*
X033898Y015923D01*
X034450Y015923D01*
X034450Y015931D01*
X034435Y016023D01*
X034406Y016111D01*
X034364Y016194D01*
X034310Y016269D01*
X034244Y016335D01*
X034169Y016389D01*
X034086Y016432D01*
X033998Y016460D01*
X033906Y016475D01*
X033898Y016475D01*
X033898Y015923D01*
X033821Y015923D01*
X033821Y015846D01*
X033270Y015846D01*
X033270Y015838D01*
X033284Y015747D01*
X033313Y015658D01*
X033355Y015576D01*
X033409Y015500D01*
X033475Y015435D01*
X033550Y015380D01*
X033425Y015485D02*
X027900Y015485D01*
X027900Y015604D02*
X030138Y015604D01*
X030163Y015579D02*
X029885Y015857D01*
X029885Y016034D01*
X030340Y016034D01*
X030380Y016034D01*
X030380Y016074D01*
X030835Y016074D01*
X030835Y016251D01*
X030556Y016529D01*
X030380Y016529D01*
X030380Y016074D01*
X030340Y016074D01*
X030340Y016529D01*
X030163Y016529D01*
X029885Y016251D01*
X029885Y016074D01*
X030340Y016074D01*
X030340Y016034D01*
X030340Y015579D01*
X030163Y015579D01*
X030340Y015604D02*
X030380Y015604D01*
X030380Y015579D02*
X030556Y015579D01*
X030835Y015857D01*
X030835Y016034D01*
X030380Y016034D01*
X030380Y015579D01*
X030380Y015722D02*
X030340Y015722D01*
X030340Y015841D02*
X030380Y015841D01*
X030380Y015959D02*
X030340Y015959D01*
X030340Y016078D02*
X030380Y016078D01*
X030380Y016196D02*
X030340Y016196D01*
X030340Y016315D02*
X030380Y016315D01*
X030380Y016433D02*
X030340Y016433D01*
X030261Y016559D02*
X030458Y016559D01*
X030640Y016634D01*
X030779Y016774D01*
X030855Y016956D01*
X030855Y017153D01*
X030779Y017334D01*
X030640Y017474D01*
X030458Y017549D01*
X030261Y017549D01*
X030079Y017474D01*
X029940Y017334D01*
X029865Y017153D01*
X029865Y016956D01*
X029940Y016774D01*
X030079Y016634D01*
X030261Y016559D01*
X030067Y016433D02*
X027900Y016433D01*
X027900Y016315D02*
X029948Y016315D01*
X029885Y016196D02*
X027900Y016196D01*
X027900Y016078D02*
X029885Y016078D01*
X029885Y015959D02*
X027900Y015959D01*
X027900Y015841D02*
X029901Y015841D01*
X030020Y015722D02*
X027900Y015722D01*
X027420Y015722D02*
X026463Y015722D01*
X026456Y015729D02*
X026280Y015729D01*
X026280Y015274D01*
X026735Y015274D01*
X026735Y015451D01*
X026456Y015729D01*
X026280Y015722D02*
X026240Y015722D01*
X026240Y015729D02*
X026063Y015729D01*
X025785Y015451D01*
X025785Y015274D01*
X026240Y015274D01*
X026240Y015729D01*
X026240Y015604D02*
X026280Y015604D01*
X026280Y015485D02*
X026240Y015485D01*
X026240Y015367D02*
X026280Y015367D01*
X026280Y015274D02*
X026240Y015274D01*
X026240Y015234D01*
X026280Y015234D01*
X026280Y015274D01*
X026280Y015248D02*
X027420Y015248D01*
X027420Y015130D02*
X026735Y015130D01*
X026735Y015057D02*
X026735Y015234D01*
X026280Y015234D01*
X026280Y014779D01*
X026456Y014779D01*
X026735Y015057D01*
X026688Y015011D02*
X027420Y015011D01*
X027420Y014893D02*
X026570Y014893D01*
X026558Y014656D02*
X027420Y014656D01*
X027420Y014774D02*
X024473Y014774D01*
X024462Y014764D02*
X024750Y015051D01*
X024750Y015234D01*
X024280Y015234D01*
X024280Y015274D01*
X024750Y015274D01*
X024750Y015457D01*
X024462Y015744D01*
X024280Y015744D01*
X024280Y015274D01*
X024240Y015274D01*
X024240Y015744D01*
X024057Y015744D01*
X023770Y015457D01*
X023770Y015274D01*
X024240Y015274D01*
X024240Y015234D01*
X024280Y015234D01*
X024280Y014764D01*
X024462Y014764D01*
X024579Y014656D02*
X025961Y014656D01*
X026063Y014779D02*
X025785Y015057D01*
X025785Y015234D01*
X026240Y015234D01*
X026240Y014779D01*
X026063Y014779D01*
X025949Y014893D02*
X024591Y014893D01*
X024710Y015011D02*
X025831Y015011D01*
X025785Y015130D02*
X024750Y015130D01*
X024750Y015367D02*
X025785Y015367D01*
X025819Y015485D02*
X024721Y015485D01*
X024603Y015604D02*
X025937Y015604D01*
X026056Y015722D02*
X024484Y015722D01*
X024280Y015722D02*
X024240Y015722D01*
X024240Y015604D02*
X024280Y015604D01*
X024280Y015485D02*
X024240Y015485D01*
X024240Y015367D02*
X024280Y015367D01*
X024280Y015248D02*
X026240Y015248D01*
X026240Y015130D02*
X026280Y015130D01*
X026280Y015011D02*
X026240Y015011D01*
X026240Y014893D02*
X026280Y014893D01*
X026677Y014537D02*
X027420Y014537D01*
X027420Y014419D02*
X026727Y014419D01*
X026755Y014300D02*
X027420Y014300D01*
X027420Y014182D02*
X026755Y014182D01*
X026716Y014063D02*
X027420Y014063D01*
X027420Y013945D02*
X026650Y013945D01*
X026560Y013826D02*
X027420Y013826D01*
X027420Y013708D02*
X026560Y013708D01*
X026560Y013589D02*
X027387Y013589D01*
X027299Y013471D02*
X026560Y013471D01*
X026560Y013352D02*
X027212Y013352D01*
X027124Y013234D02*
X026560Y013234D01*
X026913Y013115D02*
X027037Y013115D01*
X026949Y012997D02*
X026920Y012997D01*
X026810Y012404D02*
X026340Y012404D01*
X026810Y012404D02*
X027660Y013554D01*
X027660Y017854D01*
X029960Y021554D01*
X029960Y023054D01*
X031360Y024454D01*
X031762Y024136D02*
X031957Y024136D01*
X032075Y024017D02*
X031644Y024017D01*
X031143Y023899D02*
X034180Y023899D01*
X034180Y024017D02*
X033644Y024017D01*
X033762Y024136D02*
X034180Y024136D01*
X034180Y024254D02*
X033870Y024254D01*
X033870Y024373D02*
X034180Y024373D01*
X034180Y024491D02*
X033870Y024491D01*
X033870Y024610D02*
X034180Y024610D01*
X034180Y024728D02*
X033807Y024728D01*
X033688Y024847D02*
X034112Y024847D01*
X033994Y024965D02*
X027600Y024965D01*
X027566Y025084D02*
X033875Y025084D01*
X033757Y025202D02*
X027451Y025202D01*
X027332Y025321D02*
X033638Y025321D01*
X033550Y025439D02*
X027214Y025439D01*
X027095Y025558D02*
X033550Y025558D01*
X033550Y025676D02*
X026951Y025676D01*
X027063Y025590D02*
X027063Y025590D01*
X026860Y025454D02*
X022860Y025454D01*
X022260Y024954D01*
X022260Y021554D01*
X020760Y019854D01*
X020760Y015154D01*
X019860Y014554D01*
X020089Y014419D02*
X020920Y014419D01*
X020920Y014537D02*
X020267Y014537D01*
X020444Y014656D02*
X020920Y014656D01*
X020920Y014774D02*
X020622Y014774D01*
X020800Y014893D02*
X020920Y014893D01*
X020920Y014300D02*
X020718Y014300D01*
X020718Y014182D02*
X020920Y014182D01*
X020920Y014063D02*
X020718Y014063D01*
X020718Y013945D02*
X020920Y013945D01*
X020920Y013826D02*
X020718Y013826D01*
X020624Y013708D02*
X020920Y013708D01*
X020920Y013589D02*
X018100Y013589D01*
X018100Y013471D02*
X020837Y013471D01*
X021160Y013454D02*
X020160Y012454D01*
X020160Y010154D01*
X020360Y009854D01*
X021460Y009854D01*
X021818Y009797D02*
X021820Y009797D01*
X021820Y009753D02*
X021820Y009899D01*
X022375Y009899D01*
X022375Y009909D01*
X022375Y010194D01*
X022375Y010399D01*
X022385Y010399D01*
X022385Y009909D01*
X022375Y009909D01*
X021820Y009909D01*
X021820Y010055D01*
X021830Y010096D01*
X021851Y010132D01*
X021873Y010154D01*
X021851Y010176D01*
X021830Y010212D01*
X021820Y010253D01*
X021820Y010399D01*
X022375Y010399D01*
X022375Y010409D01*
X022375Y010694D01*
X022375Y010899D01*
X022385Y010899D01*
X022385Y010409D01*
X022375Y010409D01*
X021820Y010409D01*
X021820Y010555D01*
X021830Y010596D01*
X021851Y010632D01*
X021873Y010654D01*
X021851Y010676D01*
X021830Y010712D01*
X021820Y010753D01*
X021820Y010899D01*
X022375Y010899D01*
X022375Y010909D01*
X022375Y011194D01*
X022375Y011399D01*
X022385Y011399D01*
X022385Y010909D01*
X022375Y010909D01*
X021820Y010909D01*
X021820Y011055D01*
X021830Y011096D01*
X021851Y011132D01*
X021873Y011154D01*
X021851Y011176D01*
X021830Y011212D01*
X021820Y011253D01*
X021820Y011399D01*
X022375Y011399D01*
X022375Y011409D01*
X021820Y011409D01*
X021820Y011524D01*
X021401Y011524D01*
X021271Y011394D01*
X020848Y011394D01*
X020550Y011693D01*
X020400Y011693D01*
X020400Y011575D02*
X020668Y011575D01*
X020550Y011693D02*
X020550Y012115D01*
X020848Y012414D01*
X021271Y012414D01*
X021401Y012284D01*
X021800Y012284D01*
X021800Y012609D01*
X021845Y012654D01*
X021800Y012700D01*
X021800Y013109D01*
X021901Y013210D01*
X021400Y013997D01*
X021400Y013406D01*
X021363Y013318D01*
X020400Y012355D01*
X020400Y010227D01*
X020488Y010094D01*
X021101Y010094D01*
X021101Y010107D01*
X021207Y010212D01*
X021712Y010212D01*
X021818Y010107D01*
X021818Y009627D01*
X021859Y009668D01*
X021851Y009676D01*
X021830Y009712D01*
X021820Y009753D01*
X021818Y009679D02*
X021850Y009679D01*
X021800Y009560D02*
X021776Y009560D01*
X021800Y009442D02*
X018496Y009442D01*
X018414Y009524D02*
X018414Y009524D01*
X018378Y009560D02*
X021143Y009560D01*
X021800Y009323D02*
X018615Y009323D01*
X018733Y009205D02*
X021800Y009205D01*
X021828Y009086D02*
X018852Y009086D01*
X018970Y008968D02*
X020009Y008968D01*
X019913Y008849D02*
X019089Y008849D01*
X020449Y010153D02*
X021147Y010153D01*
X021080Y010414D02*
X021262Y010414D01*
X021550Y010701D01*
X021550Y010884D01*
X021080Y010884D01*
X021080Y010924D01*
X021550Y010924D01*
X021550Y011107D01*
X021262Y011394D01*
X021080Y011394D01*
X021080Y010924D01*
X021040Y010924D01*
X021040Y011394D01*
X020857Y011394D01*
X020570Y011107D01*
X020570Y010924D01*
X021040Y010924D01*
X021040Y010884D01*
X021080Y010884D01*
X021080Y010414D01*
X021040Y010414D02*
X021040Y010884D01*
X020570Y010884D01*
X020570Y010701D01*
X020857Y010414D01*
X021040Y010414D01*
X021040Y010508D02*
X021080Y010508D01*
X021080Y010627D02*
X021040Y010627D01*
X021040Y010745D02*
X021080Y010745D01*
X021080Y010864D02*
X021040Y010864D01*
X021040Y010982D02*
X021080Y010982D01*
X021080Y011101D02*
X021040Y011101D01*
X021040Y011219D02*
X021080Y011219D01*
X021080Y011338D02*
X021040Y011338D01*
X020800Y011338D02*
X020400Y011338D01*
X020400Y011456D02*
X020786Y011456D01*
X020682Y011219D02*
X020400Y011219D01*
X020400Y011101D02*
X020570Y011101D01*
X020570Y010982D02*
X020400Y010982D01*
X020400Y010864D02*
X020570Y010864D01*
X020570Y010745D02*
X020400Y010745D01*
X020400Y010627D02*
X020644Y010627D01*
X020763Y010508D02*
X020400Y010508D01*
X020400Y010390D02*
X021820Y010390D01*
X021820Y010508D02*
X021356Y010508D01*
X021475Y010627D02*
X021848Y010627D01*
X021822Y010745D02*
X021550Y010745D01*
X021550Y010864D02*
X021820Y010864D01*
X021820Y010982D02*
X021550Y010982D01*
X021550Y011101D02*
X021833Y011101D01*
X021829Y011219D02*
X021437Y011219D01*
X021319Y011338D02*
X021820Y011338D01*
X021820Y011456D02*
X021333Y011456D01*
X021399Y012286D02*
X021800Y012286D01*
X021800Y012404D02*
X021281Y012404D01*
X020838Y012404D02*
X020449Y012404D01*
X020400Y012286D02*
X020720Y012286D01*
X020601Y012167D02*
X020400Y012167D01*
X020400Y012049D02*
X020550Y012049D01*
X020550Y011930D02*
X020400Y011930D01*
X020400Y011812D02*
X020550Y011812D01*
X020567Y012523D02*
X021800Y012523D01*
X021832Y012641D02*
X020686Y012641D01*
X020804Y012760D02*
X021800Y012760D01*
X021800Y012878D02*
X020923Y012878D01*
X021041Y012997D02*
X021800Y012997D01*
X021806Y013115D02*
X021160Y013115D01*
X021278Y013234D02*
X021885Y013234D01*
X021810Y013352D02*
X021377Y013352D01*
X021400Y013471D02*
X021735Y013471D01*
X021659Y013589D02*
X021400Y013589D01*
X021400Y013708D02*
X021584Y013708D01*
X021509Y013826D02*
X021400Y013826D01*
X021400Y013945D02*
X021433Y013945D01*
X021560Y014193D02*
X022380Y012904D01*
X022380Y012404D02*
X023010Y012404D01*
X023160Y012554D01*
X023160Y012954D01*
X021960Y014554D01*
X021960Y019854D01*
X023460Y021554D01*
X023460Y023054D01*
X023960Y023554D01*
X029660Y023554D01*
X030360Y024254D01*
X030360Y024454D01*
X030807Y024728D02*
X030912Y024728D01*
X031031Y024847D02*
X030688Y024847D01*
X030031Y024847D02*
X029688Y024847D01*
X029807Y024728D02*
X029912Y024728D01*
X029031Y024847D02*
X028688Y024847D01*
X028807Y024728D02*
X028912Y024728D01*
X028031Y024847D02*
X027688Y024847D01*
X027807Y024728D02*
X027912Y024728D01*
X027360Y024954D02*
X027360Y024454D01*
X027360Y024954D02*
X026860Y025454D01*
X028694Y026454D02*
X028894Y026537D01*
X029066Y026709D01*
X029158Y026933D01*
X029158Y027175D01*
X029066Y027400D01*
X028894Y027571D01*
X028670Y027664D01*
X028427Y027664D01*
X028420Y027661D01*
X027507Y028714D01*
X027503Y028724D01*
X027473Y028754D01*
X030558Y028754D01*
X032091Y027221D01*
X032072Y027175D01*
X032072Y026933D01*
X032165Y026709D01*
X032337Y026537D01*
X032561Y026444D01*
X032804Y026444D01*
X033028Y026537D01*
X033199Y026709D01*
X033292Y026933D01*
X033292Y027175D01*
X033199Y027400D01*
X033028Y027571D01*
X032804Y027664D01*
X032561Y027664D01*
X032515Y027645D01*
X030852Y029308D01*
X030742Y029354D01*
X013477Y029354D01*
X013367Y029308D01*
X011704Y027645D01*
X011658Y027664D01*
X011415Y027664D01*
X011191Y027571D01*
X011020Y027400D01*
X010927Y027175D01*
X010927Y026933D01*
X011020Y026709D01*
X011191Y026537D01*
X011415Y026444D01*
X011658Y026444D01*
X011882Y026537D01*
X012054Y026709D01*
X012147Y026933D01*
X012147Y027175D01*
X012128Y027221D01*
X013661Y028754D01*
X016946Y028754D01*
X016916Y028724D01*
X015837Y027645D01*
X015792Y027664D01*
X015549Y027664D01*
X015325Y027571D01*
X015153Y027400D01*
X015061Y027175D01*
X015061Y026933D01*
X015153Y026709D01*
X015325Y026537D01*
X015525Y026454D01*
X014438Y026454D01*
X014638Y026537D01*
X014810Y026709D01*
X014903Y026933D01*
X014903Y027175D01*
X014810Y027400D01*
X014638Y027571D01*
X014414Y027664D01*
X014171Y027664D01*
X013947Y027571D01*
X013775Y027400D01*
X013683Y027175D01*
X013683Y026933D01*
X013775Y026709D01*
X013947Y026537D01*
X014147Y026454D01*
X013939Y026454D01*
X013506Y026887D01*
X013525Y026933D01*
X013525Y027175D01*
X013432Y027400D01*
X013260Y027571D01*
X013036Y027664D01*
X012793Y027664D01*
X012569Y027571D01*
X012397Y027400D01*
X012305Y027175D01*
X012305Y026933D01*
X012397Y026709D01*
X012569Y026537D01*
X012793Y026444D01*
X013036Y026444D01*
X013082Y026463D01*
X013645Y025900D01*
X013755Y025854D01*
X030144Y025854D01*
X030219Y025818D01*
X030354Y025811D01*
X030482Y025856D01*
X031150Y026458D01*
X031183Y026444D01*
X031426Y026444D01*
X031650Y026537D01*
X031822Y026709D01*
X031914Y026933D01*
X031914Y027175D01*
X031822Y027400D01*
X031650Y027571D01*
X031426Y027664D01*
X031183Y027664D01*
X030959Y027571D01*
X030787Y027400D01*
X030694Y027175D01*
X030694Y026962D01*
X030462Y026754D01*
X030536Y026933D01*
X030536Y027175D01*
X030444Y027400D01*
X030272Y027571D01*
X030048Y027664D01*
X029805Y027664D01*
X029581Y027571D01*
X029409Y027400D01*
X029316Y027175D01*
X029316Y026933D01*
X029409Y026709D01*
X029581Y026537D01*
X029781Y026454D01*
X028694Y026454D01*
X028818Y026506D02*
X029657Y026506D01*
X029494Y026624D02*
X028981Y026624D01*
X029080Y026743D02*
X029395Y026743D01*
X029346Y026861D02*
X029129Y026861D01*
X029158Y026980D02*
X029316Y026980D01*
X029316Y027098D02*
X029158Y027098D01*
X029141Y027217D02*
X029334Y027217D01*
X029383Y027335D02*
X029092Y027335D01*
X029012Y027454D02*
X029463Y027454D01*
X029583Y027572D02*
X028892Y027572D01*
X028394Y027691D02*
X031622Y027691D01*
X031648Y027572D02*
X031740Y027572D01*
X031768Y027454D02*
X031859Y027454D01*
X031848Y027335D02*
X031977Y027335D01*
X031897Y027217D02*
X032089Y027217D01*
X032072Y027098D02*
X031914Y027098D01*
X031914Y026980D02*
X032072Y026980D01*
X032102Y026861D02*
X031885Y026861D01*
X031836Y026743D02*
X032151Y026743D01*
X032250Y026624D02*
X031737Y026624D01*
X031574Y026506D02*
X032412Y026506D01*
X032952Y026506D02*
X033550Y026506D01*
X033550Y026624D02*
X033115Y026624D01*
X033214Y026743D02*
X033550Y026743D01*
X033550Y026861D02*
X033263Y026861D01*
X033292Y026980D02*
X033550Y026980D01*
X033550Y027098D02*
X033292Y027098D01*
X033275Y027217D02*
X033550Y027217D01*
X033550Y027335D02*
X033226Y027335D01*
X033145Y027454D02*
X033550Y027454D01*
X033550Y027572D02*
X033026Y027572D01*
X033550Y027691D02*
X032470Y027691D01*
X032352Y027809D02*
X033550Y027809D01*
X033550Y027928D02*
X032233Y027928D01*
X032115Y028046D02*
X033550Y028046D01*
X033550Y028165D02*
X031996Y028165D01*
X031878Y028283D02*
X033550Y028283D01*
X033550Y028402D02*
X031759Y028402D01*
X031641Y028520D02*
X033550Y028520D01*
X033550Y028639D02*
X031522Y028639D01*
X031404Y028757D02*
X033550Y028757D01*
X033550Y028876D02*
X031285Y028876D01*
X031167Y028994D02*
X033550Y028994D01*
X033550Y029113D02*
X031048Y029113D01*
X030930Y029231D02*
X033550Y029231D01*
X033550Y029350D02*
X030753Y029350D01*
X030674Y028639D02*
X027572Y028639D01*
X027675Y028520D02*
X030792Y028520D01*
X030911Y028402D02*
X027778Y028402D01*
X027880Y028283D02*
X031029Y028283D01*
X031148Y028165D02*
X027983Y028165D01*
X028086Y028046D02*
X031266Y028046D01*
X031385Y027928D02*
X028188Y027928D01*
X028291Y027809D02*
X031503Y027809D01*
X030961Y027572D02*
X030270Y027572D01*
X030390Y027454D02*
X030841Y027454D01*
X030761Y027335D02*
X030470Y027335D01*
X030519Y027217D02*
X030711Y027217D01*
X030694Y027098D02*
X030536Y027098D01*
X030536Y026980D02*
X030694Y026980D01*
X030582Y026861D02*
X030507Y026861D01*
X030940Y026269D02*
X033550Y026269D01*
X033550Y026387D02*
X031072Y026387D01*
X030808Y026150D02*
X033550Y026150D01*
X033550Y026032D02*
X030677Y026032D01*
X030545Y025913D02*
X033550Y025913D01*
X033550Y025795D02*
X019754Y025795D01*
X019719Y025795D02*
X009868Y025795D01*
X009868Y025913D02*
X013631Y025913D01*
X013513Y026032D02*
X009868Y026032D01*
X009868Y026150D02*
X013394Y026150D01*
X013276Y026269D02*
X009868Y026269D01*
X009868Y026387D02*
X013157Y026387D01*
X012645Y026506D02*
X011807Y026506D01*
X011969Y026624D02*
X012482Y026624D01*
X012383Y026743D02*
X012068Y026743D01*
X012117Y026861D02*
X012334Y026861D01*
X012305Y026980D02*
X012147Y026980D01*
X012147Y027098D02*
X012305Y027098D01*
X012322Y027217D02*
X012130Y027217D01*
X012242Y027335D02*
X012371Y027335D01*
X012360Y027454D02*
X012452Y027454D01*
X012479Y027572D02*
X012571Y027572D01*
X012598Y027691D02*
X015883Y027691D01*
X016001Y027809D02*
X012716Y027809D01*
X012835Y027928D02*
X016120Y027928D01*
X016238Y028046D02*
X012953Y028046D01*
X013072Y028165D02*
X016357Y028165D01*
X016475Y028283D02*
X013190Y028283D01*
X013309Y028402D02*
X016594Y028402D01*
X016712Y028520D02*
X013427Y028520D01*
X013546Y028639D02*
X016831Y028639D01*
X016916Y028724D02*
X016916Y028724D01*
X015327Y027572D02*
X014636Y027572D01*
X014756Y027454D02*
X015207Y027454D01*
X015127Y027335D02*
X014836Y027335D01*
X014886Y027217D02*
X015078Y027217D01*
X015061Y027098D02*
X014903Y027098D01*
X014903Y026980D02*
X015061Y026980D01*
X015090Y026861D02*
X014873Y026861D01*
X014824Y026743D02*
X015139Y026743D01*
X015238Y026624D02*
X014725Y026624D01*
X014563Y026506D02*
X015401Y026506D01*
X014023Y026506D02*
X013887Y026506D01*
X013860Y026624D02*
X013769Y026624D01*
X013761Y026743D02*
X013650Y026743D01*
X013712Y026861D02*
X013532Y026861D01*
X013525Y026980D02*
X013683Y026980D01*
X013683Y027098D02*
X013525Y027098D01*
X013508Y027217D02*
X013700Y027217D01*
X013749Y027335D02*
X013458Y027335D01*
X013378Y027454D02*
X013829Y027454D01*
X013949Y027572D02*
X013258Y027572D01*
X012341Y028283D02*
X007565Y028283D01*
X007565Y028165D02*
X012223Y028165D01*
X012104Y028046D02*
X007565Y028046D01*
X007565Y027928D02*
X011986Y027928D01*
X011867Y027809D02*
X007565Y027809D01*
X007565Y027691D02*
X011749Y027691D01*
X011193Y027572D02*
X009911Y027572D01*
X010031Y027454D02*
X011074Y027454D01*
X010993Y027335D02*
X010112Y027335D01*
X010161Y027217D02*
X010944Y027217D01*
X010927Y027098D02*
X010178Y027098D01*
X010178Y026980D02*
X010927Y026980D01*
X010956Y026861D02*
X010149Y026861D01*
X010099Y026743D02*
X011005Y026743D01*
X011104Y026624D02*
X010001Y026624D01*
X009868Y026506D02*
X011267Y026506D01*
X009868Y025676D02*
X017142Y025676D01*
X017024Y025558D02*
X009868Y025558D01*
X009868Y025439D02*
X016905Y025439D01*
X016787Y025321D02*
X009868Y025321D01*
X009868Y025202D02*
X016668Y025202D01*
X016550Y025084D02*
X009868Y025084D01*
X009868Y024965D02*
X016431Y024965D01*
X016313Y024847D02*
X009868Y024847D01*
X009868Y024728D02*
X016194Y024728D01*
X016076Y024610D02*
X009868Y024610D01*
X009868Y024491D02*
X015957Y024491D01*
X015839Y024373D02*
X009868Y024373D01*
X009868Y024254D02*
X015720Y024254D01*
X015602Y024136D02*
X009868Y024136D01*
X009868Y024017D02*
X015483Y024017D01*
X015365Y023899D02*
X009868Y023899D01*
X009868Y023780D02*
X015246Y023780D01*
X015128Y023662D02*
X009868Y023662D01*
X009868Y023543D02*
X015009Y023543D01*
X014891Y023425D02*
X009868Y023425D01*
X009868Y023306D02*
X014772Y023306D01*
X014654Y023188D02*
X009868Y023188D01*
X009868Y023069D02*
X014535Y023069D01*
X014417Y022951D02*
X009868Y022951D01*
X009868Y022832D02*
X014298Y022832D01*
X014180Y022714D02*
X009868Y022714D01*
X009868Y022595D02*
X014061Y022595D01*
X013943Y022477D02*
X009868Y022477D01*
X009868Y022358D02*
X013824Y022358D01*
X013706Y022240D02*
X009868Y022240D01*
X009868Y022121D02*
X013587Y022121D01*
X013469Y022003D02*
X009868Y022003D01*
X009868Y021884D02*
X013350Y021884D01*
X013232Y021766D02*
X009868Y021766D01*
X009868Y021647D02*
X013113Y021647D01*
X012995Y021529D02*
X009868Y021529D01*
X009868Y021410D02*
X012876Y021410D01*
X012758Y021292D02*
X009868Y021292D01*
X009868Y021173D02*
X012639Y021173D01*
X012521Y021055D02*
X009868Y021055D01*
X009868Y020936D02*
X012402Y020936D01*
X012284Y020818D02*
X009868Y020818D01*
X009868Y020699D02*
X012165Y020699D01*
X012047Y020581D02*
X009868Y020581D01*
X009868Y020462D02*
X011928Y020462D01*
X011810Y020344D02*
X009868Y020344D01*
X009868Y020225D02*
X011691Y020225D01*
X011573Y020107D02*
X009868Y020107D01*
X009868Y019988D02*
X011454Y019988D01*
X011336Y019870D02*
X009868Y019870D01*
X009868Y019751D02*
X011217Y019751D01*
X011099Y019633D02*
X009868Y019633D01*
X009868Y019514D02*
X010980Y019514D01*
X010862Y019396D02*
X009868Y019396D01*
X009868Y019277D02*
X010743Y019277D01*
X010643Y019159D02*
X009868Y019159D01*
X009868Y019040D02*
X010620Y019040D01*
X010620Y018922D02*
X009868Y018922D01*
X009868Y018803D02*
X010620Y018803D01*
X010620Y018685D02*
X009868Y018685D01*
X009868Y018566D02*
X010620Y018566D01*
X010620Y018448D02*
X009868Y018448D01*
X009868Y018329D02*
X010620Y018329D01*
X010620Y018211D02*
X009868Y018211D01*
X009868Y018092D02*
X010620Y018092D01*
X010620Y017974D02*
X009868Y017974D01*
X009868Y017855D02*
X010620Y017855D01*
X010620Y017737D02*
X009868Y017737D01*
X009868Y017618D02*
X010620Y017618D01*
X010620Y017500D02*
X009868Y017500D01*
X009868Y017381D02*
X010620Y017381D01*
X010620Y017263D02*
X009868Y017263D01*
X009868Y017144D02*
X010620Y017144D01*
X010620Y017026D02*
X009868Y017026D01*
X009868Y016907D02*
X010620Y016907D01*
X010620Y016789D02*
X009868Y016789D01*
X009868Y016670D02*
X010620Y016670D01*
X010620Y016552D02*
X009868Y016552D01*
X009868Y016433D02*
X010620Y016433D01*
X010620Y016315D02*
X009868Y016315D01*
X009868Y016196D02*
X010620Y016196D01*
X010620Y016078D02*
X009868Y016078D01*
X009868Y015959D02*
X010620Y015959D01*
X010535Y015841D02*
X009868Y015841D01*
X009868Y015722D02*
X010501Y015722D01*
X010501Y015604D02*
X009868Y015604D01*
X009868Y015485D02*
X010501Y015485D01*
X010501Y015367D02*
X009868Y015367D01*
X009868Y015248D02*
X010555Y015248D01*
X010860Y015554D02*
X010860Y019054D01*
X017360Y025554D01*
X019760Y025554D01*
X020760Y024454D01*
X021162Y024136D02*
X021357Y024136D01*
X021475Y024017D02*
X021044Y024017D01*
X021520Y023899D02*
X016543Y023899D01*
X016425Y023780D02*
X021520Y023780D01*
X021520Y023662D02*
X016306Y023662D01*
X016188Y023543D02*
X021520Y023543D01*
X021520Y023425D02*
X016069Y023425D01*
X015951Y023306D02*
X021520Y023306D01*
X021520Y023188D02*
X015832Y023188D01*
X015714Y023069D02*
X021520Y023069D01*
X021520Y022951D02*
X015595Y022951D01*
X015477Y022832D02*
X021520Y022832D01*
X021520Y022714D02*
X015358Y022714D01*
X016358Y022477D02*
X016789Y022477D01*
X016671Y022358D02*
X016477Y022358D01*
X016570Y022240D02*
X016570Y022240D01*
X016570Y022121D02*
X016570Y022121D01*
X016570Y022003D02*
X016570Y022003D01*
X016570Y021884D02*
X016570Y021884D01*
X016492Y021766D02*
X016655Y021766D01*
X016774Y021647D02*
X016374Y021647D01*
X015745Y021647D02*
X015320Y021647D01*
X015439Y021766D02*
X015627Y021766D01*
X015482Y020818D02*
X015474Y020818D01*
X015474Y020699D02*
X015482Y020699D01*
X015474Y020581D02*
X015482Y020581D01*
X015897Y020818D02*
X018788Y020818D01*
X018727Y020699D02*
X015972Y020699D01*
X015972Y020581D02*
X018727Y020581D01*
X018727Y020462D02*
X015972Y020462D01*
X015949Y020344D02*
X017978Y020344D01*
X017961Y020225D02*
X015992Y020225D01*
X015992Y020107D02*
X017961Y020107D01*
X017961Y019988D02*
X015992Y019988D01*
X015992Y019870D02*
X017961Y019870D01*
X018032Y019751D02*
X015957Y019751D01*
X015972Y019633D02*
X018747Y019633D01*
X018747Y019514D02*
X015972Y019514D01*
X015970Y019396D02*
X018749Y019396D01*
X018777Y019277D02*
X015942Y019277D01*
X015972Y019159D02*
X018747Y019159D01*
X018747Y019040D02*
X015972Y019040D01*
X015972Y018922D02*
X018747Y018922D01*
X019237Y019058D02*
X019237Y019550D01*
X019245Y019550D01*
X019245Y019342D01*
X019245Y019058D01*
X019237Y019058D01*
X019237Y019159D02*
X019245Y019159D01*
X019237Y019277D02*
X019245Y019277D01*
X019237Y019396D02*
X019245Y019396D01*
X019237Y019514D02*
X019245Y019514D01*
X018762Y019751D02*
X018607Y019751D01*
X018001Y018803D02*
X015946Y018803D01*
X015992Y018685D02*
X018001Y018685D01*
X018001Y018566D02*
X015992Y018566D01*
X015992Y018448D02*
X018001Y018448D01*
X018001Y018329D02*
X015970Y018329D01*
X015970Y018211D02*
X018092Y018211D01*
X018169Y017855D02*
X018763Y017855D01*
X018747Y017974D02*
X015972Y017974D01*
X015972Y018092D02*
X018747Y018092D01*
X018749Y018211D02*
X018627Y018211D01*
X018747Y017144D02*
X015972Y017144D01*
X015972Y017026D02*
X018747Y017026D01*
X018747Y016907D02*
X017617Y016907D01*
X017540Y017263D02*
X015950Y017263D01*
X015992Y017381D02*
X017501Y017381D01*
X017501Y017500D02*
X015992Y017500D01*
X015992Y017618D02*
X017501Y017618D01*
X017501Y017737D02*
X015992Y017737D01*
X015956Y017855D02*
X017550Y017855D01*
X017102Y016907D02*
X015972Y016907D01*
X015960Y016789D02*
X017001Y016789D01*
X017001Y016670D02*
X015992Y016670D01*
X015992Y016552D02*
X017001Y016552D01*
X017001Y016433D02*
X015992Y016433D01*
X015955Y016315D02*
X016509Y016315D01*
X016501Y016196D02*
X015992Y016196D01*
X015992Y016078D02*
X016501Y016078D01*
X016501Y015959D02*
X015992Y015959D01*
X015981Y015841D02*
X016501Y015841D01*
X016581Y015722D02*
X015967Y015722D01*
X015972Y015604D02*
X018747Y015604D01*
X018752Y015722D02*
X017138Y015722D01*
X015972Y015485D02*
X018747Y015485D01*
X018757Y015367D02*
X015962Y015367D01*
X015959Y015248D02*
X018760Y015248D01*
X018747Y015130D02*
X015972Y015130D01*
X015972Y015011D02*
X018747Y015011D01*
X018750Y014893D02*
X015969Y014893D01*
X015975Y014774D02*
X018164Y014774D01*
X018022Y014656D02*
X015992Y014656D01*
X015992Y014537D02*
X017903Y014537D01*
X017785Y014419D02*
X015992Y014419D01*
X015949Y014300D02*
X017666Y014300D01*
X017620Y014182D02*
X015992Y014182D01*
X015992Y014063D02*
X017620Y014063D01*
X017620Y013945D02*
X015992Y013945D01*
X015967Y013826D02*
X017620Y013826D01*
X017620Y013708D02*
X015702Y013708D01*
X015702Y013589D02*
X017620Y013589D01*
X017620Y013471D02*
X016634Y013471D01*
X016637Y013467D02*
X016607Y013497D01*
X016571Y013518D01*
X016530Y013529D01*
X016313Y013529D01*
X016313Y013114D01*
X016669Y013114D01*
X016669Y013390D01*
X016658Y013431D01*
X016637Y013467D01*
X016669Y013352D02*
X017620Y013352D01*
X017620Y013234D02*
X016669Y013234D01*
X016669Y013115D02*
X017620Y013115D01*
X017620Y012997D02*
X016313Y012997D01*
X016360Y012954D02*
X016253Y013054D01*
X016193Y013115D02*
X016313Y013115D01*
X016313Y013234D02*
X016193Y013234D01*
X016193Y013352D02*
X016313Y013352D01*
X016313Y013471D02*
X016193Y013471D01*
X016360Y012954D02*
X016360Y012254D01*
X016360Y010936D01*
X016356Y010982D02*
X016363Y010982D01*
X016356Y010864D02*
X016363Y010864D01*
X016356Y010745D02*
X016363Y010745D01*
X016356Y010627D02*
X016363Y010627D01*
X016356Y010508D02*
X016363Y010508D01*
X016356Y011101D02*
X016363Y011101D01*
X016356Y011219D02*
X016363Y011219D01*
X016356Y011338D02*
X016363Y011338D01*
X016620Y011456D02*
X014660Y011456D01*
X014660Y011575D02*
X016620Y011575D01*
X016620Y011693D02*
X014660Y011693D01*
X014660Y011812D02*
X016620Y011812D01*
X016620Y011930D02*
X015946Y011930D01*
X016018Y012049D02*
X016620Y012049D01*
X016620Y012167D02*
X016018Y012167D01*
X016018Y012286D02*
X016620Y012286D01*
X016670Y012404D02*
X016018Y012404D01*
X016002Y012523D02*
X017620Y012523D01*
X017620Y012641D02*
X016637Y012641D01*
X016669Y012760D02*
X017620Y012760D01*
X017620Y012878D02*
X016669Y012878D01*
X016313Y012878D02*
X016193Y012878D01*
X016193Y012760D02*
X016313Y012760D01*
X016313Y012641D02*
X016193Y012641D01*
X015660Y012754D02*
X015466Y013054D01*
X015460Y014054D01*
X015478Y014054D01*
X015460Y014054D02*
X011660Y014054D01*
X011360Y014354D01*
X011360Y019054D01*
X017460Y025154D01*
X019160Y025154D01*
X019760Y024454D01*
X019250Y024491D02*
X018798Y024491D01*
X018798Y024416D02*
X019250Y024416D01*
X019250Y024251D01*
X018962Y023964D01*
X018798Y023964D01*
X018798Y024416D01*
X018798Y024373D02*
X018721Y024373D01*
X018721Y024491D02*
X018270Y024491D01*
X018270Y024373D02*
X018270Y024373D01*
X018270Y024254D02*
X018270Y024254D01*
X018162Y024136D02*
X018385Y024136D01*
X018504Y024017D02*
X018044Y024017D01*
X018721Y024017D02*
X018798Y024017D01*
X018798Y024136D02*
X018721Y024136D01*
X018721Y024254D02*
X018798Y024254D01*
X019016Y024017D02*
X019475Y024017D01*
X019357Y024136D02*
X019134Y024136D01*
X019250Y024254D02*
X019250Y024254D01*
X019250Y024373D02*
X019250Y024373D01*
X019250Y024610D02*
X019250Y024610D01*
X019209Y024728D02*
X019178Y024728D01*
X019107Y024847D02*
X019060Y024847D01*
X018459Y024847D02*
X018088Y024847D01*
X018207Y024728D02*
X018341Y024728D01*
X018270Y024610D02*
X018270Y024610D01*
X017475Y024017D02*
X016662Y024017D01*
X016780Y024136D02*
X017357Y024136D01*
X017250Y024254D02*
X016899Y024254D01*
X017017Y024373D02*
X017250Y024373D01*
X017250Y024491D02*
X017136Y024491D01*
X020044Y024017D02*
X020475Y024017D01*
X020357Y024136D02*
X020162Y024136D01*
X020619Y024965D02*
X022020Y024965D01*
X022053Y025084D02*
X020512Y025084D01*
X020404Y025202D02*
X022182Y025202D01*
X022324Y025321D02*
X020296Y025321D01*
X020188Y025439D02*
X022467Y025439D01*
X022609Y025558D02*
X020081Y025558D01*
X019973Y025676D02*
X022765Y025676D01*
X022760Y024454D02*
X022660Y024454D01*
X022660Y021554D01*
X021160Y019854D01*
X021160Y013454D01*
X021560Y014193D02*
X021560Y019854D01*
X023060Y021554D01*
X023060Y023354D01*
X023760Y024254D01*
X023760Y024454D01*
X024051Y023306D02*
X029872Y023306D01*
X029869Y023425D02*
X029991Y023425D01*
X029988Y023543D02*
X030109Y023543D01*
X030106Y023662D02*
X030228Y023662D01*
X030225Y023780D02*
X030346Y023780D01*
X030343Y023899D02*
X030465Y023899D01*
X030788Y023543D02*
X034180Y023543D01*
X034180Y023425D02*
X030669Y023425D01*
X030551Y023306D02*
X034180Y023306D01*
X034180Y023188D02*
X030432Y023188D01*
X030314Y023069D02*
X034180Y023069D01*
X034180Y022951D02*
X030200Y022951D01*
X030200Y022832D02*
X034180Y022832D01*
X034180Y022714D02*
X030200Y022714D01*
X030200Y022595D02*
X034180Y022595D01*
X034180Y022477D02*
X030200Y022477D01*
X030200Y022358D02*
X034180Y022358D01*
X034180Y022240D02*
X030200Y022240D01*
X030200Y022121D02*
X034180Y022121D01*
X034180Y022003D02*
X030200Y022003D01*
X030200Y021884D02*
X034180Y021884D01*
X034180Y021766D02*
X030200Y021766D01*
X030200Y021647D02*
X032560Y021647D01*
X032657Y021744D02*
X032370Y021457D01*
X032370Y021274D01*
X032840Y021274D01*
X032840Y021744D01*
X032657Y021744D01*
X032840Y021647D02*
X032880Y021647D01*
X032880Y021744D02*
X032880Y021274D01*
X033350Y021274D01*
X033350Y021457D01*
X033062Y021744D01*
X032880Y021744D01*
X032880Y021529D02*
X032840Y021529D01*
X032840Y021410D02*
X032880Y021410D01*
X032880Y021292D02*
X032840Y021292D01*
X032840Y021274D02*
X032880Y021274D01*
X032880Y021234D01*
X033350Y021234D01*
X033350Y021051D01*
X033062Y020764D01*
X032880Y020764D01*
X032880Y021234D01*
X032840Y021234D01*
X032840Y020764D01*
X032657Y020764D01*
X032370Y021051D01*
X032370Y021234D01*
X032840Y021234D01*
X032840Y021274D01*
X032840Y021173D02*
X032880Y021173D01*
X032880Y021055D02*
X032840Y021055D01*
X032840Y020936D02*
X032880Y020936D01*
X032880Y020818D02*
X032840Y020818D01*
X032648Y020764D02*
X032350Y020465D01*
X032350Y020112D01*
X032065Y019827D01*
X032025Y019732D01*
X032025Y019649D01*
X031955Y019649D01*
X031850Y019544D01*
X031850Y018765D01*
X031955Y018659D01*
X032616Y018659D01*
X032660Y018703D01*
X032703Y018659D01*
X033161Y018659D01*
X033600Y018220D01*
X033600Y017815D01*
X033514Y017780D01*
X033342Y017608D01*
X033250Y017384D01*
X033250Y017141D01*
X033342Y016917D01*
X033514Y016746D01*
X033738Y016653D01*
X033981Y016653D01*
X034205Y016746D01*
X034377Y016917D01*
X034470Y017141D01*
X034470Y017384D01*
X034377Y017608D01*
X034205Y017780D01*
X034120Y017815D01*
X034120Y018380D01*
X034080Y018475D01*
X033469Y019086D01*
X033469Y019544D01*
X033364Y019649D01*
X032703Y019649D01*
X032660Y019605D01*
X032619Y019646D01*
X032717Y019744D01*
X033071Y019744D01*
X033370Y020043D01*
X033370Y020465D01*
X033071Y020764D01*
X032648Y020764D01*
X032603Y020818D02*
X029784Y020818D01*
X029858Y020936D02*
X032485Y020936D01*
X032370Y021055D02*
X029932Y021055D01*
X030005Y021173D02*
X032370Y021173D01*
X032370Y021292D02*
X030079Y021292D01*
X030155Y021410D02*
X032370Y021410D01*
X032441Y021529D02*
X030200Y021529D01*
X029720Y021647D02*
X023700Y021647D01*
X023702Y021529D02*
X029661Y021529D01*
X029587Y021410D02*
X023655Y021410D01*
X023548Y021292D02*
X029514Y021292D01*
X029440Y021173D02*
X023443Y021173D01*
X023339Y021055D02*
X029366Y021055D01*
X029293Y020936D02*
X023234Y020936D01*
X023130Y020818D02*
X029219Y020818D01*
X029145Y020699D02*
X023025Y020699D01*
X022921Y020581D02*
X029072Y020581D01*
X028998Y020462D02*
X022816Y020462D01*
X022712Y020344D02*
X028924Y020344D01*
X028851Y020225D02*
X022607Y020225D01*
X022502Y020107D02*
X028777Y020107D01*
X028703Y019988D02*
X022398Y019988D01*
X022293Y019870D02*
X028630Y019870D01*
X028556Y019751D02*
X022200Y019751D01*
X022200Y019633D02*
X028483Y019633D01*
X028409Y019514D02*
X022200Y019514D01*
X022200Y019396D02*
X028335Y019396D01*
X028262Y019277D02*
X022200Y019277D01*
X022200Y019159D02*
X028188Y019159D01*
X028114Y019040D02*
X022200Y019040D01*
X022200Y018922D02*
X028041Y018922D01*
X027967Y018803D02*
X022200Y018803D01*
X022200Y018685D02*
X027893Y018685D01*
X027820Y018566D02*
X022200Y018566D01*
X022200Y018448D02*
X027746Y018448D01*
X027672Y018329D02*
X022200Y018329D01*
X022200Y018211D02*
X027599Y018211D01*
X027525Y018092D02*
X022200Y018092D01*
X022200Y017974D02*
X027449Y017974D01*
X027416Y017855D02*
X022200Y017855D01*
X022200Y017737D02*
X027420Y017737D01*
X027420Y017618D02*
X022200Y017618D01*
X022200Y017500D02*
X027420Y017500D01*
X027420Y017381D02*
X022200Y017381D01*
X022200Y017263D02*
X027420Y017263D01*
X027420Y017144D02*
X022200Y017144D01*
X022200Y017026D02*
X027420Y017026D01*
X027420Y016907D02*
X022200Y016907D01*
X022200Y016789D02*
X027420Y016789D01*
X027420Y016670D02*
X022200Y016670D01*
X022200Y016552D02*
X027420Y016552D01*
X027420Y016433D02*
X022200Y016433D01*
X022200Y016315D02*
X027420Y016315D01*
X027420Y016196D02*
X022200Y016196D01*
X022200Y016078D02*
X027420Y016078D01*
X027420Y015959D02*
X022200Y015959D01*
X022200Y015841D02*
X027420Y015841D01*
X027420Y015604D02*
X026582Y015604D01*
X026700Y015485D02*
X027420Y015485D01*
X027420Y015367D02*
X026735Y015367D01*
X025843Y014537D02*
X024698Y014537D01*
X024770Y014419D02*
X025792Y014419D01*
X025765Y014300D02*
X024770Y014300D01*
X024770Y014182D02*
X025765Y014182D01*
X025803Y014063D02*
X024831Y014063D01*
X024936Y013945D02*
X025869Y013945D01*
X025960Y013826D02*
X025041Y013826D01*
X025147Y013708D02*
X025960Y013708D01*
X025960Y013589D02*
X025252Y013589D01*
X025367Y013471D02*
X025960Y013471D01*
X025960Y013352D02*
X025486Y013352D01*
X025604Y013234D02*
X025960Y013234D01*
X025760Y012523D02*
X023400Y012523D01*
X023400Y012641D02*
X025360Y012641D01*
X025230Y012760D02*
X023400Y012760D01*
X023400Y012878D02*
X025111Y012878D01*
X024993Y012997D02*
X023400Y012997D01*
X023339Y013115D02*
X024871Y013115D01*
X024765Y013234D02*
X023250Y013234D01*
X023161Y013352D02*
X024660Y013352D01*
X024555Y013471D02*
X023072Y013471D01*
X022983Y013589D02*
X024449Y013589D01*
X024344Y013708D02*
X022894Y013708D01*
X022805Y013826D02*
X023966Y013826D01*
X023848Y013945D02*
X022717Y013945D01*
X022628Y014063D02*
X023750Y014063D01*
X023750Y014182D02*
X022539Y014182D01*
X022450Y014300D02*
X023750Y014300D01*
X023750Y014419D02*
X022361Y014419D01*
X022272Y014537D02*
X023821Y014537D01*
X023940Y014656D02*
X022200Y014656D01*
X022200Y014774D02*
X024047Y014774D01*
X024057Y014764D02*
X023770Y015051D01*
X023770Y015234D01*
X024240Y015234D01*
X024240Y014764D01*
X024057Y014764D01*
X023928Y014893D02*
X022200Y014893D01*
X022200Y015011D02*
X023810Y015011D01*
X023770Y015130D02*
X022200Y015130D01*
X022200Y015248D02*
X024240Y015248D01*
X024240Y015130D02*
X024280Y015130D01*
X024280Y015011D02*
X024240Y015011D01*
X024240Y014893D02*
X024280Y014893D01*
X024280Y014774D02*
X024240Y014774D01*
X023770Y015367D02*
X022200Y015367D01*
X022200Y015485D02*
X023798Y015485D01*
X023916Y015604D02*
X022200Y015604D01*
X022200Y015722D02*
X024035Y015722D01*
X020360Y015454D02*
X020360Y020054D01*
X021760Y021654D01*
X021760Y024454D01*
X021312Y024728D02*
X021207Y024728D01*
X021088Y024847D02*
X021431Y024847D01*
X023700Y022951D02*
X029720Y022951D01*
X029720Y023069D02*
X023814Y023069D01*
X023932Y023188D02*
X029755Y023188D01*
X029720Y022832D02*
X023700Y022832D01*
X023700Y022714D02*
X029720Y022714D01*
X029720Y022595D02*
X023700Y022595D01*
X023700Y022477D02*
X029720Y022477D01*
X029720Y022358D02*
X023700Y022358D01*
X023700Y022240D02*
X029720Y022240D01*
X029720Y022121D02*
X023700Y022121D01*
X023700Y022003D02*
X029720Y022003D01*
X029720Y021884D02*
X023700Y021884D01*
X023700Y021766D02*
X029720Y021766D01*
X029711Y020699D02*
X032583Y020699D01*
X032465Y020581D02*
X029637Y020581D01*
X029563Y020462D02*
X032350Y020462D01*
X032350Y020344D02*
X029490Y020344D01*
X029416Y020225D02*
X032350Y020225D01*
X032344Y020107D02*
X029342Y020107D01*
X029269Y019988D02*
X032226Y019988D01*
X032107Y019870D02*
X029195Y019870D01*
X029121Y019751D02*
X032034Y019751D01*
X031939Y019633D02*
X029048Y019633D01*
X028974Y019514D02*
X031850Y019514D01*
X031850Y019396D02*
X028900Y019396D01*
X028827Y019277D02*
X031850Y019277D01*
X031850Y019159D02*
X028753Y019159D01*
X028679Y019040D02*
X031850Y019040D01*
X031850Y018922D02*
X028606Y018922D01*
X028532Y018803D02*
X031850Y018803D01*
X031930Y018685D02*
X028458Y018685D01*
X028385Y018566D02*
X033254Y018566D01*
X033372Y018448D02*
X028311Y018448D01*
X028237Y018329D02*
X033491Y018329D01*
X033600Y018211D02*
X028164Y018211D01*
X028090Y018092D02*
X033600Y018092D01*
X033600Y017974D02*
X028016Y017974D01*
X027943Y017855D02*
X033600Y017855D01*
X033471Y017737D02*
X027900Y017737D01*
X027900Y017618D02*
X033352Y017618D01*
X033297Y017500D02*
X030577Y017500D01*
X030733Y017381D02*
X033250Y017381D01*
X033250Y017263D02*
X030809Y017263D01*
X030855Y017144D02*
X033250Y017144D01*
X033297Y017026D02*
X030855Y017026D01*
X030834Y016907D02*
X033352Y016907D01*
X033471Y016789D02*
X030785Y016789D01*
X030676Y016670D02*
X033696Y016670D01*
X033721Y016460D02*
X033633Y016432D01*
X033550Y016389D01*
X033475Y016335D01*
X033409Y016269D01*
X033355Y016194D01*
X033313Y016111D01*
X033284Y016023D01*
X033270Y015931D01*
X033270Y015923D01*
X033821Y015923D01*
X033821Y016475D01*
X033813Y016475D01*
X033721Y016460D01*
X033638Y016433D02*
X030652Y016433D01*
X030771Y016315D02*
X033455Y016315D01*
X033356Y016196D02*
X030835Y016196D01*
X030835Y016078D02*
X033302Y016078D01*
X033274Y015959D02*
X030835Y015959D01*
X030818Y015841D02*
X033270Y015841D01*
X033292Y015722D02*
X030699Y015722D01*
X030581Y015604D02*
X033341Y015604D01*
X033821Y015604D02*
X033898Y015604D01*
X033898Y015722D02*
X033821Y015722D01*
X033821Y015841D02*
X033898Y015841D01*
X033898Y015959D02*
X033821Y015959D01*
X033821Y016078D02*
X033898Y016078D01*
X033898Y016196D02*
X033821Y016196D01*
X033821Y016315D02*
X033898Y016315D01*
X033898Y016433D02*
X033821Y016433D01*
X034081Y016433D02*
X035180Y016433D01*
X035180Y016315D02*
X034264Y016315D01*
X034363Y016196D02*
X035180Y016196D01*
X035180Y016078D02*
X034417Y016078D01*
X034445Y015959D02*
X035180Y015959D01*
X035180Y015841D02*
X034450Y015841D01*
X034427Y015722D02*
X035180Y015722D01*
X035180Y015604D02*
X034378Y015604D01*
X034294Y015485D02*
X035180Y015485D01*
X035180Y015367D02*
X034142Y015367D01*
X033898Y015367D02*
X033821Y015367D01*
X033821Y015485D02*
X033898Y015485D01*
X035180Y016552D02*
X027900Y016552D01*
X027900Y016670D02*
X030043Y016670D01*
X029934Y016789D02*
X027900Y016789D01*
X027900Y016907D02*
X029885Y016907D01*
X029865Y017026D02*
X027900Y017026D01*
X027900Y017144D02*
X029865Y017144D01*
X029910Y017263D02*
X027900Y017263D01*
X027900Y017381D02*
X029987Y017381D01*
X030142Y017500D02*
X027900Y017500D01*
X032641Y018685D02*
X032678Y018685D01*
X033515Y019040D02*
X035180Y019040D01*
X035180Y018922D02*
X033634Y018922D01*
X033752Y018803D02*
X035180Y018803D01*
X035180Y018685D02*
X033871Y018685D01*
X033989Y018566D02*
X035180Y018566D01*
X035180Y018448D02*
X034091Y018448D01*
X034120Y018329D02*
X035180Y018329D01*
X035180Y018211D02*
X034120Y018211D01*
X034120Y018092D02*
X035180Y018092D01*
X035180Y017974D02*
X034120Y017974D01*
X034120Y017855D02*
X035180Y017855D01*
X035180Y017737D02*
X034248Y017737D01*
X034367Y017618D02*
X035180Y017618D01*
X035180Y017500D02*
X034422Y017500D01*
X034470Y017381D02*
X035180Y017381D01*
X035180Y017263D02*
X034470Y017263D01*
X034470Y017144D02*
X035180Y017144D01*
X035180Y017026D02*
X034422Y017026D01*
X034367Y016907D02*
X035180Y016907D01*
X035180Y016789D02*
X034248Y016789D01*
X034023Y016670D02*
X035180Y016670D01*
X035180Y019159D02*
X033469Y019159D01*
X033469Y019277D02*
X035154Y019277D01*
X035063Y019396D02*
X033469Y019396D01*
X033469Y019514D02*
X034945Y019514D01*
X034826Y019633D02*
X033380Y019633D01*
X033196Y019870D02*
X034589Y019870D01*
X034471Y019988D02*
X033315Y019988D01*
X033370Y020107D02*
X034352Y020107D01*
X034234Y020225D02*
X033370Y020225D01*
X033370Y020344D02*
X034180Y020344D01*
X034180Y020462D02*
X033370Y020462D01*
X033254Y020581D02*
X034180Y020581D01*
X034180Y020699D02*
X033136Y020699D01*
X033116Y020818D02*
X034180Y020818D01*
X034180Y020936D02*
X033235Y020936D01*
X033350Y021055D02*
X034180Y021055D01*
X034180Y021173D02*
X033350Y021173D01*
X033350Y021292D02*
X034180Y021292D01*
X034180Y021410D02*
X033350Y021410D01*
X033278Y021529D02*
X034180Y021529D01*
X034180Y021647D02*
X033159Y021647D01*
X033078Y019751D02*
X034708Y019751D01*
X032687Y019633D02*
X032632Y019633D01*
X034180Y023662D02*
X030906Y023662D01*
X031025Y023780D02*
X034180Y023780D01*
X033075Y024017D02*
X032644Y024017D01*
X032762Y024136D02*
X032957Y024136D01*
X032912Y024728D02*
X032807Y024728D01*
X032688Y024847D02*
X033031Y024847D01*
X032031Y024847D02*
X031688Y024847D01*
X031807Y024728D02*
X031912Y024728D01*
X020605Y020699D02*
X019954Y020699D01*
X020072Y020581D02*
X020501Y020581D01*
X020398Y020462D02*
X020175Y020462D01*
X020200Y020344D02*
X020294Y020344D01*
X015482Y019550D02*
X015482Y019058D01*
X015474Y019058D01*
X015474Y019342D01*
X015474Y019550D01*
X015482Y019550D01*
X015474Y019550D02*
X014983Y019550D01*
X014983Y019405D01*
X014994Y019364D01*
X015015Y019328D01*
X015039Y019304D01*
X015015Y019280D01*
X014994Y019244D01*
X014983Y019203D01*
X014983Y019058D01*
X015474Y019058D01*
X015474Y019050D01*
X014983Y019050D01*
X014983Y018905D01*
X014994Y018864D01*
X015000Y018854D01*
X014170Y018854D01*
X014112Y018912D01*
X013607Y018912D01*
X013501Y018807D01*
X013501Y018301D01*
X013607Y018196D01*
X014112Y018196D01*
X014170Y018254D01*
X015000Y018254D01*
X014994Y018244D01*
X014983Y018203D01*
X014983Y018058D01*
X015474Y018058D01*
X015474Y018050D01*
X014983Y018050D01*
X014983Y017905D01*
X014994Y017864D01*
X015000Y017854D01*
X013670Y017854D01*
X013612Y017912D01*
X013107Y017912D01*
X013001Y017807D01*
X013001Y017301D01*
X013107Y017196D01*
X013612Y017196D01*
X013670Y017254D01*
X015000Y017254D01*
X014994Y017244D01*
X014983Y017203D01*
X014983Y017058D01*
X015474Y017058D01*
X015474Y017050D01*
X014983Y017050D01*
X014983Y016905D01*
X014994Y016864D01*
X015000Y016854D01*
X013170Y016854D01*
X013112Y016912D01*
X012607Y016912D01*
X012501Y016807D01*
X012501Y016412D01*
X012120Y016412D01*
X012120Y018946D01*
X012967Y019794D01*
X015020Y019794D01*
X015025Y019790D01*
X015015Y019780D01*
X014994Y019744D01*
X014983Y019703D01*
X014983Y019558D01*
X015474Y019558D01*
X015474Y019550D01*
X015474Y019514D02*
X015482Y019514D01*
X015474Y019396D02*
X015482Y019396D01*
X015474Y019277D02*
X015482Y019277D01*
X015474Y019159D02*
X015482Y019159D01*
X015013Y019277D02*
X012450Y019277D01*
X012332Y019159D02*
X014983Y019159D01*
X014983Y019040D02*
X012213Y019040D01*
X012120Y018922D02*
X014983Y018922D01*
X014986Y019396D02*
X012569Y019396D01*
X012687Y019514D02*
X014983Y019514D01*
X014983Y019633D02*
X012806Y019633D01*
X012924Y019751D02*
X014998Y019751D01*
X013501Y018803D02*
X012120Y018803D01*
X012120Y018685D02*
X013501Y018685D01*
X013501Y018566D02*
X012120Y018566D01*
X012120Y018448D02*
X013501Y018448D01*
X013501Y018329D02*
X012120Y018329D01*
X012120Y018211D02*
X013592Y018211D01*
X013669Y017855D02*
X014999Y017855D01*
X014983Y017974D02*
X012120Y017974D01*
X012120Y018092D02*
X014983Y018092D01*
X014985Y018211D02*
X014127Y018211D01*
X013050Y017855D02*
X012120Y017855D01*
X012120Y017737D02*
X013001Y017737D01*
X013001Y017618D02*
X012120Y017618D01*
X012120Y017500D02*
X013001Y017500D01*
X013001Y017381D02*
X012120Y017381D01*
X012120Y017263D02*
X013040Y017263D01*
X013117Y016907D02*
X014983Y016907D01*
X014983Y017026D02*
X012120Y017026D01*
X012120Y017144D02*
X014983Y017144D01*
X015000Y015754D02*
X014994Y015744D01*
X014983Y015703D01*
X014983Y015558D01*
X015474Y015558D01*
X015474Y015550D01*
X015482Y015550D01*
X015482Y015266D01*
X015482Y015058D01*
X015474Y015058D01*
X015474Y015550D01*
X014983Y015550D01*
X014983Y015405D01*
X014994Y015364D01*
X015015Y015328D01*
X015039Y015304D01*
X015015Y015280D01*
X014994Y015244D01*
X014983Y015203D01*
X014983Y015058D01*
X015474Y015058D01*
X015474Y015050D01*
X014983Y015050D01*
X014983Y014905D01*
X014994Y014864D01*
X015015Y014828D01*
X015025Y014818D01*
X015020Y014814D01*
X012210Y014814D01*
X012120Y014905D01*
X012120Y015696D01*
X012612Y015696D01*
X012670Y015754D01*
X015000Y015754D01*
X014988Y015722D02*
X012638Y015722D01*
X012120Y015604D02*
X014983Y015604D01*
X014983Y015485D02*
X012120Y015485D01*
X012120Y015367D02*
X014993Y015367D01*
X014996Y015248D02*
X012120Y015248D01*
X012120Y015130D02*
X014983Y015130D01*
X014983Y015011D02*
X012120Y015011D01*
X012132Y014893D02*
X014986Y014893D01*
X015474Y015130D02*
X015482Y015130D01*
X015474Y015248D02*
X015482Y015248D01*
X015474Y015367D02*
X015482Y015367D01*
X015474Y015485D02*
X015482Y015485D01*
X015222Y013708D02*
X010730Y013708D01*
X010612Y013826D02*
X011583Y013826D01*
X011430Y013945D02*
X010493Y013945D01*
X010375Y014063D02*
X011311Y014063D01*
X011193Y014182D02*
X010256Y014182D01*
X010138Y014300D02*
X011122Y014300D01*
X011120Y014419D02*
X010019Y014419D01*
X009901Y014537D02*
X011120Y014537D01*
X011120Y014656D02*
X009868Y014656D01*
X009868Y014774D02*
X011120Y014774D01*
X011120Y014893D02*
X009868Y014893D01*
X009868Y015011D02*
X011120Y015011D01*
X011120Y015130D02*
X009868Y015130D01*
X009268Y015130D02*
X008490Y015130D01*
X008490Y015248D02*
X009268Y015248D01*
X009268Y015367D02*
X008490Y015367D01*
X008490Y015485D02*
X009268Y015485D01*
X009268Y015604D02*
X008490Y015604D01*
X008490Y015722D02*
X009268Y015722D01*
X009268Y015841D02*
X008490Y015841D01*
X008490Y015959D02*
X009268Y015959D01*
X009268Y016078D02*
X008490Y016078D01*
X008490Y016196D02*
X009268Y016196D01*
X009268Y016315D02*
X008490Y016315D01*
X008490Y016433D02*
X009268Y016433D01*
X009268Y016552D02*
X008490Y016552D01*
X008490Y016670D02*
X009268Y016670D01*
X009268Y016789D02*
X008490Y016789D01*
X008490Y016907D02*
X009268Y016907D01*
X009268Y017026D02*
X008490Y017026D01*
X008490Y017144D02*
X009268Y017144D01*
X009268Y017263D02*
X008490Y017263D01*
X008490Y017381D02*
X009268Y017381D01*
X009268Y017500D02*
X008490Y017500D01*
X008490Y017618D02*
X009268Y017618D01*
X009268Y017737D02*
X008490Y017737D01*
X008490Y017855D02*
X009268Y017855D01*
X009268Y017974D02*
X008490Y017974D01*
X008490Y018092D02*
X009268Y018092D01*
X009268Y018211D02*
X008490Y018211D01*
X008490Y018329D02*
X009268Y018329D01*
X009268Y018448D02*
X008490Y018448D01*
X008490Y018566D02*
X009268Y018566D01*
X009268Y018685D02*
X008490Y018685D01*
X008490Y018803D02*
X009268Y018803D01*
X009268Y018922D02*
X008490Y018922D01*
X008490Y019040D02*
X009268Y019040D01*
X009268Y019159D02*
X008490Y019159D01*
X008490Y019277D02*
X009268Y019277D01*
X009268Y019396D02*
X008490Y019396D01*
X008490Y019514D02*
X009268Y019514D01*
X009268Y019633D02*
X008490Y019633D01*
X008490Y019751D02*
X009268Y019751D01*
X009268Y019870D02*
X008490Y019870D01*
X008490Y019988D02*
X009268Y019988D01*
X009268Y020107D02*
X008490Y020107D01*
X008490Y020225D02*
X009268Y020225D01*
X009268Y020344D02*
X008490Y020344D01*
X008490Y020462D02*
X009268Y020462D01*
X009268Y020581D02*
X008490Y020581D01*
X008490Y020699D02*
X009268Y020699D01*
X009268Y020818D02*
X008490Y020818D01*
X008490Y020936D02*
X009268Y020936D01*
X009268Y021055D02*
X008490Y021055D01*
X008490Y021173D02*
X009268Y021173D01*
X009268Y021292D02*
X008490Y021292D01*
X008490Y021410D02*
X009268Y021410D01*
X009268Y021529D02*
X008490Y021529D01*
X008490Y021647D02*
X009268Y021647D01*
X009268Y021766D02*
X008490Y021766D01*
X008490Y021884D02*
X009268Y021884D01*
X009268Y022003D02*
X008490Y022003D01*
X008490Y022121D02*
X009268Y022121D01*
X009268Y022240D02*
X008490Y022240D01*
X008490Y022358D02*
X009268Y022358D01*
X009268Y022477D02*
X008490Y022477D01*
X008490Y022595D02*
X009268Y022595D01*
X009268Y022714D02*
X008490Y022714D01*
X008490Y022832D02*
X009268Y022832D01*
X009268Y022951D02*
X008490Y022951D01*
X008490Y023069D02*
X009268Y023069D01*
X009268Y023188D02*
X008490Y023188D01*
X008490Y023306D02*
X009268Y023306D01*
X009268Y023425D02*
X008490Y023425D01*
X008490Y023543D02*
X009268Y023543D01*
X009268Y023662D02*
X008490Y023662D01*
X008490Y023780D02*
X009268Y023780D01*
X009268Y023899D02*
X008490Y023899D01*
X008490Y024017D02*
X009268Y024017D01*
X009268Y024136D02*
X008490Y024136D01*
X008490Y024254D02*
X009268Y024254D01*
X009268Y024373D02*
X008490Y024373D01*
X008490Y024491D02*
X009268Y024491D01*
X009268Y024610D02*
X008490Y024610D01*
X008490Y024728D02*
X009268Y024728D01*
X009268Y024847D02*
X008490Y024847D01*
X008490Y024965D02*
X009268Y024965D01*
X009268Y025084D02*
X008490Y025084D01*
X008490Y025202D02*
X009268Y025202D01*
X009268Y025321D02*
X008490Y025321D01*
X008490Y025439D02*
X009268Y025439D01*
X009268Y025558D02*
X008490Y025558D01*
X008490Y025676D02*
X009268Y025676D01*
X009268Y025795D02*
X008490Y025795D01*
X008490Y025913D02*
X009268Y025913D01*
X009268Y026032D02*
X008490Y026032D01*
X008490Y026150D02*
X009268Y026150D01*
X009268Y026269D02*
X008490Y026269D01*
X008490Y026387D02*
X009268Y026387D01*
X009268Y026506D02*
X008490Y026506D01*
X008623Y026624D02*
X009135Y026624D01*
X009037Y026743D02*
X008721Y026743D01*
X008771Y026861D02*
X008988Y026861D01*
X008958Y026980D02*
X008800Y026980D01*
X008800Y027098D02*
X008958Y027098D01*
X008975Y027217D02*
X008783Y027217D01*
X008734Y027335D02*
X009024Y027335D01*
X009105Y027454D02*
X008653Y027454D01*
X008534Y027572D02*
X009225Y027572D01*
X007847Y027572D02*
X007565Y027572D01*
X007565Y027454D02*
X007727Y027454D01*
X007646Y027335D02*
X007565Y027335D01*
X007565Y027217D02*
X007597Y027217D01*
X007580Y027098D02*
X007565Y027098D01*
X007565Y026980D02*
X007580Y026980D01*
X007565Y026861D02*
X007610Y026861D01*
X007565Y026743D02*
X007659Y026743D01*
X007565Y026624D02*
X007757Y026624D01*
X007890Y026506D02*
X007565Y026506D01*
X007565Y026387D02*
X007890Y026387D01*
X007890Y026269D02*
X007565Y026269D01*
X007565Y026150D02*
X007890Y026150D01*
X007890Y026032D02*
X007565Y026032D01*
X007565Y025913D02*
X007890Y025913D01*
X007890Y025795D02*
X007565Y025795D01*
X007565Y025676D02*
X007890Y025676D01*
X007890Y025558D02*
X007565Y025558D01*
X007565Y025439D02*
X007890Y025439D01*
X007890Y025321D02*
X007565Y025321D01*
X007565Y025202D02*
X007890Y025202D01*
X007890Y025084D02*
X007565Y025084D01*
X007565Y024965D02*
X007890Y024965D01*
X007890Y024847D02*
X007565Y024847D01*
X007565Y024728D02*
X007890Y024728D01*
X007890Y024610D02*
X007565Y024610D01*
X007565Y024491D02*
X007890Y024491D01*
X007890Y024373D02*
X007565Y024373D01*
X007565Y024254D02*
X007890Y024254D01*
X007890Y024136D02*
X007565Y024136D01*
X007565Y024017D02*
X007890Y024017D01*
X007890Y023899D02*
X007565Y023899D01*
X007565Y023780D02*
X007890Y023780D01*
X007890Y023662D02*
X007565Y023662D01*
X007565Y023543D02*
X007890Y023543D01*
X007890Y023425D02*
X007565Y023425D01*
X007565Y023306D02*
X007890Y023306D01*
X007890Y023188D02*
X007565Y023188D01*
X007565Y023069D02*
X007890Y023069D01*
X007890Y022951D02*
X007565Y022951D01*
X007565Y022832D02*
X007890Y022832D01*
X007890Y022714D02*
X007565Y022714D01*
X007565Y022595D02*
X007890Y022595D01*
X007890Y022477D02*
X007565Y022477D01*
X007565Y022358D02*
X007890Y022358D01*
X007890Y022240D02*
X007565Y022240D01*
X007565Y022121D02*
X007890Y022121D01*
X007890Y022003D02*
X007565Y022003D01*
X007565Y021884D02*
X007890Y021884D01*
X007890Y021766D02*
X007565Y021766D01*
X007565Y021647D02*
X007890Y021647D01*
X007890Y021529D02*
X007565Y021529D01*
X007565Y021410D02*
X007890Y021410D01*
X007890Y021292D02*
X007565Y021292D01*
X007565Y021173D02*
X007890Y021173D01*
X007890Y021055D02*
X007565Y021055D01*
X007565Y020936D02*
X007890Y020936D01*
X007890Y020818D02*
X007565Y020818D01*
X007565Y020699D02*
X007890Y020699D01*
X007890Y020581D02*
X007565Y020581D01*
X007565Y020462D02*
X007890Y020462D01*
X007890Y020344D02*
X007565Y020344D01*
X007565Y020225D02*
X007890Y020225D01*
X007890Y020107D02*
X007565Y020107D01*
X007565Y019988D02*
X007890Y019988D01*
X007890Y019870D02*
X007565Y019870D01*
X007565Y019751D02*
X007890Y019751D01*
X007890Y019633D02*
X007565Y019633D01*
X007565Y019514D02*
X007890Y019514D01*
X007890Y019396D02*
X007565Y019396D01*
X007565Y019277D02*
X007890Y019277D01*
X007890Y019159D02*
X007540Y019159D01*
X007540Y019040D02*
X007890Y019040D01*
X007890Y018922D02*
X007540Y018922D01*
X007540Y018803D02*
X007890Y018803D01*
X007890Y018685D02*
X007540Y018685D01*
X007540Y018566D02*
X007890Y018566D01*
X007890Y018448D02*
X007540Y018448D01*
X007540Y018329D02*
X007890Y018329D01*
X007890Y018211D02*
X007540Y018211D01*
X007540Y018092D02*
X007890Y018092D01*
X007890Y017974D02*
X007540Y017974D01*
X007540Y017855D02*
X007890Y017855D01*
X007890Y017737D02*
X007540Y017737D01*
X007540Y017618D02*
X007890Y017618D01*
X007890Y017500D02*
X007540Y017500D01*
X007540Y017381D02*
X007890Y017381D01*
X007890Y017263D02*
X007540Y017263D01*
X007540Y017144D02*
X007890Y017144D01*
X007890Y017026D02*
X007540Y017026D01*
X007540Y016907D02*
X007890Y016907D01*
X007890Y016789D02*
X007540Y016789D01*
X007540Y016670D02*
X007890Y016670D01*
X007890Y016552D02*
X007540Y016552D01*
X007540Y016433D02*
X007890Y016433D01*
X007890Y016315D02*
X007540Y016315D01*
X007540Y016196D02*
X007890Y016196D01*
X007890Y016078D02*
X007540Y016078D01*
X007540Y015959D02*
X007890Y015959D01*
X007890Y015841D02*
X007540Y015841D01*
X007540Y015722D02*
X007890Y015722D01*
X007890Y015604D02*
X007540Y015604D01*
X007540Y015485D02*
X007890Y015485D01*
X007890Y015367D02*
X007540Y015367D01*
X007540Y015248D02*
X007890Y015248D01*
X007890Y015130D02*
X007540Y015130D01*
X007540Y015011D02*
X007890Y015011D01*
X007890Y014893D02*
X007540Y014893D01*
X007540Y014774D02*
X007890Y014774D01*
X007890Y014656D02*
X007540Y014656D01*
X007540Y014537D02*
X007890Y014537D01*
X007890Y014419D02*
X007540Y014419D01*
X007540Y014300D02*
X007890Y014300D01*
X007890Y014182D02*
X007540Y014182D01*
X007540Y014063D02*
X007890Y014063D01*
X007945Y013945D02*
X007540Y013945D01*
X007540Y013826D02*
X008063Y013826D01*
X008182Y013708D02*
X007540Y013708D01*
X007540Y013589D02*
X008300Y013589D01*
X008419Y013471D02*
X007540Y013471D01*
X007540Y013352D02*
X008537Y013352D01*
X008656Y013234D02*
X007540Y013234D01*
X007540Y013115D02*
X008774Y013115D01*
X008893Y012997D02*
X007540Y012997D01*
X007540Y012878D02*
X009011Y012878D01*
X009130Y012760D02*
X007540Y012760D01*
X007540Y012641D02*
X009248Y012641D01*
X009367Y012523D02*
X007540Y012523D01*
X007540Y012404D02*
X009485Y012404D01*
X009604Y012286D02*
X007540Y012286D01*
X007540Y012167D02*
X009722Y012167D01*
X009841Y012049D02*
X007540Y012049D01*
X007540Y011930D02*
X009959Y011930D01*
X009871Y011664D02*
X009448Y011664D01*
X009150Y011365D01*
X009150Y010943D01*
X009448Y010644D01*
X009871Y010644D01*
X010170Y010943D01*
X010170Y011365D01*
X009871Y011664D01*
X009960Y011575D02*
X013060Y011575D01*
X013060Y011456D02*
X010079Y011456D01*
X010170Y011338D02*
X010552Y011338D01*
X010552Y011219D02*
X010170Y011219D01*
X010170Y011101D02*
X010552Y011101D01*
X010552Y010982D02*
X010170Y010982D01*
X010090Y010864D02*
X010552Y010864D01*
X010552Y010745D02*
X009972Y010745D01*
X010552Y010627D02*
X007540Y010627D01*
X007540Y010745D02*
X008376Y010745D01*
X008457Y010664D02*
X008640Y010664D01*
X008640Y011134D01*
X008680Y011134D01*
X008680Y011174D01*
X009150Y011174D01*
X009150Y011357D01*
X008862Y011644D01*
X008680Y011644D01*
X008680Y011174D01*
X008640Y011174D01*
X008640Y011644D01*
X008457Y011644D01*
X008170Y011357D01*
X008170Y011174D01*
X008640Y011174D01*
X008640Y011134D01*
X008170Y011134D01*
X008170Y010951D01*
X008457Y010664D01*
X008640Y010745D02*
X008680Y010745D01*
X008680Y010664D02*
X008862Y010664D01*
X009150Y010951D01*
X009150Y011134D01*
X008680Y011134D01*
X008680Y010664D01*
X008680Y010864D02*
X008640Y010864D01*
X008640Y010982D02*
X008680Y010982D01*
X008680Y011101D02*
X008640Y011101D01*
X008640Y011219D02*
X008680Y011219D01*
X008680Y011338D02*
X008640Y011338D01*
X008640Y011456D02*
X008680Y011456D01*
X008680Y011575D02*
X008640Y011575D01*
X008387Y011575D02*
X007540Y011575D01*
X007540Y011693D02*
X012996Y011693D01*
X012878Y011812D02*
X007540Y011812D01*
X007540Y011456D02*
X008269Y011456D01*
X008170Y011338D02*
X007540Y011338D01*
X007540Y011219D02*
X008170Y011219D01*
X008170Y011101D02*
X007540Y011101D01*
X007540Y010982D02*
X008170Y010982D01*
X008257Y010864D02*
X007540Y010864D01*
X007540Y010508D02*
X010570Y010508D01*
X010501Y010390D02*
X007540Y010390D01*
X007540Y010271D02*
X010501Y010271D01*
X010501Y010153D02*
X007540Y010153D01*
X007540Y010034D02*
X010501Y010034D01*
X010501Y009916D02*
X007540Y009916D01*
X007540Y009797D02*
X010606Y009797D01*
X010860Y010154D02*
X010860Y010936D01*
X011060Y009679D02*
X007540Y009679D01*
X007540Y009560D02*
X011060Y009560D01*
X010922Y009442D02*
X009965Y009442D01*
X009354Y009442D02*
X008937Y009442D01*
X008854Y009524D02*
X008680Y009524D01*
X008680Y009074D01*
X009130Y009074D01*
X009130Y009249D01*
X008854Y009524D01*
X008680Y009442D02*
X008640Y009442D01*
X008640Y009524D02*
X008465Y009524D01*
X008190Y009249D01*
X008190Y009074D01*
X008640Y009074D01*
X008640Y009524D01*
X008640Y009323D02*
X008680Y009323D01*
X008680Y009205D02*
X008640Y009205D01*
X008640Y009086D02*
X008680Y009086D01*
X008680Y009074D02*
X008640Y009074D01*
X008640Y009034D01*
X008680Y009034D01*
X008680Y009074D01*
X008680Y009034D02*
X009130Y009034D01*
X009130Y008859D01*
X008854Y008584D01*
X008680Y008584D01*
X008680Y009034D01*
X008640Y009034D02*
X008640Y008584D01*
X008465Y008584D01*
X008190Y008859D01*
X008190Y009034D01*
X008640Y009034D01*
X008640Y008968D02*
X008680Y008968D01*
X008680Y008849D02*
X008640Y008849D01*
X008640Y008731D02*
X008680Y008731D01*
X008680Y008612D02*
X008640Y008612D01*
X008437Y008612D02*
X007540Y008612D01*
X007540Y008494D02*
X009875Y008494D01*
X009873Y008612D02*
X009993Y008612D01*
X010029Y008731D02*
X010112Y008731D01*
X009756Y008375D02*
X007540Y008375D01*
X007540Y008257D02*
X009638Y008257D01*
X009519Y008138D02*
X007540Y008138D01*
X007540Y008020D02*
X009401Y008020D01*
X009282Y007901D02*
X007540Y007901D01*
X007540Y007783D02*
X009164Y007783D01*
X009045Y007664D02*
X007540Y007664D01*
X007540Y007546D02*
X008927Y007546D01*
X008808Y007427D02*
X007540Y007427D01*
X007540Y007309D02*
X008690Y007309D01*
X008571Y007190D02*
X007540Y007190D01*
X007540Y007072D02*
X008453Y007072D01*
X008334Y006953D02*
X007540Y006953D01*
X007540Y006835D02*
X008216Y006835D01*
X008097Y006716D02*
X007540Y006716D01*
X007540Y006598D02*
X007979Y006598D01*
X007905Y006479D02*
X007540Y006479D01*
X007540Y006361D02*
X007890Y006361D01*
X007890Y006242D02*
X007540Y006242D01*
X007540Y006124D02*
X007890Y006124D01*
X007890Y006005D02*
X007540Y006005D01*
X007540Y005887D02*
X007890Y005887D01*
X007890Y005768D02*
X007540Y005768D01*
X007540Y005650D02*
X007890Y005650D01*
X007890Y005531D02*
X007540Y005531D01*
X007540Y005413D02*
X007890Y005413D01*
X007890Y005294D02*
X007540Y005294D01*
X007540Y005176D02*
X007890Y005176D01*
X007890Y005057D02*
X007540Y005057D01*
X007540Y004939D02*
X007890Y004939D01*
X007890Y004820D02*
X007540Y004820D01*
X007540Y004702D02*
X007890Y004702D01*
X007890Y004583D02*
X007540Y004583D01*
X007540Y004465D02*
X007890Y004465D01*
X007890Y004346D02*
X007540Y004346D01*
X007540Y004228D02*
X007890Y004228D01*
X007890Y004109D02*
X007540Y004109D01*
X007540Y003991D02*
X007890Y003991D01*
X007890Y003872D02*
X007540Y003872D01*
X007540Y003754D02*
X007890Y003754D01*
X007890Y003635D02*
X007540Y003635D01*
X007540Y003517D02*
X007790Y003517D01*
X007672Y003398D02*
X007540Y003398D01*
X007540Y003280D02*
X007623Y003280D01*
X007580Y003161D02*
X007540Y003161D01*
X007540Y003043D02*
X007580Y003043D01*
X007584Y002924D02*
X007540Y002924D01*
X007540Y002806D02*
X007633Y002806D01*
X007695Y002687D02*
X007540Y002687D01*
X007540Y002569D02*
X007813Y002569D01*
X008054Y002450D02*
X007540Y002450D01*
X007540Y002332D02*
X014658Y002332D01*
X014539Y002450D02*
X013550Y002450D01*
X013536Y002444D02*
X013760Y002537D01*
X013932Y002709D01*
X014025Y002933D01*
X014025Y003175D01*
X013932Y003400D01*
X013760Y003571D01*
X013536Y003664D01*
X013293Y003664D01*
X013069Y003571D01*
X012897Y003400D01*
X012805Y003175D01*
X012805Y002933D01*
X012897Y002709D01*
X013069Y002537D01*
X013293Y002444D01*
X013536Y002444D01*
X013279Y002450D02*
X012173Y002450D01*
X012414Y002569D02*
X013037Y002569D01*
X012919Y002687D02*
X012532Y002687D01*
X012594Y002806D02*
X012857Y002806D01*
X012808Y002924D02*
X012643Y002924D01*
X012647Y003043D02*
X012805Y003043D01*
X012805Y003161D02*
X012647Y003161D01*
X012604Y003280D02*
X012848Y003280D01*
X012897Y003398D02*
X012628Y003398D01*
X012746Y003517D02*
X013014Y003517D01*
X012865Y003635D02*
X013223Y003635D01*
X012983Y003754D02*
X032059Y003754D01*
X031996Y003635D02*
X032177Y003635D01*
X032150Y003571D02*
X031926Y003664D01*
X031683Y003664D01*
X031459Y003571D01*
X031287Y003400D01*
X031194Y003175D01*
X031194Y002933D01*
X031287Y002709D01*
X031459Y002537D01*
X031683Y002444D01*
X031926Y002444D01*
X032150Y002537D01*
X032322Y002709D01*
X032414Y002933D01*
X032414Y003175D01*
X032322Y003400D01*
X032150Y003571D01*
X032205Y003517D02*
X032296Y003517D01*
X032322Y003398D02*
X032414Y003398D01*
X032371Y003280D02*
X032533Y003280D01*
X032572Y003161D02*
X032414Y003161D01*
X032414Y003043D02*
X032572Y003043D01*
X032576Y002924D02*
X032411Y002924D01*
X032362Y002806D02*
X032625Y002806D01*
X032687Y002687D02*
X032300Y002687D01*
X032182Y002569D02*
X032805Y002569D01*
X033047Y002450D02*
X031940Y002450D01*
X031669Y002450D02*
X030562Y002450D01*
X030804Y002569D02*
X031427Y002569D01*
X031309Y002687D02*
X030922Y002687D01*
X030984Y002806D02*
X031247Y002806D01*
X031198Y002924D02*
X031033Y002924D01*
X031036Y003043D02*
X031194Y003043D01*
X031194Y003161D02*
X031036Y003161D01*
X030993Y003280D02*
X031238Y003280D01*
X031287Y003398D02*
X030944Y003398D01*
X030827Y003517D02*
X031404Y003517D01*
X031613Y003635D02*
X030618Y003635D01*
X030235Y003635D02*
X029240Y003635D01*
X029449Y003517D02*
X030026Y003517D01*
X029909Y003398D02*
X029566Y003398D01*
X029615Y003280D02*
X029860Y003280D01*
X029816Y003161D02*
X029658Y003161D01*
X029658Y003043D02*
X029816Y003043D01*
X029820Y002924D02*
X029655Y002924D01*
X029606Y002806D02*
X029754Y002806D01*
X029635Y002687D02*
X029544Y002687D01*
X029517Y002569D02*
X029426Y002569D01*
X029398Y002450D02*
X029184Y002450D01*
X029280Y002332D02*
X028750Y002332D01*
X028869Y002450D02*
X028913Y002450D01*
X029161Y002213D02*
X028632Y002213D01*
X028513Y002095D02*
X029043Y002095D01*
X028924Y001976D02*
X028395Y001976D01*
X028276Y001858D02*
X028806Y001858D01*
X028687Y001739D02*
X028158Y001739D01*
X028039Y001621D02*
X028569Y001621D01*
X028450Y001502D02*
X027921Y001502D01*
X027802Y001384D02*
X028332Y001384D01*
X028825Y001028D02*
X034180Y001028D01*
X034180Y001147D02*
X028943Y001147D01*
X029062Y001265D02*
X034180Y001265D01*
X034180Y001384D02*
X029180Y001384D01*
X029299Y001502D02*
X034180Y001502D01*
X034180Y001621D02*
X029417Y001621D01*
X029536Y001739D02*
X034180Y001739D01*
X034180Y001858D02*
X029654Y001858D01*
X029773Y001976D02*
X034180Y001976D01*
X034180Y002095D02*
X029891Y002095D01*
X030010Y002213D02*
X034180Y002213D01*
X034180Y002332D02*
X030128Y002332D01*
X030247Y002450D02*
X030291Y002450D01*
X028857Y003635D02*
X027862Y003635D01*
X028071Y003517D02*
X028648Y003517D01*
X028531Y003398D02*
X028188Y003398D01*
X028237Y003280D02*
X028482Y003280D01*
X028438Y003161D02*
X028281Y003161D01*
X028281Y003043D02*
X028438Y003043D01*
X028442Y002924D02*
X028277Y002924D01*
X028228Y002806D02*
X028376Y002806D01*
X028257Y002687D02*
X028166Y002687D01*
X028139Y002569D02*
X028048Y002569D01*
X028020Y002450D02*
X027806Y002450D01*
X027902Y002332D02*
X027372Y002332D01*
X027491Y002450D02*
X027535Y002450D01*
X027783Y002213D02*
X027254Y002213D01*
X027135Y002095D02*
X027665Y002095D01*
X027546Y001976D02*
X027017Y001976D01*
X026898Y001858D02*
X027428Y001858D01*
X026761Y002569D02*
X026670Y002569D01*
X026638Y002537D02*
X026810Y002709D01*
X026903Y002933D01*
X026903Y003175D01*
X026810Y003400D01*
X026638Y003571D01*
X026414Y003664D01*
X026171Y003664D01*
X025947Y003571D01*
X025775Y003400D01*
X025683Y003175D01*
X025683Y002933D01*
X025775Y002709D01*
X025947Y002537D01*
X026171Y002444D01*
X026414Y002444D01*
X026638Y002537D01*
X026642Y002450D02*
X026428Y002450D01*
X026157Y002450D02*
X025050Y002450D01*
X025036Y002444D02*
X025260Y002537D01*
X025432Y002709D01*
X025525Y002933D01*
X025525Y003175D01*
X025432Y003400D01*
X025260Y003571D01*
X025036Y003664D01*
X024793Y003664D01*
X024569Y003571D01*
X024397Y003400D01*
X024305Y003175D01*
X024305Y002933D01*
X024397Y002709D01*
X024569Y002537D01*
X024793Y002444D01*
X025036Y002444D01*
X024779Y002450D02*
X023673Y002450D01*
X023658Y002444D02*
X023882Y002537D01*
X024054Y002709D01*
X024147Y002933D01*
X024147Y003175D01*
X024054Y003400D01*
X023882Y003571D01*
X023658Y003664D01*
X023415Y003664D01*
X023191Y003571D01*
X023020Y003400D01*
X023001Y003354D01*
X022218Y003354D01*
X022199Y003400D01*
X022028Y003571D01*
X021804Y003664D01*
X021561Y003664D01*
X021337Y003571D01*
X021165Y003400D01*
X021072Y003175D01*
X021072Y002933D01*
X021165Y002709D01*
X021337Y002537D01*
X021561Y002444D01*
X021804Y002444D01*
X022028Y002537D01*
X022199Y002709D01*
X022218Y002754D01*
X023001Y002754D01*
X023020Y002709D01*
X023191Y002537D01*
X023415Y002444D01*
X023658Y002444D01*
X023401Y002450D02*
X021818Y002450D01*
X022060Y002569D02*
X023160Y002569D01*
X023041Y002687D02*
X022178Y002687D01*
X021547Y002450D02*
X020440Y002450D01*
X020426Y002444D02*
X020650Y002537D01*
X020822Y002709D01*
X020914Y002933D01*
X020914Y003175D01*
X020822Y003400D01*
X020650Y003571D01*
X020426Y003664D01*
X020183Y003664D01*
X019959Y003571D01*
X019787Y003400D01*
X019694Y003175D01*
X019694Y002933D01*
X019787Y002709D01*
X019959Y002537D01*
X020183Y002444D01*
X020426Y002444D01*
X020169Y002450D02*
X019062Y002450D01*
X019048Y002444D02*
X019272Y002537D01*
X019444Y002709D01*
X019536Y002933D01*
X019536Y003175D01*
X019444Y003400D01*
X019272Y003571D01*
X019048Y003664D01*
X018805Y003664D01*
X018581Y003571D01*
X018409Y003400D01*
X018316Y003175D01*
X018316Y002933D01*
X018409Y002709D01*
X018581Y002537D01*
X018805Y002444D01*
X019048Y002444D01*
X018791Y002450D02*
X018388Y002450D01*
X018269Y002569D02*
X018549Y002569D01*
X018431Y002687D02*
X018151Y002687D01*
X018106Y002806D02*
X018369Y002806D01*
X018320Y002924D02*
X018155Y002924D01*
X018158Y003043D02*
X018316Y003043D01*
X018316Y003161D02*
X018158Y003161D01*
X018115Y003280D02*
X018360Y003280D01*
X018409Y003398D02*
X018066Y003398D01*
X017949Y003517D02*
X018526Y003517D01*
X018735Y003635D02*
X017740Y003635D01*
X017357Y003635D02*
X016362Y003635D01*
X016571Y003517D02*
X017148Y003517D01*
X017031Y003398D02*
X016688Y003398D01*
X016737Y003280D02*
X016982Y003280D01*
X016938Y003161D02*
X016781Y003161D01*
X016781Y003043D02*
X016938Y003043D01*
X016942Y002924D02*
X016777Y002924D01*
X016728Y002806D02*
X016991Y002806D01*
X017053Y002687D02*
X016666Y002687D01*
X016769Y002569D02*
X017171Y002569D01*
X017413Y002450D02*
X016888Y002450D01*
X017006Y002332D02*
X017658Y002332D01*
X017776Y002213D02*
X017125Y002213D01*
X017243Y002095D02*
X017895Y002095D01*
X018013Y001976D02*
X017362Y001976D01*
X017480Y001858D02*
X018132Y001858D01*
X017106Y001384D02*
X016454Y001384D01*
X016336Y001502D02*
X016987Y001502D01*
X017105Y001384D02*
X017105Y001384D01*
X016869Y001621D02*
X016217Y001621D01*
X016099Y001739D02*
X016750Y001739D01*
X016632Y001858D02*
X015980Y001858D01*
X015862Y001976D02*
X016513Y001976D01*
X016395Y002095D02*
X015743Y002095D01*
X015625Y002213D02*
X016276Y002213D01*
X016158Y002332D02*
X015506Y002332D01*
X015388Y002450D02*
X016035Y002450D01*
X015793Y002569D02*
X015269Y002569D01*
X015288Y002687D02*
X015675Y002687D01*
X015613Y002806D02*
X015350Y002806D01*
X015399Y002924D02*
X015564Y002924D01*
X015561Y003043D02*
X015403Y003043D01*
X015403Y003161D02*
X015561Y003161D01*
X015604Y003280D02*
X015359Y003280D01*
X015310Y003398D02*
X015653Y003398D01*
X015770Y003517D02*
X015193Y003517D01*
X014984Y003635D02*
X015979Y003635D01*
X014601Y003635D02*
X013606Y003635D01*
X013815Y003517D02*
X014392Y003517D01*
X014275Y003398D02*
X013932Y003398D01*
X013981Y003280D02*
X014226Y003280D01*
X014183Y003161D02*
X014025Y003161D01*
X014025Y003043D02*
X014183Y003043D01*
X014186Y002924D02*
X014021Y002924D01*
X013972Y002806D02*
X014235Y002806D01*
X014297Y002687D02*
X013910Y002687D01*
X013792Y002569D02*
X014415Y002569D01*
X014776Y002213D02*
X007540Y002213D01*
X007540Y002095D02*
X014895Y002095D01*
X015013Y001976D02*
X007540Y001976D01*
X007540Y001858D02*
X015132Y001858D01*
X015250Y001739D02*
X007540Y001739D01*
X007540Y001621D02*
X015369Y001621D01*
X015487Y001502D02*
X007540Y001502D01*
X007540Y001384D02*
X015606Y001384D01*
X015724Y001265D02*
X007540Y001265D01*
X007540Y001147D02*
X015843Y001147D01*
X015961Y001028D02*
X007540Y001028D01*
X008326Y002450D02*
X009432Y002450D01*
X009191Y002569D02*
X008567Y002569D01*
X008686Y002687D02*
X009073Y002687D01*
X009011Y002806D02*
X008748Y002806D01*
X008797Y002924D02*
X008962Y002924D01*
X008958Y003043D02*
X008800Y003043D01*
X008800Y003161D02*
X008958Y003161D01*
X009001Y003280D02*
X008757Y003280D01*
X008708Y003398D02*
X009050Y003398D01*
X009168Y003517D02*
X008590Y003517D01*
X008490Y003635D02*
X009268Y003635D01*
X009268Y003754D02*
X008490Y003754D01*
X008490Y003872D02*
X009268Y003872D01*
X009268Y003991D02*
X008490Y003991D01*
X008490Y004109D02*
X009268Y004109D01*
X009268Y004228D02*
X008490Y004228D01*
X008490Y004346D02*
X009268Y004346D01*
X009268Y004465D02*
X008490Y004465D01*
X008490Y004583D02*
X009268Y004583D01*
X009268Y004702D02*
X008490Y004702D01*
X008490Y004820D02*
X009268Y004820D01*
X009268Y004939D02*
X008490Y004939D01*
X008490Y005057D02*
X009268Y005057D01*
X009268Y005176D02*
X008490Y005176D01*
X008490Y005294D02*
X009268Y005294D01*
X009268Y005413D02*
X008490Y005413D01*
X008490Y005531D02*
X009268Y005531D01*
X009268Y005650D02*
X008490Y005650D01*
X008490Y005768D02*
X009268Y005768D01*
X009268Y005887D02*
X008490Y005887D01*
X008490Y006005D02*
X009268Y006005D01*
X009268Y006124D02*
X008490Y006124D01*
X008490Y006242D02*
X009268Y006242D01*
X009268Y006361D02*
X008590Y006361D01*
X008709Y006479D02*
X009268Y006479D01*
X009268Y006598D02*
X008827Y006598D01*
X008946Y006716D02*
X009268Y006716D01*
X009268Y006835D02*
X009064Y006835D01*
X009183Y006953D02*
X009268Y006953D01*
X009446Y008612D02*
X008882Y008612D01*
X009001Y008731D02*
X009290Y008731D01*
X009214Y008849D02*
X009119Y008849D01*
X009130Y008968D02*
X009170Y008968D01*
X009170Y009086D02*
X009130Y009086D01*
X009130Y009205D02*
X009191Y009205D01*
X009241Y009323D02*
X009055Y009323D01*
X008382Y009442D02*
X007540Y009442D01*
X007540Y009323D02*
X008264Y009323D01*
X008190Y009205D02*
X007540Y009205D01*
X007540Y009086D02*
X008190Y009086D01*
X008190Y008968D02*
X007540Y008968D01*
X007540Y008849D02*
X008200Y008849D01*
X008318Y008731D02*
X007540Y008731D01*
X008943Y010745D02*
X009347Y010745D01*
X009229Y010864D02*
X009062Y010864D01*
X009150Y010982D02*
X009150Y010982D01*
X009150Y011101D02*
X009150Y011101D01*
X009150Y011219D02*
X009150Y011219D01*
X009150Y011338D02*
X009150Y011338D01*
X009240Y011456D02*
X009050Y011456D01*
X008932Y011575D02*
X009359Y011575D01*
X010215Y012523D02*
X013467Y012523D01*
X013585Y012404D02*
X013134Y012404D01*
X013252Y012286D02*
X013704Y012286D01*
X013822Y012167D02*
X013371Y012167D01*
X013489Y012049D02*
X013941Y012049D01*
X014059Y011930D02*
X013608Y011930D01*
X013660Y011812D02*
X014060Y011812D01*
X014060Y011693D02*
X013660Y011693D01*
X013660Y011575D02*
X014060Y011575D01*
X014060Y011456D02*
X013660Y011456D01*
X014660Y011930D02*
X015373Y011930D01*
X015301Y012049D02*
X014660Y012049D01*
X014637Y012167D02*
X015301Y012167D01*
X015301Y012286D02*
X014552Y012286D01*
X014434Y012404D02*
X015301Y012404D01*
X015317Y012523D02*
X014315Y012523D01*
X014197Y012641D02*
X015053Y012641D01*
X015030Y012760D02*
X014078Y012760D01*
X013960Y012878D02*
X015030Y012878D01*
X015030Y012997D02*
X013841Y012997D01*
X013713Y013115D02*
X015030Y013115D01*
X015030Y013234D02*
X011204Y013234D01*
X011086Y013352D02*
X015030Y013352D01*
X015057Y013471D02*
X010967Y013471D01*
X010849Y013589D02*
X015222Y013589D01*
X015660Y012754D02*
X015660Y012254D01*
X017100Y011930D02*
X018014Y011930D01*
X017991Y012049D02*
X018133Y012049D01*
X018083Y012167D02*
X018251Y012167D01*
X018370Y012286D02*
X018100Y012286D01*
X018100Y012404D02*
X018488Y012404D01*
X018607Y012523D02*
X018100Y012523D01*
X018100Y012641D02*
X018725Y012641D01*
X018743Y012760D02*
X018100Y012760D01*
X018100Y012878D02*
X018701Y012878D01*
X018701Y012997D02*
X018100Y012997D01*
X018100Y013115D02*
X018701Y013115D01*
X018701Y013234D02*
X018100Y013234D01*
X018100Y013352D02*
X018747Y013352D01*
X018752Y013826D02*
X018100Y013826D01*
X018100Y013708D02*
X020095Y013708D01*
X020360Y014054D02*
X019241Y014054D01*
X019713Y014300D02*
X020001Y014300D01*
X019245Y015130D02*
X019237Y015130D01*
X019237Y015248D02*
X019245Y015248D01*
X019237Y015367D02*
X019245Y015367D01*
X019237Y015485D02*
X019245Y015485D01*
X018770Y014300D02*
X018345Y014300D01*
X018226Y014182D02*
X018727Y014182D01*
X018727Y014063D02*
X018108Y014063D01*
X018100Y013945D02*
X018727Y013945D01*
X017896Y011812D02*
X017100Y011812D01*
X017100Y011693D02*
X017777Y011693D01*
X017659Y011575D02*
X017100Y011575D01*
X017100Y011456D02*
X017540Y011456D01*
X020400Y010271D02*
X021820Y010271D01*
X021772Y010153D02*
X021872Y010153D01*
X021820Y010034D02*
X021818Y010034D01*
X021818Y009916D02*
X021820Y009916D01*
X022375Y009916D02*
X022385Y009916D01*
X022375Y010034D02*
X022385Y010034D01*
X022375Y010153D02*
X022385Y010153D01*
X022375Y010271D02*
X022385Y010271D01*
X022375Y010390D02*
X022385Y010390D01*
X022375Y010508D02*
X022385Y010508D01*
X022375Y010627D02*
X022385Y010627D01*
X022375Y010745D02*
X022385Y010745D01*
X022375Y010864D02*
X022385Y010864D01*
X022375Y010982D02*
X022385Y010982D01*
X022375Y011101D02*
X022385Y011101D01*
X022375Y011219D02*
X022385Y011219D01*
X022375Y011338D02*
X022385Y011338D01*
X022940Y011338D02*
X025780Y011338D01*
X025780Y011456D02*
X022940Y011456D01*
X022934Y011575D02*
X025785Y011575D01*
X025766Y011693D02*
X022953Y011693D01*
X022960Y011812D02*
X025760Y011812D01*
X025760Y011930D02*
X022960Y011930D01*
X022960Y012049D02*
X025760Y012049D01*
X025792Y012167D02*
X023065Y012167D01*
X023230Y012286D02*
X025760Y012286D01*
X025760Y012404D02*
X023349Y012404D01*
X022930Y011219D02*
X025789Y011219D01*
X025793Y011101D02*
X022926Y011101D01*
X022940Y010982D02*
X025780Y010982D01*
X025780Y010864D02*
X022940Y010864D01*
X022937Y010745D02*
X025782Y010745D01*
X025808Y010627D02*
X022911Y010627D01*
X022940Y010508D02*
X025780Y010508D01*
X025780Y010390D02*
X022940Y010390D01*
X022940Y010271D02*
X025780Y010271D01*
X025832Y010153D02*
X022887Y010153D01*
X022940Y010034D02*
X025780Y010034D01*
X025780Y009916D02*
X022940Y009916D01*
X022940Y009797D02*
X025780Y009797D01*
X025810Y009679D02*
X022909Y009679D01*
X022960Y009560D02*
X025760Y009560D01*
X025760Y009442D02*
X022960Y009442D01*
X021111Y008968D02*
X020808Y008968D01*
X020903Y008849D02*
X021016Y008849D01*
X021016Y008731D02*
X020903Y008731D01*
X020903Y008612D02*
X021016Y008612D01*
X021016Y008494D02*
X020903Y008494D01*
X020903Y008375D02*
X021016Y008375D01*
X021016Y008257D02*
X020903Y008257D01*
X020903Y008138D02*
X021016Y008138D01*
X021016Y008020D02*
X020903Y008020D01*
X020869Y007901D02*
X021050Y007901D01*
X023648Y005887D02*
X024099Y005887D01*
X023981Y005768D02*
X023767Y005768D01*
X023870Y005650D02*
X023870Y005650D01*
X023870Y005531D02*
X023870Y005531D01*
X023870Y005413D02*
X023870Y005413D01*
X023870Y005294D02*
X023870Y005294D01*
X023802Y005176D02*
X023945Y005176D01*
X024064Y005057D02*
X023684Y005057D01*
X023212Y004939D02*
X024626Y004939D01*
X024726Y004820D02*
X023093Y004820D01*
X022975Y004702D02*
X024844Y004702D01*
X024398Y005057D02*
X024321Y005057D01*
X024321Y005176D02*
X024398Y005176D01*
X024398Y005294D02*
X024321Y005294D01*
X024321Y005413D02*
X024398Y005413D01*
X022856Y004583D02*
X027363Y004583D01*
X027479Y003635D02*
X026484Y003635D01*
X026693Y003517D02*
X027270Y003517D01*
X027153Y003398D02*
X026810Y003398D01*
X026859Y003280D02*
X027104Y003280D01*
X027061Y003161D02*
X026903Y003161D01*
X026903Y003043D02*
X027061Y003043D01*
X027064Y002924D02*
X026899Y002924D01*
X026850Y002806D02*
X026998Y002806D01*
X026879Y002687D02*
X026788Y002687D01*
X025915Y002569D02*
X025292Y002569D01*
X025410Y002687D02*
X025797Y002687D01*
X025735Y002806D02*
X025472Y002806D01*
X025521Y002924D02*
X025686Y002924D01*
X025683Y003043D02*
X025525Y003043D01*
X025525Y003161D02*
X025683Y003161D01*
X025726Y003280D02*
X025481Y003280D01*
X025432Y003398D02*
X025775Y003398D01*
X025892Y003517D02*
X025315Y003517D01*
X025106Y003635D02*
X026101Y003635D01*
X024723Y003635D02*
X023728Y003635D01*
X023937Y003517D02*
X024514Y003517D01*
X024397Y003398D02*
X024054Y003398D01*
X024104Y003280D02*
X024348Y003280D01*
X024305Y003161D02*
X024147Y003161D01*
X024147Y003043D02*
X024305Y003043D01*
X024308Y002924D02*
X024143Y002924D01*
X024094Y002806D02*
X024357Y002806D01*
X024419Y002687D02*
X024032Y002687D01*
X023914Y002569D02*
X024537Y002569D01*
X023137Y003517D02*
X022083Y003517D01*
X022200Y003398D02*
X023019Y003398D01*
X023345Y003635D02*
X021874Y003635D01*
X021491Y003635D02*
X020496Y003635D01*
X020705Y003517D02*
X021282Y003517D01*
X021165Y003398D02*
X020822Y003398D01*
X020871Y003280D02*
X021115Y003280D01*
X021072Y003161D02*
X020914Y003161D01*
X020914Y003043D02*
X021072Y003043D01*
X021076Y002924D02*
X020911Y002924D01*
X020862Y002806D02*
X021125Y002806D01*
X021187Y002687D02*
X020800Y002687D01*
X020682Y002569D02*
X021305Y002569D01*
X019927Y002569D02*
X019304Y002569D01*
X019422Y002687D02*
X019809Y002687D01*
X019747Y002806D02*
X019484Y002806D01*
X019533Y002924D02*
X019698Y002924D01*
X019694Y003043D02*
X019536Y003043D01*
X019536Y003161D02*
X019694Y003161D01*
X019738Y003280D02*
X019493Y003280D01*
X019444Y003398D02*
X019787Y003398D01*
X019904Y003517D02*
X019327Y003517D01*
X019118Y003635D02*
X020113Y003635D01*
X022738Y004465D02*
X034180Y004465D01*
X034180Y004583D02*
X028856Y004583D01*
X028975Y004702D02*
X034180Y004702D01*
X034180Y004820D02*
X029093Y004820D01*
X029212Y004939D02*
X034180Y004939D01*
X034180Y005057D02*
X033684Y005057D01*
X033802Y005176D02*
X034180Y005176D01*
X034180Y005294D02*
X033870Y005294D01*
X033870Y005413D02*
X034180Y005413D01*
X034182Y005531D02*
X033870Y005531D01*
X033870Y005650D02*
X034300Y005650D01*
X034419Y005768D02*
X033767Y005768D01*
X033648Y005887D02*
X034537Y005887D01*
X033071Y005887D02*
X032648Y005887D01*
X032767Y005768D02*
X032952Y005768D01*
X032917Y005176D02*
X032802Y005176D01*
X032684Y005057D02*
X033035Y005057D01*
X032261Y004346D02*
X034180Y004346D01*
X034180Y004228D02*
X032433Y004228D01*
X032552Y004109D02*
X034180Y004109D01*
X034180Y003991D02*
X032670Y003991D01*
X032789Y003872D02*
X034180Y003872D01*
X034180Y003754D02*
X032907Y003754D01*
X033374Y003635D02*
X034180Y003635D01*
X034180Y003517D02*
X033583Y003517D01*
X033700Y003398D02*
X034180Y003398D01*
X034180Y003280D02*
X033749Y003280D01*
X033792Y003161D02*
X034180Y003161D01*
X034180Y003043D02*
X033792Y003043D01*
X033789Y002924D02*
X034180Y002924D01*
X034180Y002806D02*
X033740Y002806D01*
X033678Y002687D02*
X034180Y002687D01*
X034180Y002569D02*
X033560Y002569D01*
X033318Y002450D02*
X034180Y002450D01*
X032035Y005057D02*
X031684Y005057D01*
X031802Y005176D02*
X031917Y005176D01*
X031952Y005768D02*
X031767Y005768D01*
X031648Y005887D02*
X032071Y005887D01*
X031071Y005887D02*
X030648Y005887D01*
X030767Y005768D02*
X030952Y005768D01*
X030917Y005176D02*
X030802Y005176D01*
X030684Y005057D02*
X031035Y005057D01*
X030035Y005057D02*
X029684Y005057D01*
X029802Y005176D02*
X029917Y005176D01*
X029952Y005768D02*
X029767Y005768D01*
X029648Y005887D02*
X030071Y005887D01*
X030060Y007664D02*
X035180Y007664D01*
X035180Y007783D02*
X031166Y007783D01*
X031529Y007901D02*
X033675Y007901D01*
X033738Y007875D02*
X033981Y007875D01*
X034205Y007968D01*
X034377Y008139D01*
X034470Y008363D01*
X034470Y008606D01*
X034377Y008830D01*
X034205Y009002D01*
X033981Y009095D01*
X033738Y009095D01*
X033514Y009002D01*
X033342Y008830D01*
X033250Y008606D01*
X033250Y008363D01*
X033342Y008139D01*
X033514Y007968D01*
X033738Y007875D01*
X034044Y007901D02*
X035180Y007901D01*
X035180Y008020D02*
X034257Y008020D01*
X034375Y008138D02*
X035180Y008138D01*
X035180Y008257D02*
X034425Y008257D01*
X034470Y008375D02*
X035180Y008375D01*
X035180Y008494D02*
X034470Y008494D01*
X034467Y008612D02*
X035180Y008612D01*
X035180Y008731D02*
X034418Y008731D01*
X034358Y008849D02*
X035180Y008849D01*
X035180Y008968D02*
X034239Y008968D01*
X034002Y009086D02*
X035180Y009086D01*
X033717Y009086D02*
X030118Y009086D01*
X030135Y008968D02*
X033480Y008968D01*
X033361Y008849D02*
X030135Y008849D01*
X030135Y008731D02*
X033301Y008731D01*
X033252Y008612D02*
X031524Y008612D01*
X031642Y008494D02*
X033250Y008494D01*
X033250Y008375D02*
X031700Y008375D01*
X031700Y008257D02*
X033294Y008257D01*
X033344Y008138D02*
X031700Y008138D01*
X031647Y008020D02*
X033462Y008020D01*
X033568Y009323D02*
X028681Y009323D01*
X028594Y009442D02*
X033418Y009442D01*
X031416Y009560D02*
X030106Y009560D01*
X030135Y009679D02*
X031298Y009679D01*
X031179Y009797D02*
X030135Y009797D01*
X030135Y009916D02*
X030976Y009916D01*
X030857Y010034D02*
X030135Y010034D01*
X030135Y010153D02*
X030820Y010153D01*
X029184Y010271D02*
X028730Y010271D01*
X028664Y010390D02*
X029184Y010390D01*
X029184Y010508D02*
X026900Y010508D01*
X026900Y010390D02*
X027292Y010390D01*
X027209Y010271D02*
X026900Y010271D01*
X026847Y010153D02*
X027209Y010153D01*
X027209Y010034D02*
X026900Y010034D01*
X026900Y009916D02*
X027565Y009916D01*
X027565Y009894D02*
X027209Y009894D01*
X027209Y009638D01*
X027220Y009597D01*
X027241Y009561D01*
X027271Y009531D01*
X027307Y009510D01*
X027348Y009499D01*
X027565Y009499D01*
X027565Y009894D01*
X027565Y009797D02*
X027685Y009797D01*
X027685Y009679D02*
X027565Y009679D01*
X027565Y009560D02*
X027685Y009560D01*
X027685Y009323D02*
X027565Y009323D01*
X027565Y009205D02*
X027685Y009205D01*
X027685Y009086D02*
X027565Y009086D01*
X027565Y008968D02*
X027685Y008968D01*
X027565Y008849D02*
X026900Y008849D01*
X026900Y008968D02*
X027209Y008968D01*
X027209Y009086D02*
X026891Y009086D01*
X026920Y009205D02*
X027209Y009205D01*
X027266Y009323D02*
X026920Y009323D01*
X026920Y009442D02*
X027994Y009442D01*
X027565Y008844D02*
X027209Y008844D01*
X027209Y008588D01*
X027220Y008547D01*
X027241Y008511D01*
X027271Y008481D01*
X027307Y008460D01*
X027348Y008449D01*
X027565Y008449D01*
X027565Y008844D01*
X027565Y008731D02*
X027685Y008731D01*
X027685Y008612D02*
X027565Y008612D01*
X027565Y008494D02*
X027685Y008494D01*
X027258Y008494D02*
X026920Y008494D01*
X026916Y008612D02*
X027209Y008612D01*
X027209Y008731D02*
X026894Y008731D01*
X026920Y009560D02*
X027241Y009560D01*
X027209Y009679D02*
X026869Y009679D01*
X026900Y009797D02*
X027209Y009797D01*
X027565Y010034D02*
X027685Y010034D01*
X027685Y010153D02*
X027565Y010153D01*
X027565Y010271D02*
X027685Y010271D01*
X027685Y010390D02*
X027565Y010390D01*
X026871Y010627D02*
X029084Y010627D01*
X028966Y010745D02*
X026897Y010745D01*
X026900Y010864D02*
X028847Y010864D01*
X028729Y010982D02*
X026900Y010982D01*
X026886Y011101D02*
X028610Y011101D01*
X028492Y011219D02*
X026890Y011219D01*
X026900Y011338D02*
X028373Y011338D01*
X027786Y011456D02*
X026900Y011456D01*
X026345Y011338D02*
X026335Y011338D01*
X026335Y011219D02*
X026345Y011219D01*
X026335Y011101D02*
X026345Y011101D01*
X026335Y010982D02*
X026345Y010982D01*
X026335Y010864D02*
X026345Y010864D01*
X026335Y010745D02*
X026345Y010745D01*
X026335Y010627D02*
X026345Y010627D01*
X026335Y010508D02*
X026345Y010508D01*
X026335Y010390D02*
X026345Y010390D01*
X026335Y010271D02*
X026345Y010271D01*
X026335Y010153D02*
X026345Y010153D01*
X026335Y010034D02*
X026345Y010034D01*
X026335Y009916D02*
X026345Y009916D01*
X028706Y009560D02*
X029213Y009560D01*
X030135Y008612D02*
X030995Y008612D01*
X030877Y008494D02*
X030135Y008494D01*
X030135Y008375D02*
X030820Y008375D01*
X027620Y007664D02*
X027500Y007664D01*
X027500Y007546D02*
X027620Y007546D01*
X027620Y007427D02*
X027500Y007427D01*
X012634Y007664D02*
X012585Y007664D01*
X012134Y007664D02*
X012085Y007664D01*
X011634Y007664D02*
X011585Y007664D01*
X011134Y007664D02*
X011019Y007664D01*
X009868Y004346D02*
X012781Y004346D01*
X012609Y004228D02*
X009868Y004228D01*
X009868Y004109D02*
X012490Y004109D01*
X012372Y003991D02*
X009868Y003991D01*
X009868Y003872D02*
X012253Y003872D01*
X012135Y003754D02*
X009868Y003754D01*
X009868Y003635D02*
X011845Y003635D01*
X011637Y003517D02*
X009968Y003517D01*
X010086Y003398D02*
X011519Y003398D01*
X011470Y003280D02*
X010135Y003280D01*
X010178Y003161D02*
X011427Y003161D01*
X011427Y003043D02*
X010178Y003043D01*
X010175Y002924D02*
X011430Y002924D01*
X011479Y002806D02*
X010126Y002806D01*
X010064Y002687D02*
X011541Y002687D01*
X011660Y002569D02*
X009945Y002569D01*
X009704Y002450D02*
X011901Y002450D01*
X010948Y012641D02*
X010097Y012641D01*
X009978Y012760D02*
X010830Y012760D01*
X010711Y012878D02*
X009860Y012878D01*
X009741Y012997D02*
X010593Y012997D01*
X010474Y013115D02*
X009623Y013115D01*
X009504Y013234D02*
X010356Y013234D01*
X010237Y013352D02*
X009386Y013352D01*
X009267Y013471D02*
X010119Y013471D01*
X010000Y013589D02*
X009149Y013589D01*
X009030Y013708D02*
X009882Y013708D01*
X009763Y013826D02*
X008912Y013826D01*
X008793Y013945D02*
X009645Y013945D01*
X009526Y014063D02*
X008675Y014063D01*
X008556Y014182D02*
X009408Y014182D01*
X009304Y014300D02*
X008490Y014300D01*
X008490Y014419D02*
X009268Y014419D01*
X009268Y014537D02*
X008490Y014537D01*
X008490Y014656D02*
X009268Y014656D01*
X009268Y014774D02*
X008490Y014774D01*
X008490Y014893D02*
X009268Y014893D01*
X009268Y015011D02*
X008490Y015011D01*
X012120Y016433D02*
X012501Y016433D01*
X012501Y016552D02*
X012120Y016552D01*
X012120Y016670D02*
X012501Y016670D01*
X012501Y016789D02*
X012120Y016789D01*
X012120Y016907D02*
X012602Y016907D01*
X012460Y028402D02*
X007565Y028402D01*
X007565Y028520D02*
X012578Y028520D01*
X012697Y028639D02*
X007565Y028639D01*
X007565Y028757D02*
X012815Y028757D01*
X012934Y028876D02*
X007565Y028876D01*
X007565Y028994D02*
X013052Y028994D01*
X013171Y029113D02*
X007565Y029113D01*
X007565Y029231D02*
X013289Y029231D01*
X013466Y029350D02*
X007565Y029350D01*
D34*
X017760Y023154D03*
X018320Y020074D03*
X019960Y019054D03*
X018360Y018554D03*
X017860Y017554D03*
X017360Y016554D03*
X016860Y016054D03*
X014660Y015354D03*
X012860Y016554D03*
X012360Y016054D03*
X010860Y015554D03*
X011860Y014554D03*
X008860Y015154D03*
X013360Y017554D03*
X013860Y018554D03*
X008860Y020154D03*
X015660Y012254D03*
X016360Y012254D03*
X019060Y013054D03*
X020360Y014054D03*
X020360Y015454D03*
X024360Y010654D03*
X025160Y008854D03*
X021460Y009854D03*
X019460Y008454D03*
X019060Y008454D03*
X016360Y008054D03*
X015660Y008654D03*
X011360Y006254D03*
X010860Y003854D03*
X010860Y010154D03*
X020910Y004654D03*
X030360Y012054D03*
X030360Y013454D03*
X030360Y014754D03*
X028160Y014754D03*
X028160Y015654D03*
X021160Y023154D03*
X030860Y006854D03*
D35*
X026360Y009776D02*
X025460Y009776D01*
X025461Y011534D01*
X026361Y011534D01*
X026360Y009776D01*
X026360Y009813D02*
X025460Y009813D01*
X025460Y009912D02*
X026360Y009912D01*
X026360Y010010D02*
X025460Y010010D01*
X025460Y010109D02*
X026360Y010109D01*
X026360Y010207D02*
X025460Y010207D01*
X025460Y010306D02*
X026360Y010306D01*
X026360Y010404D02*
X025460Y010404D01*
X025460Y010503D02*
X026360Y010503D01*
X026360Y010601D02*
X025460Y010601D01*
X025460Y010700D02*
X026360Y010700D01*
X026361Y010798D02*
X025461Y010798D01*
X025461Y010897D02*
X026361Y010897D01*
X026361Y010995D02*
X025461Y010995D01*
X025461Y011094D02*
X026361Y011094D01*
X026361Y011192D02*
X025461Y011192D01*
X025461Y011291D02*
X026361Y011291D01*
X026361Y011389D02*
X025461Y011389D01*
X025461Y011488D02*
X026361Y011488D01*
X023160Y011488D02*
X022360Y011488D01*
X022360Y011533D02*
X022360Y009776D01*
X023160Y009776D01*
X023160Y011533D01*
X022360Y011533D01*
X022360Y011389D02*
X023160Y011389D01*
X023160Y011291D02*
X022360Y011291D01*
X022360Y011192D02*
X023160Y011192D01*
X023160Y011094D02*
X022360Y011094D01*
X022360Y010995D02*
X023160Y010995D01*
X023160Y010897D02*
X022360Y010897D01*
X022360Y010798D02*
X023160Y010798D01*
X023160Y010700D02*
X022360Y010700D01*
X022360Y010601D02*
X023160Y010601D01*
X023160Y010503D02*
X022360Y010503D01*
X022360Y010404D02*
X023160Y010404D01*
X023160Y010306D02*
X022360Y010306D01*
X022360Y010207D02*
X023160Y010207D01*
X023160Y010109D02*
X022360Y010109D01*
X022360Y010010D02*
X023160Y010010D01*
X023160Y009912D02*
X022360Y009912D01*
X022360Y009813D02*
X023160Y009813D01*
X014860Y009813D02*
X011360Y009813D01*
X011360Y009715D02*
X014860Y009715D01*
X014860Y009616D02*
X011360Y009616D01*
X011360Y009518D02*
X014860Y009518D01*
X014860Y009419D02*
X011313Y009419D01*
X011360Y009454D02*
X010960Y009154D01*
X010660Y008954D01*
X010740Y008874D01*
X013863Y008874D01*
X013912Y008854D01*
X014160Y008854D01*
X014860Y008154D01*
X014860Y010354D01*
X011360Y010354D01*
X011360Y009454D01*
X011182Y009321D02*
X014860Y009321D01*
X014860Y009222D02*
X011050Y009222D01*
X010914Y009124D02*
X014860Y009124D01*
X014860Y009025D02*
X010766Y009025D01*
X010687Y008927D02*
X014860Y008927D01*
X014860Y008828D02*
X014185Y008828D01*
X014284Y008730D02*
X014860Y008730D01*
X014860Y008631D02*
X014382Y008631D01*
X014481Y008533D02*
X014860Y008533D01*
X014860Y008434D02*
X014579Y008434D01*
X014678Y008336D02*
X014860Y008336D01*
X014860Y008237D02*
X014776Y008237D01*
X014860Y009912D02*
X011360Y009912D01*
X011360Y010010D02*
X014860Y010010D01*
X014860Y010109D02*
X011360Y010109D01*
X011360Y010207D02*
X014860Y010207D01*
X014860Y010306D02*
X011360Y010306D01*
D36*
X019060Y008454D02*
X019460Y008454D01*
X020358Y008454D01*
X020408Y008404D01*
X020410Y008403D01*
X020410Y007654D01*
X021234Y006830D01*
X023826Y006830D01*
X023826Y007578D02*
X023000Y008404D01*
X021511Y008404D01*
X022380Y008404D01*
X022380Y011904D02*
X021060Y011904D01*
X026340Y011904D02*
X028060Y011904D01*
X028344Y011904D01*
X029660Y010589D01*
X030925Y010589D01*
X031260Y010254D01*
X031651Y009863D01*
X033860Y009863D01*
D37*
X030304Y026154D02*
X031304Y027054D01*
X027171Y027054D02*
X027171Y027143D01*
M02*
