G75*
G70*
%OFA0B0*%
%FSLAX24Y24*%
%IPPOS*%
%LPD*%
%AMOC8*
5,1,8,0,0,1.08239X$1,22.5*
%
%ADD10C,0.0000*%
%ADD11C,0.0051*%
%ADD12C,0.0060*%
D10*
X007360Y000754D02*
X007360Y029550D01*
X033730Y029550D01*
X033730Y025484D01*
X034360Y024854D01*
X034360Y020354D01*
X035360Y019354D01*
X035360Y006454D01*
X034360Y005454D01*
X034360Y000754D01*
X007360Y000754D01*
D11*
X000492Y000754D01*
X001260Y000754D02*
X001362Y001778D01*
X001385Y001778D02*
X001260Y000754D01*
X001157Y001778D01*
X001134Y001778D02*
X001385Y001778D01*
X001311Y001778D02*
X001260Y000754D01*
X001208Y001778D01*
X001134Y001778D02*
X001260Y000754D01*
X001260Y029550D01*
X001362Y028527D01*
X001385Y028527D02*
X001260Y029550D01*
X001157Y028527D01*
X001134Y028527D02*
X001385Y028527D01*
X001311Y028527D02*
X001260Y029550D01*
X001208Y028527D01*
X001134Y028527D02*
X001260Y029550D01*
X000492Y029550D02*
X007360Y029550D01*
X007360Y031354D02*
X008383Y031252D01*
X008383Y031228D02*
X007360Y031354D01*
X008383Y031456D01*
X008383Y031480D02*
X008383Y031228D01*
X008383Y031303D02*
X007360Y031354D01*
X008383Y031405D01*
X008383Y031480D02*
X007360Y031354D01*
X035360Y031354D01*
X034336Y031252D01*
X034336Y031228D02*
X035360Y031354D01*
X034336Y031456D01*
X034336Y031480D02*
X034336Y031228D01*
X034336Y031303D02*
X035360Y031354D01*
X034336Y031405D01*
X034336Y031480D02*
X035360Y031354D01*
X035360Y032122D02*
X035360Y019354D01*
X039027Y019354D01*
X038260Y019354D02*
X038362Y018330D01*
X038385Y018330D02*
X038134Y018330D01*
X038260Y019354D01*
X038157Y018330D01*
X038208Y018330D02*
X038260Y019354D01*
X038311Y018330D01*
X038385Y018330D02*
X038260Y019354D01*
X038260Y006454D01*
X038362Y007478D01*
X038385Y007478D02*
X038134Y007478D01*
X038260Y006454D01*
X038157Y007478D01*
X038208Y007478D02*
X038260Y006454D01*
X038311Y007478D01*
X038385Y007478D02*
X038260Y006454D01*
X039027Y006454D02*
X035360Y006454D01*
X007360Y019354D02*
X007360Y032122D01*
D12*
X020137Y032251D02*
X020564Y032251D01*
X020564Y032144D01*
X020137Y031717D01*
X020137Y031610D01*
X020781Y031610D02*
X021208Y031610D01*
X020995Y031610D02*
X020995Y032251D01*
X020781Y032037D01*
X021426Y031717D02*
X021533Y031717D01*
X021533Y031610D01*
X021426Y031610D01*
X021426Y031717D01*
X021748Y031610D02*
X022175Y031610D01*
X021962Y031610D02*
X021962Y032251D01*
X021748Y032037D01*
X022393Y032144D02*
X022499Y032251D01*
X022713Y032251D01*
X022820Y032144D01*
X022820Y032037D01*
X022393Y031610D01*
X022820Y031610D01*
X037363Y014364D02*
X037470Y014364D01*
X037897Y013937D01*
X038003Y013937D01*
X037470Y013720D02*
X037897Y013293D01*
X038003Y013293D01*
X038003Y013077D02*
X038003Y012970D01*
X037897Y012970D01*
X037897Y013077D01*
X038003Y013077D01*
X038003Y012753D02*
X038003Y012326D01*
X037576Y012753D01*
X037470Y012753D01*
X037363Y012646D01*
X037363Y012433D01*
X037470Y012326D01*
X037470Y012108D02*
X037576Y012108D01*
X037683Y012002D01*
X037790Y012108D01*
X037897Y012108D01*
X038003Y012002D01*
X038003Y011788D01*
X037897Y011681D01*
X037683Y011895D02*
X037683Y012002D01*
X037470Y012108D02*
X037363Y012002D01*
X037363Y011788D01*
X037470Y011681D01*
X037363Y013293D02*
X037363Y013720D01*
X037470Y013720D01*
X037363Y013937D02*
X037363Y014364D01*
X001003Y014681D02*
X000897Y014574D01*
X001003Y014681D02*
X001003Y014894D01*
X000897Y015001D01*
X000790Y015001D01*
X000683Y014894D01*
X000683Y014787D01*
X000683Y014894D02*
X000576Y015001D01*
X000470Y015001D01*
X000363Y014894D01*
X000363Y014681D01*
X000470Y014574D01*
X000470Y014356D02*
X000897Y013929D01*
X001003Y013929D01*
X000363Y013929D02*
X000363Y014356D01*
X000470Y014356D01*
X000897Y015218D02*
X000897Y015325D01*
X001003Y015325D01*
X001003Y015218D01*
X000897Y015218D01*
X001003Y015541D02*
X001003Y015968D01*
X001003Y015754D02*
X000363Y015754D01*
X000576Y015541D01*
X000683Y016185D02*
X000683Y016612D01*
X000363Y016506D02*
X000683Y016185D01*
X001003Y016506D02*
X000363Y016506D01*
M02*
