%
M48
M72
T01C0.0236
T02C0.0320
T03C0.0360
T04C0.0394
%
T01
X10860Y3854
X11360Y6254
X15660Y8654
X16360Y8054
X19060Y8454
X19460Y8454
X21460Y9854
X24360Y10654
X25160Y8854
X20910Y4654
X16360Y12254
X15660Y12254
X19060Y13054
X20360Y14054
X20360Y15454
X17860Y17554
X18360Y18554
X19960Y19054
X18320Y20074
X17760Y23154
X21160Y23154
X13860Y18554
X13360Y17554
X12860Y16554
X12360Y16054
X10860Y15554
X11860Y14554
X14660Y15354
X16860Y16054
X17360Y16554
X10860Y10154
X8860Y15154
X8860Y20154
X28160Y15654
X28160Y14754
X30360Y14754
X30360Y13454
X30360Y12054
X30860Y6854
T02
X31260Y8254
X31260Y10254
X28060Y11904
X28060Y12904
X26260Y14254
X26260Y15254
X24260Y15254
X24260Y14254
X21060Y11904
X21060Y10904
X30360Y16054
X30360Y17054
X32860Y20254
X32860Y21254
X19660Y22154
X18660Y22154
X17060Y22054
X16060Y22054
X9660Y11154
X8660Y11154
X8660Y9054
X9660Y9054
T03
X19360Y7454
X19360Y6454
T04
X8190Y3054
X9568Y3054
X12037Y3054
X13415Y3054
X14793Y3054
X16171Y3054
X17548Y3054
X18926Y3054
X20304Y3054
X21682Y3054
X23537Y3054
X24915Y3054
X26293Y3054
X27671Y3054
X29048Y3054
X30426Y3054
X31804Y3054
X33182Y3054
X33360Y5454
X32360Y5454
X31360Y5454
X30360Y5454
X29360Y5454
X28360Y5454
X26360Y5454
X25360Y5454
X24360Y5454
X23360Y5454
X22360Y5454
X21360Y5454
X33860Y8485
X33860Y9863
X33860Y15885
X33860Y17263
X33360Y24454
X32360Y24454
X31360Y24454
X30360Y24454
X29360Y24454
X28360Y24454
X27360Y24454
X26360Y24454
X24760Y24454
X23760Y24454
X22760Y24454
X21760Y24454
X20760Y24454
X19760Y24454
X18760Y24454
X17760Y24454
X18426Y27054
X19804Y27054
X21182Y27054
X23037Y27054
X24415Y27054
X25793Y27054
X27171Y27054
X28548Y27054
X29926Y27054
X31304Y27054
X32682Y27054
X17048Y27054
X15671Y27054
X14293Y27054
X12915Y27054
X11537Y27054
X9568Y27054
X8190Y27054
M30
