M48
; DRILL file {KiCad (6.0.4-0)} date Sunday, March 20, 2022 at 04:54:43 PM
; FORMAT={-:-/ absolute / inch / decimal}
; #@! TF.CreationDate,2022-03-20T16:54:43-07:00
; #@! TF.GenerationSoftware,Kicad,Pcbnew,(6.0.4-0)
; #@! TF.FileFunction,MixedPlating,1,2
FMAT,2
INCH
; #@! TA.AperFunction,Plated,PTH,ComponentDrill
T1C0.0394
; #@! TA.AperFunction,Plated,PTH,ComponentDrill
T2C0.0400
%
G90
G05
T1
X4.9815Y-2.756
X4.9815Y-2.856
X4.9815Y-2.956
X4.9815Y-3.056
X4.9815Y-3.156
X4.9815Y-3.256
X4.9815Y-3.356
X4.9815Y-3.456
X4.9815Y-3.556
X4.9815Y-3.656
X4.9815Y-3.756
X4.9815Y-3.856
X4.9815Y-3.956
X4.9815Y-4.056
X4.9815Y-4.156
X4.9815Y-4.256
X4.9815Y-4.356
X4.9815Y-4.456
X4.9815Y-4.556
X4.9815Y-4.656
X5.0815Y-2.756
X5.0815Y-2.856
X5.0815Y-2.956
X5.0815Y-3.056
X5.0815Y-3.156
X5.0815Y-3.256
X5.0815Y-3.356
X5.0815Y-3.456
X5.0815Y-3.556
X5.0815Y-3.656
X5.0815Y-3.756
X5.0815Y-3.856
X5.0815Y-3.956
X5.0815Y-4.056
X5.0815Y-4.156
X5.0815Y-4.256
X5.0815Y-4.356
X5.0815Y-4.456
X5.0815Y-4.556
X5.0815Y-4.656
T2
X4.5815Y-2.456
X4.5815Y-2.556
X4.5815Y-2.656
X4.5815Y-2.756
X4.5815Y-2.856
X4.5815Y-2.956
X4.5815Y-3.056
X4.5815Y-3.156
X4.5815Y-3.256
X4.5815Y-3.356
X4.5815Y-3.456
X4.5815Y-3.556
X4.5815Y-3.656
X4.5815Y-3.756
X4.5815Y-3.856
X4.5815Y-3.956
X4.5815Y-4.056
X4.5815Y-4.156
X4.5815Y-4.256
X4.5815Y-4.356
X4.5815Y-4.456
X4.5815Y-4.556
X4.5815Y-4.656
X4.6815Y-2.456
X4.6815Y-2.556
X4.6815Y-2.656
X4.6815Y-2.756
X4.6815Y-2.856
X4.6815Y-2.956
X4.6815Y-3.056
X4.6815Y-3.156
X4.6815Y-3.256
X4.6815Y-3.356
X4.6815Y-3.456
X4.6815Y-3.556
X4.6815Y-3.656
X4.6815Y-3.756
X4.6815Y-3.856
X4.6815Y-3.956
X4.6815Y-4.056
X4.6815Y-4.156
X4.6815Y-4.256
X4.6815Y-4.356
X4.6815Y-4.456
X4.6815Y-4.556
X4.6815Y-4.656
X6.4815Y-2.456
X6.4815Y-2.556
X6.4815Y-2.656
X6.4815Y-2.756
X6.4815Y-2.856
X6.4815Y-2.956
X6.4815Y-3.056
X6.4815Y-3.156
X6.4815Y-3.256
X6.4815Y-3.356
X6.4815Y-3.456
X6.4815Y-3.556
X6.4815Y-3.656
X6.4815Y-3.756
X6.4815Y-3.856
X6.4815Y-3.956
X6.4815Y-4.056
X6.4815Y-4.156
X6.4815Y-4.256
X6.4815Y-4.356
X6.4815Y-4.456
X6.4815Y-4.556
X6.4815Y-4.656
X6.5815Y-2.456
X6.5815Y-2.556
X6.5815Y-2.656
X6.5815Y-2.756
X6.5815Y-2.856
X6.5815Y-2.956
X6.5815Y-3.056
X6.5815Y-3.156
X6.5815Y-3.256
X6.5815Y-3.356
X6.5815Y-3.456
X6.5815Y-3.556
X6.5815Y-3.656
X6.5815Y-3.756
X6.5815Y-3.856
X6.5815Y-3.956
X6.5815Y-4.056
X6.5815Y-4.156
X6.5815Y-4.256
X6.5815Y-4.356
X6.5815Y-4.456
X6.5815Y-4.556
X6.5815Y-4.656
T0
M30
